<svg xmlns="http://www.w3.org/2000/svg" xmlns:xlink="http://www.w3.org/1999/xlink" width="450" zoomAndPan="magnify" viewBox="0 0 337.5 225" height="300" preserveAspectRatio="xMidYMid meet" version="1.0"><defs><clipPath id="id1"><path d="M 85 187 L 163 187 L 163 202 L 85 202 Z M 85 187 " clip-rule="nonzero"/></clipPath><clipPath id="id2"><path d="M 85.214844 187.472656 L 153.789062 187.472656 C 158.511719 187.472656 162.339844 190.535156 162.339844 194.316406 C 162.339844 198.09375 158.511719 201.15625 153.789062 201.15625 L 85.210938 201.15625 C 88.414062 196.960938 88.40625 191.65625 85.214844 187.472656 Z M 85.214844 187.472656 " clip-rule="nonzero"/></clipPath><linearGradient x1="325.720903" gradientTransform="matrix(0.375, 0, 0, 0.375, 0, 0.16643)" y1="536.178758" x2="325.797292" gradientUnits="userSpaceOnUse" y2="499.258359" id="id3"><stop stop-opacity="1" stop-color="rgb(98.594666%, 98.594666%, 98.594666%)" offset="0"/><stop stop-opacity="1" stop-color="rgb(98.434448%, 98.434448%, 98.434448%)" offset="0.0115263"/><stop stop-opacity="1" stop-color="rgb(98.275757%, 98.275757%, 98.275757%)" offset="0.125"/><stop stop-opacity="1" stop-color="rgb(98.11554%, 98.11554%, 98.11554%)" offset="0.25"/><stop stop-opacity="1" stop-color="rgb(97.795105%, 97.795105%, 97.795105%)" offset="0.375"/><stop stop-opacity="1" stop-color="rgb(97.47467%, 97.47467%, 97.47467%)" offset="0.5"/><stop stop-opacity="1" stop-color="rgb(97.155762%, 97.155762%, 97.155762%)" offset="0.625"/><stop stop-opacity="1" stop-color="rgb(96.835327%, 96.835327%, 96.835327%)" offset="0.75"/><stop stop-opacity="1" stop-color="rgb(96.516418%, 96.516418%, 96.516418%)" offset="0.875"/><stop stop-opacity="1" stop-color="rgb(96.195984%, 96.195984%, 96.195984%)" offset="0.988474"/><stop stop-opacity="1" stop-color="rgb(96.035767%, 96.035767%, 96.035767%)" offset="1"/></linearGradient><clipPath id="id4"><path d="M 111 173 L 156 173 L 156 185 L 111 185 Z M 111 173 " clip-rule="nonzero"/></clipPath><clipPath id="id5"><path d="M 111.71875 173.746094 L 144.140625 173.746094 C 150.160156 173.746094 155.039062 176.164062 155.039062 179.148438 C 155.039062 182.132812 150.160156 184.550781 144.140625 184.550781 L 111.507812 184.550781 C 113.738281 181.113281 113.796875 177.199219 111.71875 173.746094 Z M 111.71875 173.746094 " clip-rule="nonzero"/></clipPath><linearGradient x1="352.966113" gradientTransform="matrix(0.375, 0, 0, 0.375, 0, 0.16643)" y1="491.851321" x2="353.050134" gradientUnits="userSpaceOnUse" y2="462.705905" id="id6"><stop stop-opacity="1" stop-color="rgb(98.594666%, 98.594666%, 98.594666%)" offset="0"/><stop stop-opacity="1" stop-color="rgb(98.434448%, 98.434448%, 98.434448%)" offset="0.0114819"/><stop stop-opacity="1" stop-color="rgb(98.275757%, 98.275757%, 98.275757%)" offset="0.125"/><stop stop-opacity="1" stop-color="rgb(98.11554%, 98.11554%, 98.11554%)" offset="0.25"/><stop stop-opacity="1" stop-color="rgb(97.795105%, 97.795105%, 97.795105%)" offset="0.375"/><stop stop-opacity="1" stop-color="rgb(97.47467%, 97.47467%, 97.47467%)" offset="0.5"/><stop stop-opacity="1" stop-color="rgb(97.155762%, 97.155762%, 97.155762%)" offset="0.625"/><stop stop-opacity="1" stop-color="rgb(96.835327%, 96.835327%, 96.835327%)" offset="0.75"/><stop stop-opacity="1" stop-color="rgb(96.516418%, 96.516418%, 96.516418%)" offset="0.875"/><stop stop-opacity="1" stop-color="rgb(96.195984%, 96.195984%, 96.195984%)" offset="0.988518"/><stop stop-opacity="1" stop-color="rgb(96.035767%, 96.035767%, 96.035767%)" offset="1"/></linearGradient><clipPath id="id7"><path d="M 121 160 L 166 160 L 166 173 L 121 173 Z M 121 160 " clip-rule="nonzero"/></clipPath><clipPath id="id8"><path d="M 121.242188 172.082031 L 159.304688 172.082031 C 162.679688 172.082031 165.414062 169.574219 165.414062 166.484375 C 165.414062 163.394531 162.679688 160.886719 159.304688 160.886719 L 121.238281 160.886719 C 124.148438 163.992188 124.261719 168.542969 121.507812 171.761719 Z M 121.242188 172.082031 " clip-rule="nonzero"/></clipPath><linearGradient x1="379.742828" gradientTransform="matrix(0.375, 0, 0, 0.375, 0, 0.16643)" y1="458.603335" x2="379.831811" gradientUnits="userSpaceOnUse" y2="428.410397" id="id9"><stop stop-opacity="1" stop-color="rgb(98.594666%, 98.594666%, 98.594666%)" offset="0"/><stop stop-opacity="1" stop-color="rgb(98.434448%, 98.434448%, 98.434448%)" offset="0.011499"/><stop stop-opacity="1" stop-color="rgb(98.275757%, 98.275757%, 98.275757%)" offset="0.125"/><stop stop-opacity="1" stop-color="rgb(98.11554%, 98.11554%, 98.11554%)" offset="0.25"/><stop stop-opacity="1" stop-color="rgb(97.795105%, 97.795105%, 97.795105%)" offset="0.375"/><stop stop-opacity="1" stop-color="rgb(97.47467%, 97.47467%, 97.47467%)" offset="0.5"/><stop stop-opacity="1" stop-color="rgb(97.155762%, 97.155762%, 97.155762%)" offset="0.625"/><stop stop-opacity="1" stop-color="rgb(96.835327%, 96.835327%, 96.835327%)" offset="0.75"/><stop stop-opacity="1" stop-color="rgb(96.516418%, 96.516418%, 96.516418%)" offset="0.875"/><stop stop-opacity="1" stop-color="rgb(96.195984%, 96.195984%, 96.195984%)" offset="0.988501"/><stop stop-opacity="1" stop-color="rgb(96.035767%, 96.035767%, 96.035767%)" offset="1"/></linearGradient><clipPath id="id10"><path d="M 100 150 L 158 150 L 158 159 L 100 159 Z M 100 150 " clip-rule="nonzero"/></clipPath><clipPath id="id11"><path d="M 100.171875 150.082031 L 152.238281 150.082031 C 155.261719 150.082031 157.714844 151.972656 157.714844 154.308594 C 157.714844 156.640625 155.261719 158.53125 152.238281 158.53125 L 100.171875 158.53125 C 102.085938 155.914062 102.085938 152.695312 100.171875 150.082031 Z M 100.171875 150.082031 " clip-rule="nonzero"/></clipPath><linearGradient x1="340.600382" gradientTransform="matrix(0.375, 0, 0, 0.375, 0, 0.16643)" y1="422.436508" x2="340.639333" gradientUnits="userSpaceOnUse" y2="399.635432" id="id12"><stop stop-opacity="1" stop-color="rgb(98.594666%, 98.594666%, 98.594666%)" offset="0"/><stop stop-opacity="1" stop-color="rgb(98.434448%, 98.434448%, 98.434448%)" offset="0.0114969"/><stop stop-opacity="1" stop-color="rgb(98.275757%, 98.275757%, 98.275757%)" offset="0.125"/><stop stop-opacity="1" stop-color="rgb(98.11554%, 98.11554%, 98.11554%)" offset="0.25"/><stop stop-opacity="1" stop-color="rgb(97.795105%, 97.795105%, 97.795105%)" offset="0.375"/><stop stop-opacity="1" stop-color="rgb(97.476196%, 97.476196%, 97.476196%)" offset="0.5"/><stop stop-opacity="1" stop-color="rgb(97.155762%, 97.155762%, 97.155762%)" offset="0.625"/><stop stop-opacity="1" stop-color="rgb(96.835327%, 96.835327%, 96.835327%)" offset="0.75"/><stop stop-opacity="1" stop-color="rgb(96.516418%, 96.516418%, 96.516418%)" offset="0.875"/><stop stop-opacity="1" stop-color="rgb(96.195984%, 96.195984%, 96.195984%)" offset="0.988503"/><stop stop-opacity="1" stop-color="rgb(96.035767%, 96.035767%, 96.035767%)" offset="1"/></linearGradient><clipPath id="id13"><path d="M 79 107 L 97 107 L 97 118 L 79 118 Z M 79 107 " clip-rule="nonzero"/></clipPath><clipPath id="id14"><path d="M 88.980469 117.777344 C 84.160156 118.917969 79.058594 114.828125 79.058594 114.828125 C 79.058594 114.828125 81.78125 108.886719 86.605469 107.75 C 91.429688 106.605469 96.527344 110.691406 96.527344 110.691406 C 96.527344 110.691406 93.804688 116.632812 88.980469 117.777344 Z M 88.980469 117.777344 " clip-rule="nonzero"/></clipPath><linearGradient x1="208.564851" gradientTransform="matrix(0.375, 0, 0, 0.375, 0, 0.16643)" y1="311.890169" x2="259.32735" gradientUnits="userSpaceOnUse" y2="287.907834" id="id15"><stop stop-opacity="1" stop-color="rgb(98.826599%, 98.826599%, 98.826599%)" offset="0"/><stop stop-opacity="1" stop-color="rgb(98.63739%, 98.63739%, 98.63739%)" offset="0.125"/><stop stop-opacity="1" stop-color="rgb(98.258972%, 98.258972%, 98.258972%)" offset="0.2498"/><stop stop-opacity="1" stop-color="rgb(98.071289%, 98.071289%, 98.071289%)" offset="0.25"/><stop stop-opacity="1" stop-color="rgb(97.88208%, 97.88208%, 97.88208%)" offset="0.375"/><stop stop-opacity="1" stop-color="rgb(97.503662%, 97.503662%, 97.503662%)" offset="0.5"/><stop stop-opacity="1" stop-color="rgb(97.12677%, 97.12677%, 97.12677%)" offset="0.625"/><stop stop-opacity="1" stop-color="rgb(96.748352%, 96.748352%, 96.748352%)" offset="0.75"/><stop stop-opacity="1" stop-color="rgb(96.37146%, 96.37146%, 96.37146%)" offset="0.7502"/><stop stop-opacity="1" stop-color="rgb(96.182251%, 96.182251%, 96.182251%)" offset="0.875"/><stop stop-opacity="1" stop-color="rgb(95.993042%, 95.993042%, 95.993042%)" offset="1"/></linearGradient><clipPath id="id16"><path d="M 77 35 L 105 35 L 105 57 L 77 57 Z M 77 35 " clip-rule="nonzero"/></clipPath><clipPath id="id17"><path d="M 86.015625 53.371094 C 93.351562 58.425781 104.554688 54.894531 104.554688 54.894531 C 104.554688 54.894531 103.863281 43.171875 96.523438 38.125 C 89.1875 33.070312 77.984375 36.597656 77.984375 36.597656 C 77.984375 36.597656 78.679688 48.320312 86.015625 53.371094 Z M 86.015625 53.371094 " clip-rule="nonzero"/></clipPath><linearGradient x1="277.555435" gradientTransform="matrix(0.375, 0, 0, 0.375, 0, 0.16643)" y1="156.551426" x2="210.249915" gradientUnits="userSpaceOnUse" y2="85.579221" id="id18"><stop stop-opacity="1" stop-color="rgb(98.780823%, 98.780823%, 98.780823%)" offset="0"/><stop stop-opacity="1" stop-color="rgb(98.597717%, 98.597717%, 98.597717%)" offset="0.125"/><stop stop-opacity="1" stop-color="rgb(98.231506%, 98.231506%, 98.231506%)" offset="0.25"/><stop stop-opacity="1" stop-color="rgb(97.865295%, 97.865295%, 97.865295%)" offset="0.375"/><stop stop-opacity="1" stop-color="rgb(97.499084%, 97.499084%, 97.499084%)" offset="0.498459"/><stop stop-opacity="1" stop-color="rgb(97.315979%, 97.315979%, 97.315979%)" offset="0.5"/><stop stop-opacity="1" stop-color="rgb(97.132874%, 97.132874%, 97.132874%)" offset="0.501541"/><stop stop-opacity="1" stop-color="rgb(96.949768%, 96.949768%, 96.949768%)" offset="0.625"/><stop stop-opacity="1" stop-color="rgb(96.766663%, 96.766663%, 96.766663%)" offset="0.75"/><stop stop-opacity="1" stop-color="rgb(96.400452%, 96.400452%, 96.400452%)" offset="0.875"/><stop stop-opacity="1" stop-color="rgb(96.034241%, 96.034241%, 96.034241%)" offset="1"/></linearGradient><clipPath id="id19"><path d="M 221 58 L 238 58 L 238 75 L 221 75 Z M 221 58 " clip-rule="nonzero"/></clipPath><clipPath id="id20"><path d="M 234.1875 71.335938 C 229.804688 75.796875 221.613281 74.855469 221.613281 74.855469 C 221.613281 74.855469 220.527344 66.6875 224.914062 62.230469 C 229.292969 57.769531 237.484375 58.707031 237.484375 58.707031 C 237.484375 58.707031 238.566406 66.878906 234.1875 71.335938 Z M 234.1875 71.335938 " clip-rule="nonzero"/></clipPath><linearGradient x1="593.852977" gradientTransform="matrix(0.375, 0, 0, 0.375, 0, 0.16643)" y1="205.367816" x2="629.56316" gradientUnits="userSpaceOnUse" y2="149.388655" id="id21"><stop stop-opacity="1" stop-color="rgb(98.731995%, 98.731995%, 98.731995%)" offset="0"/><stop stop-opacity="1" stop-color="rgb(98.554993%, 98.554993%, 98.554993%)" offset="0.125"/><stop stop-opacity="1" stop-color="rgb(98.200989%, 98.200989%, 98.200989%)" offset="0.25"/><stop stop-opacity="1" stop-color="rgb(97.846985%, 97.846985%, 97.846985%)" offset="0.375"/><stop stop-opacity="1" stop-color="rgb(97.492981%, 97.492981%, 97.492981%)" offset="0.389647"/><stop stop-opacity="1" stop-color="rgb(97.315979%, 97.315979%, 97.315979%)" offset="0.5"/><stop stop-opacity="1" stop-color="rgb(97.138977%, 97.138977%, 97.138977%)" offset="0.610353"/><stop stop-opacity="1" stop-color="rgb(96.961975%, 96.961975%, 96.961975%)" offset="0.625"/><stop stop-opacity="1" stop-color="rgb(96.784973%, 96.784973%, 96.784973%)" offset="0.75"/><stop stop-opacity="1" stop-color="rgb(96.430969%, 96.430969%, 96.430969%)" offset="0.875"/><stop stop-opacity="1" stop-color="rgb(96.076965%, 96.076965%, 96.076965%)" offset="1"/></linearGradient></defs><path stroke-linecap="butt" transform="matrix(0.375, 0, 0, 0.375, 0, 0.16643)" fill="none" stroke-linejoin="miter" d="M 111.000013 543.639586 L 789.000096 543.639586 " stroke="#e1e4e5" stroke-width="4" stroke-opacity="1" stroke-miterlimit="4"/><path fill="#59401e" d="M 83.304688 203.191406 L 206.941406 203.191406 C 211.664062 203.191406 215.492188 200.128906 215.492188 196.351562 L 215.492188 192.28125 C 215.492188 188.5 211.664062 185.441406 206.941406 185.441406 L 83.308594 185.441406 C 88.964844 190.386719 89.058594 197.949219 83.535156 202.988281 Z M 83.304688 203.191406 " fill-opacity="1" fill-rule="nonzero"/><g clip-path="url(#id1)"><g clip-path="url(#id2)"><path fill="url(#id3)" d="M 85.210938 187.472656 L 85.210938 201.15625 L 162.339844 201.15625 L 162.339844 187.472656 Z M 85.210938 187.472656 " fill-rule="nonzero"/></g></g><path fill="#ed8b00" d="M 111.304688 173.109375 C 111.128906 172.847656 111.402344 172.546875 111.816406 172.546875 L 177.234375 172.546875 C 182.363281 172.546875 186.519531 175.433594 186.519531 178.992188 C 186.519531 182.554688 182.363281 185.441406 177.234375 185.441406 L 111.796875 185.441406 C 111.382812 185.441406 111.105469 185.136719 111.289062 184.875 C 113.878906 181.148438 113.871094 176.816406 111.304688 173.109375 Z M 111.304688 173.109375 " fill-opacity="1" fill-rule="nonzero"/><g clip-path="url(#id4)"><g clip-path="url(#id5)"><path fill="url(#id6)" d="M 111.507812 173.746094 L 111.507812 184.550781 L 155.039062 184.550781 L 155.039062 173.746094 Z M 111.507812 173.746094 " fill-rule="nonzero"/></g></g><g clip-path="url(#id7)"><g clip-path="url(#id8)"><path fill="url(#id9)" d="M 121.238281 160.886719 L 121.238281 172.082031 L 165.414062 172.082031 L 165.414062 160.886719 Z M 121.238281 160.886719 " fill-rule="nonzero"/></g></g><path fill="#59401e" d="M 165.410156 166.484375 C 165.410156 163.394531 162.609375 160.886719 159.15625 160.886719 L 120.515625 160.886719 C 120.332031 160.886719 120.1875 160.753906 120.191406 160.59375 C 120.191406 160.433594 120.335938 160.308594 120.515625 160.308594 L 181.8125 160.308594 C 185.625 160.308594 188.71875 163.074219 188.71875 166.484375 C 188.71875 169.898438 185.625 172.664062 181.8125 172.664062 L 120.515625 172.664062 C 120.335938 172.664062 120.191406 172.535156 120.191406 172.375 C 120.1875 172.214844 120.332031 172.082031 120.515625 172.082031 L 159.15625 172.082031 C 162.609375 172.082031 165.410156 169.574219 165.410156 166.484375 Z M 165.410156 166.484375 " fill-opacity="1" fill-rule="nonzero"/><path fill="#ed8b00" d="M 98.445312 148.304688 L 195.84375 148.304688 C 198.867188 148.304688 201.320312 150.195312 201.320312 152.53125 L 201.320312 156.082031 C 201.320312 158.417969 198.867188 160.308594 195.84375 160.308594 L 98.445312 160.308594 L 98.5 160.269531 C 102.664062 156.921875 102.644531 151.628906 98.445312 148.304688 Z M 98.445312 148.304688 " fill-opacity="1" fill-rule="nonzero"/><g clip-path="url(#id10)"><g clip-path="url(#id11)"><path fill="url(#id12)" d="M 100.171875 150.082031 L 100.171875 158.53125 L 157.714844 158.53125 L 157.714844 150.082031 Z M 100.171875 150.082031 " fill-rule="nonzero"/></g></g><path fill="#f8ae9d" d="M 104.789062 155.011719 C 101.546875 153.917969 98.738281 151.585938 97.097656 148.59375 C 96.632812 147.769531 96.253906 146.820312 96.378906 145.882812 C 96.410156 145.691406 96.460938 145.464844 96.632812 145.375 C 96.785156 145.289062 96.996094 145.335938 97.167969 145.386719 C 102.582031 146.847656 108.304688 149.308594 113.988281 149.046875 C 114.25 149.042969 114.507812 149.023438 114.734375 149.125 C 115.015625 149.242188 115.191406 149.496094 115.316406 149.773438 C 115.746094 150.667969 116.117188 152.359375 115.976562 153.367188 C 115.804688 154.566406 114.648438 154.742188 113.628906 155 C 110.726562 155.738281 107.679688 155.992188 104.789062 155.011719 Z M 104.789062 155.011719 " fill-opacity="1" fill-rule="nonzero"/><path fill="#f8ae9d" d="M 104.289062 148.292969 C 103.851562 148.109375 103.398438 147.925781 102.929688 147.917969 C 102.460938 147.90625 101.945312 148.15625 101.796875 148.609375 C 101.695312 148.921875 101.789062 149.25 101.914062 149.542969 C 102.253906 150.300781 102.851562 150.917969 103.484375 151.460938 C 105.910156 153.503906 109.011719 154.738281 112.1875 154.933594 C 113.59375 155.015625 115.066406 154.890625 116.304688 154.230469 C 115.6875 153.476562 115.808594 152.402344 115.742188 151.449219 C 115.542969 148.660156 113.167969 149.71875 111.261719 149.714844 C 108.867188 149.664062 106.484375 149.195312 104.289062 148.292969 Z M 104.289062 148.292969 " fill-opacity="1" fill-rule="nonzero"/><path fill="#59401e" d="M 176.816406 127.671875 L 176.925781 127.984375 C 177.6875 130.191406 178.273438 132.46875 178.519531 134.804688 C 178.964844 139.097656 178.121094 144.121094 174.894531 147.238281 C 170.589844 151.394531 163.683594 152.039062 158.066406 151.046875 C 155.734375 150.640625 153.632812 149.707031 151.765625 148.25 C 149.9375 149.90625 147.972656 151.722656 146.335938 153.566406 C 143.035156 152.414062 139.933594 150.863281 137.023438 148.921875 C 130.171875 152.0625 123.183594 154.179688 115.804688 155.710938 C 114.960938 153.605469 114.371094 151.429688 114.042969 149.1875 C 113.984375 148.824219 118.585938 145.71875 119.113281 145.277344 C 120.707031 143.9375 124.023438 140.871094 124.023438 140.871094 C 124.023438 140.871094 119.84375 137.308594 118.015625 135.640625 C 116.078125 133.902344 114.226562 132.082031 112.453125 130.175781 C 110.992188 128.605469 109.5625 126.945312 108.664062 124.980469 C 107.769531 123.035156 107.441406 120.734375 108.1875 118.714844 C 110.554688 112.417969 120.105469 114.632812 124.542969 116.800781 C 128.210938 118.601562 131.421875 121.21875 134.511719 123.878906 C 135.757812 124.933594 136.988281 126.023438 138.203125 127.097656 C 139.15625 126.113281 140.210938 124.832031 141.117188 123.796875 C 142.085938 122.671875 143.199219 121.613281 144.539062 120.953125 C 145.949219 120.238281 147.253906 120.339844 148.757812 120.125 C 149.429688 120.027344 150.085938 119.828125 150.746094 119.714844 C 152.714844 119.355469 154.800781 119.738281 156.53125 120.753906 C 158.175781 121.714844 159.511719 122.855469 161.441406 123.226562 C 163.632812 123.644531 166.175781 123.398438 168.375 123.101562 C 170.34375 122.832031 172.347656 122.382812 174.3125 122.769531 C 175.132812 122.933594 175.441406 124.070312 175.714844 124.726562 C 176.074219 125.671875 176.453125 126.65625 176.816406 127.671875 Z M 159.40625 55.078125 C 159.40625 55.078125 164.710938 54.234375 166.136719 63.597656 C 167.71875 74.007812 171.945312 72.292969 178.65625 80.746094 C 182.578125 85.6875 178.453125 94.40625 170.0625 94.234375 C 161.675781 94.066406 154.101562 91.640625 149.273438 92.679688 C 144.449219 93.714844 144.183594 81.359375 148.945312 77.546875 C 153.707031 73.734375 143.554688 62.78125 149.742188 57.90625 C 155.925781 53.03125 159.40625 55.078125 159.40625 55.078125 Z M 159.40625 55.078125 " fill-opacity="1" fill-rule="nonzero"/><path fill="#59401e" d="M 191.113281 96.367188 C 191.597656 95.371094 191.566406 94.21875 191.394531 93.140625 C 190.636719 88.515625 187.394531 84.648438 183.679688 81.816406 C 179.953125 78.976562 175.6875 76.949219 171.765625 74.40625 C 170.746094 73.742188 169.726562 73.027344 168.558594 72.671875 C 167.390625 72.3125 166.03125 72.351562 165.066406 73.105469 C 164.382812 73.632812 163.992188 74.453125 163.761719 75.269531 C 163.257812 77.058594 163.453125 78.957031 163.757812 80.773438 C 164.140625 83.0625 164.703125 85.328125 165.625 87.433594 C 166.367188 89.132812 167.570312 90.882812 169.382812 91.214844 C 169.90625 93.242188 170.984375 95.144531 172.496094 96.601562 C 174.226562 98.269531 176.417969 99.363281 178.695312 100.125 C 180.792969 100.828125 183.085938 101.285156 185.199219 100.628906 C 186.449219 100.246094 187.554688 99.511719 188.632812 98.761719 C 189.59375 98.121094 190.59375 97.421875 191.113281 96.367188 Z M 172.15625 93.28125 L 170.917969 91.316406 C 171.183594 91.34375 171.429688 91.394531 171.683594 91.496094 C 172.363281 91.792969 172.773438 92.863281 172.15625 93.28125 Z M 172.15625 93.28125 " fill-opacity="1" fill-rule="nonzero"/><path fill="#f8ae9d" d="M 149.210938 63.3125 C 149.148438 63.660156 149.136719 64.023438 149.160156 64.4375 C 149.300781 66.882812 149.816406 69.242188 150.707031 71.523438 C 151.246094 72.867188 151.90625 74.191406 152.84375 75.304688 C 153.230469 75.765625 153.671875 76.191406 154.246094 76.359375 C 154.835938 76.523438 155.582031 76.546875 156.171875 76.398438 C 156.6875 78.539062 156.472656 82.582031 154.625 84.101562 C 154.058594 84.558594 153.386719 84.847656 152.714844 85.101562 C 151.40625 85.605469 150.039062 85.992188 148.675781 86.289062 C 147.121094 86.625 145.425781 86.875 144.332031 88.019531 C 144.195312 88.160156 144.0625 88.351562 144.117188 88.542969 C 144.152344 88.664062 144.242188 88.75 144.347656 88.816406 C 145.207031 89.511719 146.269531 89.894531 147.332031 90.261719 C 149.195312 90.890625 151.113281 91.417969 153.058594 91.769531 C 155.09375 92.136719 157.191406 92.3125 159.25 92.089844 C 160.84375 91.910156 162.414062 91.503906 163.859375 90.789062 C 165.375 90.039062 166.925781 89.425781 168.492188 88.710938 C 169.816406 88.101562 171.125 87.402344 172.558594 87.15625 C 171.882812 85.867188 170.464844 85.144531 169.058594 84.800781 C 167.648438 84.476562 166.171875 84.445312 164.746094 84.171875 C 164.277344 84.074219 163.808594 83.960938 163.40625 83.671875 C 162.300781 82.875 162.605469 81.101562 162.585938 79.941406 L 162.53125 76.265625 C 162.695312 74.511719 163.417969 73.046875 164.050781 71.441406 C 165.019531 68.984375 165.21875 66.1875 164.367188 63.671875 C 163.515625 61.171875 161.574219 59 159.082031 58.117188 C 156.589844 57.234375 153.597656 57.730469 151.683594 59.566406 C 150.472656 60.746094 149.484375 61.800781 149.210938 63.3125 Z M 149.210938 63.3125 " fill-opacity="1" fill-rule="nonzero"/><path fill="#59401e" d="M 156.875 55.5 C 154.390625 55.222656 152.128906 56.4375 150.449219 58.324219 C 149.039062 59.902344 148.207031 61.992188 148.25 64.085938 C 148.253906 64.386719 148.289062 64.714844 148.457031 64.980469 C 148.90625 65.625 149.882812 65.390625 150.613281 65.101562 C 151.800781 64.640625 152.6875 63.972656 153.765625 63.40625 C 154.84375 62.839844 156.152344 62.921875 157.117188 62.140625 C 158.027344 61.386719 161.15625 59.796875 161.238281 58.570312 C 161.347656 57.070312 158.597656 55.847656 157.449219 55.597656 C 157.285156 55.546875 157.09375 55.523438 156.875 55.5 Z M 156.875 55.5 " fill-opacity="1" fill-rule="nonzero"/><path fill="#59401e" d="M 164.03125 58.894531 C 166.132812 60.25 167.117188 62.621094 167.226562 65.144531 C 167.324219 67.261719 166.648438 69.402344 165.289062 71 C 165.097656 71.230469 164.863281 71.460938 164.5625 71.5625 C 163.808594 71.777344 163.203125 70.980469 162.816406 70.296875 C 162.1875 69.1875 161.925781 68.109375 161.445312 66.988281 C 160.96875 65.867188 159.902344 65.105469 159.648438 63.890625 C 159.417969 62.730469 157.996094 59.523438 158.707031 58.519531 C 159.574219 57.289062 162.476562 58.074219 163.523438 58.609375 C 163.683594 58.671875 163.847656 58.773438 164.03125 58.894531 Z M 164.03125 58.894531 " fill-opacity="1" fill-rule="nonzero"/><path fill="#ed8b00" d="M 145.347656 87.484375 C 145.015625 87.332031 144.621094 87.441406 144.398438 87.742188 C 141.921875 91.210938 140.964844 95.558594 140.125 99.75 C 139.175781 104.511719 138.328125 109.292969 137.519531 114.074219 C 137.46875 114.316406 137.4375 114.578125 137.546875 114.800781 C 137.652344 115.023438 137.898438 115.140625 138.125 115.242188 C 139.558594 115.929688 141.007812 116.601562 142.4375 117.292969 C 143.988281 113.761719 145.09375 110.101562 145.753906 106.304688 C 146.675781 108.628906 148.335938 110.648438 150.453125 111.96875 C 148.875 114.230469 146.933594 118.75 145.039062 120.738281 C 144.75 121.054688 142.957031 120.558594 142.554688 120.425781 C 142.304688 121.140625 143.472656 120.378906 143.46875 121.105469 C 144.542969 121.265625 145.921875 120.617188 147.027344 120.480469 C 148.367188 120.324219 149.707031 120.316406 151.050781 120.453125 C 153.273438 120.699219 155.433594 121.394531 157.40625 122.4375 C 158.390625 122.960938 159.328125 123.554688 160.226562 124.214844 C 160.996094 124.792969 162.90625 126.152344 162.90625 126.152344 C 163.046875 126.253906 163.703125 126.105469 163.859375 126.066406 C 164.3125 125.988281 164.769531 125.929688 165.226562 125.890625 C 166.375 125.800781 167.515625 125.652344 168.652344 125.441406 C 170.914062 125.023438 173.140625 124.382812 175.277344 123.5 C 175.484375 123.34375 174.75 121.828125 174.710938 121.535156 C 174.75 121.808594 178.957031 121.46875 179.371094 121.394531 C 181.03125 121.054688 182.710938 120.875 184.367188 120.519531 C 183.625 113.839844 181.585938 107.386719 179.582031 100.988281 C 178.796875 98.46875 177.996094 95.949219 176.886719 93.574219 C 175.703125 91.042969 174.175781 88.675781 172.34375 86.570312 C 172.289062 86.519531 172.203125 86.484375 172.132812 86.503906 C 171.253906 86.726562 165.882812 88.105469 163.210938 89.101562 C 161.847656 89.625 160.46875 90.097656 159.074219 90.570312 C 158.519531 90.75 157.953125 90.933594 157.378906 90.921875 C 156.996094 90.910156 156.617188 90.832031 156.25 90.75 C 152.527344 89.921875 148.804688 89.027344 145.347656 87.484375 Z M 145.347656 87.484375 " fill-opacity="1" fill-rule="nonzero"/><path stroke-linecap="round" transform="matrix(0.375, 0, 0, 0.375, 0, 0.16643)" fill="none" stroke-linejoin="miter" d="M 452.197972 268.337469 C 452.614638 270.868719 453.156305 273.452053 453.708388 275.983303 C 455.041722 281.743721 456.739639 287.389555 458.812556 292.920805 C 459.875056 295.681222 460.979223 298.389556 462.218806 301.09789 C 462.843806 302.431223 463.468806 303.764557 464.135473 305.087473 C 464.468806 305.733307 464.80214 306.420807 465.135473 307.06664 C 465.416723 307.608307 465.750057 308.118724 466.031307 308.618724 C 464.05214 308.556224 454.229222 309.129141 452.197972 309.295807 " stroke="#ffffff" stroke-width="1.376" stroke-opacity="1" stroke-miterlimit="10"/><path fill="#f8ae9d" d="M 169.457031 116.898438 C 169.53125 117.382812 169.628906 117.867188 169.738281 118.351562 L 170.074219 119.800781 C 170.183594 120.214844 170.433594 120.730469 170.441406 121.164062 C 170.4375 121.078125 167.488281 120.828125 167.210938 120.796875 C 164.136719 120.5 161.050781 120.320312 157.976562 120.125 C 155.980469 119.996094 154.023438 120.046875 152.03125 120.058594 C 151.441406 120.066406 150.746094 120.007812 150.429688 119.527344 C 150.160156 119.117188 150.378906 118.59375 150.164062 118.214844 C 150.027344 118.25 148.421875 118.65625 148.4375 118.621094 C 148.375 118.988281 148.246094 119.75 147.867188 119.929688 C 147.734375 119.980469 147.597656 120.007812 147.453125 120.007812 C 147.246094 120.007812 147.039062 119.976562 146.828125 119.945312 C 146.796875 119.945312 146.765625 119.933594 146.742188 119.914062 C 146.707031 119.878906 146.738281 119.828125 146.773438 119.773438 C 147.257812 119.058594 147.496094 118.269531 147.484375 117.40625 C 147.980469 117.070312 148.476562 116.679688 148.90625 116.257812 C 149.246094 115.90625 149.5 115.449219 149.875 115.152344 C 150.269531 114.816406 150.652344 115.015625 151.089844 115.132812 C 151.59375 115.246094 152.097656 115.375 152.585938 115.527344 C 153.542969 115.824219 154.503906 116.191406 155.308594 116.785156 C 155.589844 116.988281 155.851562 117.210938 156.183594 117.308594 C 156.496094 117.40625 156.84375 117.402344 157.171875 117.398438 C 159.199219 117.347656 161.226562 117.25 163.234375 117.027344 C 165.292969 116.804688 166.699219 116.835938 169.398438 116.429688 C 169.398438 116.449219 169.398438 116.605469 169.457031 116.898438 Z M 169.457031 116.898438 " fill-opacity="1" fill-rule="nonzero"/><path stroke-linecap="round" transform="matrix(0.375, 0, 0, 0.375, 0, 0.16643)" fill="none" stroke-linejoin="miter" d="M 392.343798 267.827052 C 391.052131 273.410386 390.114631 279.05622 389.489631 284.806221 " stroke="#ffffff" stroke-width="1.376" stroke-opacity="1" stroke-miterlimit="10"/><path fill="#59401e" d="M 106.25 97.144531 L 112.199219 123.679688 L 157.382812 122.992188 C 157.359375 121.433594 156.074219 120.171875 154.496094 120.195312 L 143.699219 120.359375 L 138.320312 95.945312 C 138.148438 95.152344 137.429688 94.589844 136.632812 94.601562 L 107.898438 95.039062 C 106.808594 95.070312 106.007812 96.074219 106.25 97.144531 Z M 106.25 97.144531 " fill-opacity="1" fill-rule="nonzero"/><path fill="#f8ae9d" d="M 165.273438 161.980469 C 165.0625 160.769531 164.472656 159.53125 163.917969 158.449219 C 161.632812 154.011719 157.546875 150.882812 153.144531 148.730469 C 152.691406 148.511719 152.234375 148.292969 151.765625 148.128906 C 151.800781 148.179688 151.835938 148.230469 151.871094 148.300781 L 151.871094 148.316406 L 151.890625 148.316406 C 151.835938 148.28125 151.800781 148.25 151.75 148.214844 C 149.972656 149.820312 148.074219 151.582031 146.453125 153.355469 C 147.523438 154.226562 149.078125 154.929688 149.847656 155.507812 C 151.671875 156.847656 153.425781 158.277344 155.320312 159.53125 C 157.859375 161.246094 160.5625 162.484375 163.589844 163.027344 C 164.753906 163.238281 165.363281 163.453125 165.351562 162.550781 C 165.332031 162.414062 165.308594 162.222656 165.273438 161.980469 Z M 165.273438 161.980469 " fill-opacity="1" fill-rule="nonzero"/><path fill="#f8ae9d" d="M 162.324219 158.488281 C 161.144531 156.269531 159.316406 154.582031 157.316406 153.085938 C 155.914062 152.035156 154.425781 151.085938 153.007812 150.121094 C 152.605469 149.847656 151.8125 149.113281 151.132812 148.761719 C 149.714844 150.046875 148.261719 151.40625 146.945312 152.8125 C 151.285156 155.449219 155.152344 158.894531 159.914062 160.761719 C 160.347656 160.929688 160.800781 161.09375 161.269531 161.105469 C 161.738281 161.117188 162.238281 160.917969 162.511719 160.53125 C 162.933594 159.9375 162.660156 159.125 162.324219 158.488281 Z M 162.324219 158.488281 " fill-opacity="1" fill-rule="nonzero"/><path fill="#ed8b00" d="M 235.957031 181.648438 C 236.152344 181.648438 236.320312 181.582031 236.460938 181.445312 C 236.601562 181.304688 236.671875 181.140625 236.675781 180.945312 C 236.8125 173.441406 230.800781 170.191406 230.542969 170.054688 C 230.367188 169.960938 230.183594 169.945312 229.992188 170.003906 C 229.800781 170.066406 229.660156 170.183594 229.566406 170.359375 C 229.476562 170.535156 229.457031 170.71875 229.515625 170.910156 C 229.574219 171.097656 229.691406 171.242188 229.867188 171.335938 C 229.878906 171.339844 231.273438 172.089844 232.617188 173.652344 C 234.402344 175.714844 235.28125 178.160156 235.226562 180.917969 C 235.222656 181.117188 235.292969 181.289062 235.429688 181.433594 C 235.566406 181.574219 235.734375 181.648438 235.933594 181.65625 C 235.945312 181.648438 235.953125 181.648438 235.957031 181.648438 Z M 238.277344 163.023438 C 238.277344 163.023438 246.648438 147.234375 216.621094 136.167969 C 215.070312 135.597656 213.503906 136.964844 213.875 138.574219 C 215.769531 146.792969 221.988281 166.011719 238.277344 163.023438 Z M 238.277344 163.023438 " fill-opacity="1" fill-rule="nonzero"/><path fill="#ed8b00" d="M 246.515625 180.21875 C 246.554688 180.21875 246.589844 180.21875 246.617188 180.214844 C 246.816406 180.183594 246.972656 180.089844 247.09375 179.929688 C 247.214844 179.769531 247.257812 179.589844 247.230469 179.394531 C 245.148438 165.027344 234.445312 158.351562 233.234375 157.632812 C 232.894531 157.429688 232.445312 157.539062 232.242188 157.878906 C 232.039062 158.21875 232.144531 158.664062 232.488281 158.867188 L 232.503906 158.871094 C 233.015625 159.171875 235.683594 160.824219 238.554688 164.042969 C 242.515625 168.492188 244.957031 173.722656 245.804688 179.589844 C 245.859375 179.960938 246.164062 180.21875 246.515625 180.21875 Z M 246.515625 180.21875 " fill-opacity="1" fill-rule="nonzero"/><path fill="#ed8b00" d="M 242.109375 180.21875 L 242.144531 180.21875 C 242.34375 180.210938 242.507812 180.128906 242.644531 179.984375 C 242.777344 179.835938 242.839844 179.664062 242.832031 179.464844 C 242.546875 173.320312 246.445312 167.714844 246.480469 167.65625 C 246.59375 167.492188 246.636719 167.3125 246.601562 167.117188 C 246.566406 166.921875 246.46875 166.765625 246.308594 166.648438 C 246.144531 166.535156 245.964844 166.496094 245.769531 166.53125 C 245.574219 166.566406 245.417969 166.664062 245.304688 166.824219 C 245.128906 167.070312 241.078125 172.898438 241.390625 179.53125 C 241.398438 179.722656 241.472656 179.886719 241.609375 180.019531 C 241.75 180.152344 241.914062 180.21875 242.109375 180.21875 Z M 240.039062 181.277344 L 240.054688 181.277344 C 240.253906 181.273438 240.421875 181.199219 240.5625 181.054688 C 240.699219 180.910156 240.761719 180.738281 240.757812 180.535156 L 240.140625 157.160156 C 240.132812 156.960938 240.058594 156.792969 239.914062 156.65625 C 239.769531 156.519531 239.597656 156.453125 239.398438 156.460938 C 239.199219 156.464844 239.03125 156.542969 238.894531 156.6875 C 238.757812 156.832031 238.691406 157.003906 238.699219 157.203125 L 239.3125 180.574219 C 239.320312 180.769531 239.394531 180.933594 239.53125 181.070312 C 239.671875 181.210938 239.839844 181.277344 240.039062 181.277344 Z M 240.039062 181.277344 " fill-opacity="1" fill-rule="nonzero"/><path fill="#ed8b00" d="M 245.050781 168.054688 C 245.050781 168.054688 262.085938 173.472656 267.605469 141.941406 C 267.894531 140.3125 266.265625 139.019531 264.746094 139.671875 C 257 143.007812 239.199219 152.5625 245.050781 168.054688 Z M 234.019531 174.125 C 234.019531 174.125 218.707031 183.34375 206.019531 153.953125 C 205.367188 152.441406 206.648438 150.800781 208.273438 151.082031 C 216.585938 152.53125 236.113281 157.695312 234.019531 174.125 Z M 234.019531 174.125 " fill-opacity="1" fill-rule="nonzero"/><path fill="#ed8b00" d="M 236.824219 165.246094 C 238.007812 167.699219 241.585938 167.429688 242.402344 164.824219 C 246.03125 153.230469 252.117188 128.652344 239.515625 125.828125 C 225.386719 122.664062 230.117188 151.375 236.824219 165.246094 Z M 236.824219 165.246094 " fill-opacity="1" fill-rule="nonzero"/><path fill="#59401e" d="M 239.734375 166.816406 L 239.75 166.816406 C 239.964844 166.8125 240.132812 166.625 240.128906 166.410156 L 238.800781 133.546875 C 238.796875 133.4375 238.753906 133.347656 238.675781 133.273438 C 238.59375 133.199219 238.5 133.164062 238.394531 133.167969 C 238.175781 133.175781 238.011719 133.363281 238.015625 133.578125 L 239.339844 166.441406 C 239.34375 166.546875 239.382812 166.636719 239.457031 166.710938 C 239.535156 166.78125 239.625 166.820312 239.734375 166.816406 Z M 233.59375 174.171875 C 233.707031 174.171875 233.820312 174.121094 233.898438 174.027344 C 234.035156 173.859375 234.011719 173.609375 233.847656 173.476562 L 215.644531 158.578125 C 215.476562 158.441406 215.226562 158.464844 215.09375 158.632812 C 214.957031 158.800781 214.980469 159.050781 215.148438 159.183594 L 233.347656 174.082031 C 233.421875 174.140625 233.511719 174.171875 233.59375 174.171875 Z M 233.59375 174.171875 " fill-opacity="1" fill-rule="nonzero"/><path stroke-linecap="round" transform="matrix(0.375, 0, 0, 0.375, 0, 0.16643)" fill-opacity="1" fill="#ffffff" fill-rule="nonzero" stroke-linejoin="round" d="M 602.218823 476.024994 C 595.687572 476.024994 590.833405 482.056245 592.218822 488.441662 L 593.104239 492.472913 L 594.979239 501.045831 L 595.854239 505.097914 L 596.156322 506.493748 C 600.57299 526.68125 618.447992 541.077085 639.114661 541.077085 C 659.78133 541.077085 677.656332 526.68125 682.072999 506.493748 L 682.375083 505.097914 L 683.250083 501.045831 L 685.114667 492.472913 L 686.000083 488.441662 C 687.3855 482.056245 682.531333 476.024994 676.000082 476.024994 Z M 602.218823 476.024994 " stroke="#e1e4e5" stroke-width="4" stroke-opacity="1" stroke-miterlimit="4"/><g clip-path="url(#id13)"><g clip-path="url(#id14)"><path fill="url(#id15)" d="M 79.058594 106.605469 L 79.058594 118.917969 L 96.527344 118.917969 L 96.527344 106.605469 Z M 79.058594 106.605469 " fill-rule="nonzero"/></g></g><g clip-path="url(#id16)"><g clip-path="url(#id17)"><path fill="url(#id18)" d="M 77.984375 33.070312 L 77.984375 58.425781 L 104.554688 58.425781 L 104.554688 33.070312 Z M 77.984375 33.070312 " fill-rule="nonzero"/></g></g><g clip-path="url(#id19)"><g clip-path="url(#id20)"><path fill="url(#id21)" d="M 220.527344 57.769531 L 220.527344 75.796875 L 238.566406 75.796875 L 238.566406 57.769531 Z M 220.527344 57.769531 " fill-rule="nonzero"/></g></g><path fill="#ed8b00" d="M 268.78125 170.199219 C 268.78125 169.699219 268.878906 169.21875 269.070312 168.757812 C 269.261719 168.296875 269.53125 167.890625 269.886719 167.535156 C 270.238281 167.183594 270.644531 166.910156 271.105469 166.71875 C 271.566406 166.53125 272.046875 166.433594 272.546875 166.433594 C 273.046875 166.433594 273.527344 166.53125 273.988281 166.71875 C 274.449219 166.910156 274.855469 167.183594 275.207031 167.535156 C 275.5625 167.890625 275.832031 168.296875 276.023438 168.757812 C 276.214844 169.21875 276.3125 169.699219 276.3125 170.199219 C 276.3125 170.699219 276.214844 171.175781 276.023438 171.640625 C 275.832031 172.101562 275.5625 172.507812 275.207031 172.859375 C 274.855469 173.210938 274.449219 173.484375 273.988281 173.675781 C 273.527344 173.867188 273.046875 173.960938 272.546875 173.960938 C 272.046875 173.960938 271.566406 173.867188 271.105469 173.675781 C 270.644531 173.484375 270.238281 173.210938 269.886719 172.859375 C 269.53125 172.507812 269.261719 172.101562 269.070312 171.640625 C 268.878906 171.175781 268.78125 170.699219 268.78125 170.199219 Z M 268.78125 170.199219 " fill-opacity="1" fill-rule="nonzero"/><path fill="#ed8b00" d="M 74.96875 168.726562 C 74.96875 168.464844 74.996094 168.207031 75.050781 167.953125 C 75.101562 167.699219 75.183594 167.453125 75.285156 167.210938 C 75.390625 166.972656 75.519531 166.742188 75.671875 166.527344 C 75.824219 166.308594 75.996094 166.109375 76.191406 165.925781 C 76.382812 165.742188 76.59375 165.578125 76.820312 165.433594 C 77.050781 165.289062 77.289062 165.167969 77.542969 165.066406 C 77.796875 164.96875 78.054688 164.894531 78.324219 164.84375 C 78.59375 164.792969 78.863281 164.765625 79.136719 164.765625 C 79.410156 164.765625 79.683594 164.792969 79.949219 164.84375 C 80.21875 164.894531 80.480469 164.96875 80.734375 165.066406 C 80.984375 165.167969 81.226562 165.289062 81.453125 165.433594 C 81.679688 165.578125 81.890625 165.742188 82.085938 165.925781 C 82.277344 166.109375 82.449219 166.308594 82.601562 166.527344 C 82.753906 166.742188 82.882812 166.972656 82.988281 167.210938 C 83.09375 167.453125 83.171875 167.699219 83.226562 167.953125 C 83.277344 168.207031 83.304688 168.464844 83.304688 168.726562 C 83.304688 168.984375 83.277344 169.242188 83.226562 169.5 C 83.171875 169.753906 83.09375 170 82.988281 170.242188 C 82.882812 170.480469 82.753906 170.710938 82.601562 170.925781 C 82.449219 171.140625 82.277344 171.34375 82.085938 171.527344 C 81.890625 171.710938 81.679688 171.875 81.453125 172.019531 C 81.226562 172.164062 80.984375 172.285156 80.734375 172.382812 C 80.480469 172.484375 80.21875 172.558594 79.949219 172.609375 C 79.683594 172.660156 79.410156 172.6875 79.136719 172.6875 C 78.863281 172.6875 78.59375 172.660156 78.324219 172.609375 C 78.054688 172.558594 77.796875 172.484375 77.542969 172.382812 C 77.289062 172.285156 77.050781 172.164062 76.820312 172.019531 C 76.59375 171.875 76.382812 171.710938 76.191406 171.527344 C 75.996094 171.34375 75.824219 171.140625 75.671875 170.925781 C 75.519531 170.710938 75.390625 170.480469 75.285156 170.242188 C 75.183594 170 75.101562 169.753906 75.050781 169.5 C 74.996094 169.242188 74.96875 168.984375 74.96875 168.726562 Z M 74.96875 168.726562 " fill-opacity="1" fill-rule="nonzero"/><path fill="#ed8b00" d="M 257.945312 78.464844 C 257.945312 78.820312 257.980469 79.171875 258.050781 79.519531 C 258.117188 79.867188 258.222656 80.203125 258.355469 80.53125 C 258.492188 80.859375 258.660156 81.167969 258.855469 81.464844 C 259.050781 81.757812 259.277344 82.03125 259.527344 82.28125 C 259.777344 82.53125 260.050781 82.753906 260.34375 82.953125 C 260.636719 83.148438 260.949219 83.316406 261.277344 83.449219 C 261.605469 83.585938 261.941406 83.6875 262.289062 83.757812 C 262.636719 83.828125 262.988281 83.859375 263.339844 83.859375 C 263.695312 83.859375 264.046875 83.828125 264.394531 83.757812 C 264.742188 83.6875 265.078125 83.585938 265.40625 83.449219 C 265.734375 83.316406 266.042969 83.148438 266.339844 82.953125 C 266.632812 82.753906 266.90625 82.53125 267.15625 82.28125 C 267.40625 82.03125 267.628906 81.757812 267.828125 81.464844 C 268.023438 81.167969 268.191406 80.859375 268.328125 80.53125 C 268.460938 80.203125 268.5625 79.867188 268.632812 79.519531 C 268.703125 79.171875 268.738281 78.820312 268.738281 78.464844 C 268.738281 78.113281 268.703125 77.761719 268.632812 77.414062 C 268.5625 77.066406 268.460938 76.726562 268.328125 76.402344 C 268.191406 76.074219 268.023438 75.761719 267.828125 75.46875 C 267.628906 75.171875 267.40625 74.902344 267.15625 74.652344 C 266.90625 74.398438 266.632812 74.175781 266.339844 73.980469 C 266.042969 73.78125 265.734375 73.617188 265.40625 73.480469 C 265.078125 73.34375 264.742188 73.242188 264.394531 73.175781 C 264.046875 73.105469 263.695312 73.070312 263.339844 73.070312 C 262.988281 73.070312 262.636719 73.105469 262.289062 73.175781 C 261.941406 73.242188 261.605469 73.34375 261.277344 73.480469 C 260.949219 73.617188 260.636719 73.78125 260.34375 73.980469 C 260.050781 74.175781 259.777344 74.398438 259.527344 74.652344 C 259.277344 74.902344 259.050781 75.171875 258.855469 75.46875 C 258.660156 75.761719 258.492188 76.074219 258.355469 76.402344 C 258.222656 76.726562 258.117188 77.066406 258.050781 77.414062 C 257.980469 77.761719 257.945312 78.113281 257.945312 78.464844 Z M 257.945312 78.464844 " fill-opacity="1" fill-rule="nonzero"/><path fill="#e1e4e5" d="M 283.371094 189.148438 C 283.371094 189.621094 283.464844 190.070312 283.65625 190.503906 C 283.847656 190.941406 284.117188 191.324219 284.46875 191.65625 C 284.820312 191.988281 285.226562 192.242188 285.6875 192.421875 C 286.144531 192.601562 286.625 192.691406 287.121094 192.691406 C 287.621094 192.691406 288.097656 192.601562 288.558594 192.421875 C 289.015625 192.242188 289.421875 191.988281 289.773438 191.65625 C 290.125 191.324219 290.398438 190.941406 290.585938 190.503906 C 290.777344 190.070312 290.875 189.621094 290.875 189.148438 C 290.875 188.679688 290.777344 188.226562 290.585938 187.792969 C 290.398438 187.359375 290.125 186.976562 289.773438 186.644531 C 289.421875 186.3125 289.015625 186.054688 288.558594 185.875 C 288.097656 185.695312 287.621094 185.605469 287.121094 185.605469 C 286.625 185.605469 286.144531 185.695312 285.6875 185.875 C 285.226562 186.054688 284.820312 186.3125 284.46875 186.644531 C 284.117188 186.976562 283.847656 187.359375 283.65625 187.792969 C 283.464844 188.226562 283.371094 188.679688 283.371094 189.148438 Z M 283.371094 189.148438 " fill-opacity="1" fill-rule="nonzero"/><path fill="#e1e4e5" d="M 44.542969 148.605469 C 44.542969 149.003906 44.617188 149.390625 44.773438 149.757812 C 44.925781 150.125 45.140625 150.453125 45.425781 150.734375 C 45.707031 151.015625 46.03125 151.234375 46.402344 151.386719 C 46.769531 151.539062 47.15625 151.617188 47.554688 151.617188 C 47.953125 151.617188 48.335938 151.539062 48.707031 151.386719 C 49.074219 151.234375 49.402344 151.015625 49.683594 150.734375 C 49.964844 150.453125 50.183594 150.125 50.335938 149.757812 C 50.488281 149.390625 50.566406 149.003906 50.566406 148.605469 C 50.566406 148.207031 50.488281 147.820312 50.335938 147.453125 C 50.183594 147.085938 49.964844 146.757812 49.683594 146.476562 C 49.402344 146.195312 49.074219 145.976562 48.707031 145.824219 C 48.335938 145.671875 47.953125 145.59375 47.554688 145.59375 C 47.15625 145.59375 46.769531 145.671875 46.402344 145.824219 C 46.03125 145.976562 45.707031 146.195312 45.425781 146.476562 C 45.140625 146.757812 44.925781 147.085938 44.773438 147.453125 C 44.617188 147.820312 44.542969 148.207031 44.542969 148.605469 Z M 44.542969 148.605469 " fill-opacity="1" fill-rule="nonzero"/><path fill="#e1e4e5" d="M 200.011719 134.886719 C 200.011719 135.128906 200.054688 135.355469 200.148438 135.578125 C 200.238281 135.796875 200.367188 135.992188 200.535156 136.160156 C 200.707031 136.328125 200.898438 136.457031 201.121094 136.550781 C 201.339844 136.640625 201.570312 136.6875 201.808594 136.6875 C 202.046875 136.6875 202.277344 136.640625 202.496094 136.550781 C 202.71875 136.457031 202.910156 136.328125 203.082031 136.160156 C 203.25 135.992188 203.378906 135.796875 203.46875 135.578125 C 203.5625 135.355469 203.605469 135.128906 203.605469 134.886719 C 203.605469 134.648438 203.5625 134.421875 203.46875 134.199219 C 203.378906 133.980469 203.25 133.785156 203.082031 133.617188 C 202.910156 133.449219 202.71875 133.316406 202.496094 133.226562 C 202.277344 133.136719 202.046875 133.089844 201.808594 133.089844 C 201.570312 133.089844 201.339844 133.136719 201.121094 133.226562 C 200.898438 133.316406 200.707031 133.449219 200.535156 133.617188 C 200.367188 133.785156 200.238281 133.980469 200.148438 134.199219 C 200.054688 134.421875 200.011719 134.648438 200.011719 134.886719 Z M 200.011719 134.886719 " fill-opacity="1" fill-rule="nonzero"/><path fill="#e1e4e5" d="M 192.507812 36.042969 C 192.507812 36.382812 192.574219 36.710938 192.703125 37.027344 C 192.832031 37.339844 193.019531 37.617188 193.261719 37.859375 C 193.5 38.101562 193.777344 38.285156 194.09375 38.417969 C 194.410156 38.546875 194.734375 38.613281 195.078125 38.613281 C 195.417969 38.613281 195.746094 38.546875 196.058594 38.417969 C 196.375 38.285156 196.652344 38.101562 196.894531 37.859375 C 197.132812 37.617188 197.320312 37.339844 197.449219 37.027344 C 197.582031 36.710938 197.644531 36.382812 197.644531 36.042969 C 197.644531 35.703125 197.582031 35.375 197.449219 35.058594 C 197.320312 34.746094 197.132812 34.46875 196.894531 34.226562 C 196.652344 33.984375 196.375 33.800781 196.058594 33.667969 C 195.746094 33.539062 195.417969 33.472656 195.078125 33.472656 C 194.734375 33.472656 194.410156 33.539062 194.09375 33.667969 C 193.777344 33.800781 193.5 33.984375 193.261719 34.226562 C 193.019531 34.46875 192.832031 34.746094 192.703125 35.058594 C 192.574219 35.375 192.507812 35.703125 192.507812 36.042969 Z M 192.507812 36.042969 " fill-opacity="1" fill-rule="nonzero"/><path fill="#e1e4e5" d="M 57.019531 185.6875 C 57.339844 185.601562 57.632812 185.457031 57.898438 185.253906 C 58.164062 185.050781 58.378906 184.808594 58.542969 184.519531 C 58.710938 184.230469 58.816406 183.921875 58.859375 183.589844 C 58.902344 183.261719 58.882812 182.933594 58.796875 182.613281 C 58.710938 182.292969 58.566406 182 58.363281 181.734375 C 58.160156 181.472656 57.914062 181.253906 57.625 181.089844 C 57.335938 180.921875 57.027344 180.816406 56.699219 180.773438 C 56.367188 180.730469 56.042969 180.753906 55.71875 180.839844 C 55.398438 180.925781 55.105469 181.070312 54.84375 181.269531 C 54.578125 181.472656 54.363281 181.71875 54.195312 182.007812 C 54.03125 182.296875 53.925781 182.605469 53.882812 182.9375 C 53.835938 183.265625 53.859375 183.589844 53.945312 183.914062 C 54.03125 184.234375 54.175781 184.527344 54.378906 184.792969 C 54.582031 185.054688 54.828125 185.269531 55.113281 185.4375 C 55.402344 185.605469 55.710938 185.707031 56.042969 185.753906 C 56.371094 185.796875 56.699219 185.773438 57.019531 185.6875 Z M 57.019531 185.6875 " fill-opacity="1" fill-rule="nonzero"/><path fill="#e1e4e5" d="M 72.375 78.882812 C 72.375 79.324219 72.460938 79.75 72.628906 80.160156 C 72.796875 80.570312 73.039062 80.929688 73.351562 81.242188 C 73.667969 81.554688 74.027344 81.796875 74.4375 81.96875 C 74.847656 82.136719 75.273438 82.222656 75.714844 82.222656 C 76.15625 82.222656 76.585938 82.136719 76.992188 81.96875 C 77.402344 81.796875 77.765625 81.554688 78.078125 81.242188 C 78.390625 80.929688 78.632812 80.570312 78.800781 80.160156 C 78.96875 79.75 79.054688 79.324219 79.054688 78.882812 C 79.054688 78.4375 78.96875 78.011719 78.800781 77.601562 C 78.632812 77.195312 78.390625 76.832031 78.078125 76.519531 C 77.765625 76.207031 77.402344 75.964844 76.992188 75.796875 C 76.585938 75.625 76.15625 75.542969 75.714844 75.542969 C 75.273438 75.542969 74.847656 75.625 74.4375 75.796875 C 74.027344 75.964844 73.667969 76.207031 73.351562 76.519531 C 73.039062 76.832031 72.796875 77.195312 72.628906 77.601562 C 72.460938 78.011719 72.375 78.4375 72.375 78.882812 Z M 72.375 78.882812 " fill-opacity="1" fill-rule="nonzero"/><path fill="#e1e4e5" d="M 280.730469 111.960938 C 280.730469 112.234375 280.796875 112.496094 280.925781 112.75 C 281.058594 113 281.242188 113.222656 281.484375 113.414062 C 281.726562 113.609375 282.003906 113.757812 282.316406 113.863281 C 282.632812 113.964844 282.960938 114.019531 283.300781 114.019531 C 283.640625 114.019531 283.96875 113.964844 284.285156 113.863281 C 284.597656 113.757812 284.875 113.609375 285.117188 113.414062 C 285.359375 113.222656 285.542969 113 285.675781 112.75 C 285.804688 112.496094 285.871094 112.234375 285.871094 111.960938 C 285.871094 111.691406 285.804688 111.429688 285.675781 111.175781 C 285.542969 110.925781 285.359375 110.703125 285.117188 110.507812 C 284.875 110.316406 284.597656 110.167969 284.285156 110.0625 C 283.96875 109.960938 283.640625 109.90625 283.300781 109.90625 C 282.960938 109.90625 282.632812 109.960938 282.316406 110.0625 C 282.003906 110.167969 281.726562 110.316406 281.484375 110.507812 C 281.242188 110.703125 281.058594 110.925781 280.925781 111.175781 C 280.796875 111.429688 280.730469 111.691406 280.730469 111.960938 Z M 280.730469 111.960938 " fill-opacity="1" fill-rule="nonzero"/><path fill="#e1e4e5" d="M 211.511719 119.945312 C 211.84375 119.855469 212.164062 119.738281 212.472656 119.585938 C 212.78125 119.433594 213.070312 119.253906 213.34375 119.042969 C 213.613281 118.835938 213.863281 118.601562 214.089844 118.34375 C 214.316406 118.085938 214.515625 117.808594 214.6875 117.511719 C 214.859375 117.214844 215 116.902344 215.109375 116.578125 C 215.21875 116.253906 215.296875 115.921875 215.339844 115.582031 C 215.386719 115.238281 215.398438 114.898438 215.375 114.554688 C 215.351562 114.214844 215.296875 113.878906 215.207031 113.546875 C 215.121094 113.214844 215 112.894531 214.847656 112.585938 C 214.695312 112.28125 214.515625 111.988281 214.304688 111.71875 C 214.097656 111.445312 213.863281 111.195312 213.605469 110.96875 C 213.347656 110.742188 213.070312 110.542969 212.773438 110.375 C 212.476562 110.203125 212.164062 110.0625 211.839844 109.949219 C 211.515625 109.839844 211.183594 109.761719 210.84375 109.71875 C 210.503906 109.671875 210.160156 109.660156 209.820312 109.683594 C 209.476562 109.707031 209.140625 109.761719 208.808594 109.851562 C 208.476562 109.941406 208.15625 110.058594 207.851562 110.210938 C 207.542969 110.363281 207.253906 110.542969 206.980469 110.753906 C 206.707031 110.960938 206.457031 111.195312 206.234375 111.453125 C 206.007812 111.710938 205.808594 111.988281 205.636719 112.285156 C 205.464844 112.582031 205.324219 112.894531 205.214844 113.21875 C 205.101562 113.542969 205.027344 113.875 204.980469 114.214844 C 204.9375 114.554688 204.925781 114.898438 204.945312 115.238281 C 204.96875 115.582031 205.023438 115.917969 205.113281 116.25 C 205.203125 116.582031 205.324219 116.902344 205.476562 117.210938 C 205.625 117.515625 205.808594 117.808594 206.015625 118.078125 C 206.222656 118.351562 206.457031 118.601562 206.714844 118.828125 C 206.972656 119.054688 207.25 119.25 207.546875 119.421875 C 207.84375 119.59375 208.15625 119.734375 208.480469 119.847656 C 208.804688 119.957031 209.140625 120.035156 209.480469 120.078125 C 209.820312 120.125 210.160156 120.132812 210.503906 120.113281 C 210.84375 120.089844 211.183594 120.035156 211.511719 119.945312 Z M 211.511719 119.945312 " fill-opacity="1" fill-rule="nonzero"/><path fill="#e1e4e5" d="M 258.367188 103.496094 L 258.433594 103.496094 C 258.832031 109.136719 263.027344 109.222656 263.027344 109.222656 C 263.027344 109.222656 258.402344 109.3125 258.402344 115.828125 C 258.402344 109.3125 253.777344 109.222656 253.777344 109.222656 C 253.777344 109.222656 257.96875 109.136719 258.367188 103.496094 Z M 130.71875 40.976562 L 130.785156 40.976562 C 131.175781 46.714844 135.269531 46.800781 135.269531 46.800781 C 135.269531 46.800781 130.753906 46.894531 130.753906 53.523438 C 130.753906 46.894531 126.234375 46.800781 126.234375 46.800781 C 126.234375 46.800781 130.332031 46.714844 130.71875 40.976562 Z M 50.609375 109.667969 L 50.671875 109.667969 C 51.0625 115.402344 55.160156 115.492188 55.160156 115.492188 C 55.160156 115.492188 50.640625 115.585938 50.640625 122.214844 C 50.640625 115.585938 46.125 115.492188 46.125 115.492188 C 46.125 115.492188 50.21875 115.402344 50.609375 109.667969 Z M 229.484375 88.292969 L 229.546875 88.292969 C 229.9375 94.027344 234.035156 94.117188 234.035156 94.117188 C 234.035156 94.117188 229.515625 94.210938 229.515625 100.839844 C 229.515625 94.210938 225 94.117188 225 94.117188 C 225 94.117188 229.09375 94.027344 229.484375 88.292969 Z M 111.351562 78.917969 L 111.398438 78.917969 C 111.6875 83.203125 114.75 83.269531 114.75 83.269531 C 114.75 83.269531 111.375 83.339844 111.375 88.292969 C 111.375 83.339844 108 83.269531 108 83.269531 C 108 83.269531 111.058594 83.203125 111.351562 78.917969 Z M 111.351562 78.917969 " fill-opacity="1" fill-rule="nonzero"/></svg>