<svg xmlns="http://www.w3.org/2000/svg" xmlns:xlink="http://www.w3.org/1999/xlink" width="800" zoomAndPan="magnify" viewBox="0 0 600 449.999984" height="600" preserveAspectRatio="xMidYMid meet" version="1.0"><defs><clipPath id="id1"><path d="M 528 138 L 539.515625 138 L 539.515625 154 L 528 154 Z M 528 138 " clip-rule="nonzero"/></clipPath><clipPath id="id2"><path d="M 115 395 L 134 395 L 134 440.488281 L 115 440.488281 Z M 115 395 " clip-rule="nonzero"/></clipPath><clipPath id="id3"><path d="M 261 9.238281 L 268 9.238281 L 268 23 L 261 23 Z M 261 9.238281 " clip-rule="nonzero"/></clipPath></defs><path fill="#ef323d" d="M 407.921875 323.191406 L 356.800781 394.992188 C 349.929688 393.363281 342.066406 395.257812 339.242188 399.226562 L 291.957031 388.007812 C 294.785156 384.039062 291.503906 379.5 284.632812 377.871094 L 335.75 306.070312 C 342.621094 307.699219 350.480469 305.808594 353.304688 301.839844 L 400.589844 313.054688 C 397.765625 317.023438 401.046875 321.5625 407.921875 323.191406 " fill-opacity="1" fill-rule="nonzero"/><path fill="#ffffff" d="M 298.804688 385.769531 L 336.9375 394.8125 C 340.976562 392.015625 347.066406 390.542969 353.332031 390.855469 L 400.460938 324.652344 C 395.832031 322.332031 393.363281 318.886719 393.746094 315.292969 L 355.617188 306.246094 C 351.574219 309.046875 345.480469 310.519531 339.21875 310.207031 L 292.089844 376.40625 C 296.71875 378.730469 299.183594 382.175781 298.804688 385.769531 Z M 337.140625 395.867188 L 297.699219 386.511719 L 297.777344 386.058594 C 298.371094 382.625 295.894531 379.253906 291.148438 377.039062 L 290.617188 376.789062 L 338.738281 309.203125 L 339.003906 309.214844 C 345.152344 309.570312 351.367188 308.082031 355.230469 305.324219 L 355.410156 305.195312 L 394.851562 314.550781 L 394.773438 315.003906 C 394.179688 318.4375 396.65625 321.808594 401.402344 324.023438 L 401.933594 324.269531 L 353.8125 391.859375 L 353.542969 391.84375 C 347.402344 391.492188 341.183594 392.980469 337.320312 395.738281 L 337.140625 395.867188 " fill-opacity="1" fill-rule="nonzero"/><path fill="#ef323d" d="M 291.957031 388.007812 L 297.875 389.410156 C 297.148438 390.429688 295.234375 390.9375 293.605469 390.550781 C 291.96875 390.164062 291.234375 389.027344 291.957031 388.007812 " fill-opacity="1" fill-rule="nonzero"/><path fill="#ef323d" d="M 333.328125 397.820312 L 339.242188 399.226562 C 338.515625 400.242188 336.601562 400.753906 334.972656 400.367188 C 333.339844 399.980469 332.601562 398.839844 333.328125 397.820312 " fill-opacity="1" fill-rule="nonzero"/><path fill="#ef323d" d="M 325.054688 395.859375 L 330.96875 397.261719 C 330.242188 398.28125 328.328125 398.789062 326.699219 398.402344 C 325.0625 398.015625 324.328125 396.878906 325.054688 395.859375 " fill-opacity="1" fill-rule="nonzero"/><path fill="#ef323d" d="M 316.78125 393.894531 L 322.695312 395.296875 C 321.972656 396.316406 320.054688 396.828125 318.425781 396.441406 C 316.789062 396.050781 316.054688 394.917969 316.78125 393.894531 " fill-opacity="1" fill-rule="nonzero"/><path fill="#ef323d" d="M 308.503906 391.933594 L 314.421875 393.335938 C 313.695312 394.355469 311.78125 394.863281 310.148438 394.476562 C 308.515625 394.089844 307.78125 392.953125 308.503906 391.933594 " fill-opacity="1" fill-rule="nonzero"/><path fill="#ef323d" d="M 300.230469 389.96875 L 306.148438 391.371094 C 305.421875 392.390625 303.507812 392.902344 301.875 392.515625 C 300.242188 392.125 299.507812 390.988281 300.230469 389.96875 " fill-opacity="1" fill-rule="nonzero"/><path fill="#ef323d" d="M 400.585938 313.058594 L 394.671875 311.652344 C 395.398438 310.636719 397.3125 310.125 398.945312 310.511719 C 400.578125 310.898438 401.316406 312.039062 400.585938 313.058594 " fill-opacity="1" fill-rule="nonzero"/><path fill="#ef323d" d="M 359.21875 303.242188 L 353.304688 301.839844 C 354.03125 300.820312 355.945312 300.3125 357.578125 300.695312 C 359.210938 301.085938 359.945312 302.222656 359.21875 303.242188 " fill-opacity="1" fill-rule="nonzero"/><path fill="#ef323d" d="M 367.496094 305.207031 L 361.578125 303.804688 C 362.304688 302.785156 364.21875 302.273438 365.851562 302.660156 C 367.484375 303.046875 368.21875 304.1875 367.496094 305.207031 " fill-opacity="1" fill-rule="nonzero"/><path fill="#ef323d" d="M 375.769531 307.167969 L 369.855469 305.765625 C 370.578125 304.746094 372.492188 304.238281 374.121094 304.621094 C 375.757812 305.011719 376.492188 306.148438 375.769531 307.167969 " fill-opacity="1" fill-rule="nonzero"/><path fill="#ef323d" d="M 384.042969 309.132812 L 378.128906 307.726562 C 378.851562 306.710938 380.765625 306.199219 382.398438 306.585938 C 384.03125 306.972656 384.765625 308.113281 384.042969 309.132812 " fill-opacity="1" fill-rule="nonzero"/><path fill="#ef323d" d="M 392.316406 311.09375 L 386.402344 309.691406 C 387.125 308.671875 389.039062 308.164062 390.671875 308.550781 C 392.304688 308.9375 393.042969 310.074219 392.316406 311.09375 " fill-opacity="1" fill-rule="nonzero"/><path fill="#ffffff" d="M 396.886719 330.832031 L 334.667969 316.074219 L 334.894531 315.121094 L 397.109375 329.882812 L 396.886719 330.832031 " fill-opacity="1" fill-rule="nonzero"/><path fill="#ffffff" d="M 357.652344 385.941406 L 295.4375 371.179688 L 295.664062 370.230469 L 357.878906 384.988281 L 357.652344 385.941406 " fill-opacity="1" fill-rule="nonzero"/><path fill="#ffffff" d="M 327.085938 364.101562 L 330.207031 364.839844 L 328.191406 367.671875 L 341.320312 370.785156 L 339.816406 372.894531 L 326.6875 369.78125 L 324.675781 372.609375 L 321.558594 371.871094 L 327.085938 364.101562 " fill-opacity="1" fill-rule="nonzero"/><path fill="#ffffff" d="M 328.050781 362.75 L 329.554688 360.636719 L 345.800781 364.492188 L 344.296875 366.605469 L 328.050781 362.75 " fill-opacity="1" fill-rule="nonzero"/><path fill="#ffffff" d="M 350.714844 358.128906 C 349.628906 359.65625 348.066406 360.640625 346.03125 361.089844 C 343.992188 361.542969 341.621094 361.441406 338.917969 360.804688 C 337.574219 360.484375 336.460938 360.078125 335.582031 359.585938 C 334.699219 359.089844 334.046875 358.546875 333.621094 357.949219 C 333.195312 357.351562 333.003906 356.71875 333.046875 356.042969 C 333.089844 355.367188 333.351562 354.6875 333.84375 354 C 334.125 353.601562 334.433594 353.253906 334.765625 352.953125 C 335.097656 352.652344 335.417969 352.398438 335.722656 352.183594 C 336.03125 351.972656 336.3125 351.800781 336.566406 351.671875 C 336.824219 351.542969 337.015625 351.453125 337.148438 351.398438 L 339.667969 352.707031 C 339.195312 352.933594 338.730469 353.214844 338.269531 353.554688 C 337.808594 353.894531 337.40625 354.304688 337.058594 354.792969 C 336.828125 355.121094 336.695312 355.460938 336.660156 355.816406 C 336.625 356.171875 336.730469 356.515625 336.972656 356.855469 C 337.21875 357.191406 337.617188 357.511719 338.171875 357.8125 C 338.726562 358.113281 339.472656 358.371094 340.40625 358.59375 C 341.160156 358.773438 341.890625 358.890625 342.609375 358.949219 C 343.324219 359.007812 343.992188 358.988281 344.613281 358.886719 C 345.230469 358.789062 345.800781 358.597656 346.316406 358.320312 C 346.835938 358.042969 347.265625 357.660156 347.613281 357.171875 C 347.832031 356.863281 348 356.582031 348.105469 356.324219 C 348.222656 356.066406 348.300781 355.832031 348.347656 355.625 C 348.394531 355.414062 348.417969 355.222656 348.410156 355.054688 C 348.40625 354.882812 348.394531 354.726562 348.386719 354.585938 L 351.730469 354.699219 C 351.832031 355.074219 351.8125 355.558594 351.679688 356.160156 C 351.542969 356.757812 351.222656 357.417969 350.714844 358.128906 " fill-opacity="1" fill-rule="nonzero"/><path fill="#ffffff" d="M 357.519531 348.03125 C 356.855469 348.09375 356.125 348.183594 355.328125 348.296875 C 354.53125 348.40625 353.714844 348.539062 352.878906 348.6875 C 352.042969 348.839844 351.222656 349.007812 350.417969 349.199219 C 349.613281 349.386719 348.878906 349.59375 348.207031 349.816406 L 355.085938 351.449219 L 353.582031 353.558594 L 337.339844 349.703125 L 338.84375 347.59375 L 344.949219 349.039062 C 344.34375 348.265625 343.707031 347.46875 343.027344 346.652344 C 342.347656 345.835938 341.714844 345.082031 341.125 344.386719 L 342.90625 341.882812 C 343.773438 342.832031 344.582031 343.773438 345.335938 344.710938 C 346.089844 345.644531 346.828125 346.613281 347.550781 347.621094 C 349.167969 347.125 350.972656 346.707031 352.953125 346.363281 C 354.9375 346.019531 357.054688 345.738281 359.308594 345.523438 L 357.519531 348.03125 " fill-opacity="1" fill-rule="nonzero"/><path fill="#ffffff" d="M 360.175781 344.300781 L 343.929688 340.449219 L 348.4375 334.113281 L 351.507812 334.84375 L 348.5 339.066406 L 351.691406 339.820312 L 354.359375 336.074219 L 357.359375 336.785156 L 354.691406 340.535156 L 358.605469 341.464844 L 361.832031 336.929688 L 364.902344 337.65625 L 360.175781 344.300781 " fill-opacity="1" fill-rule="nonzero"/><path fill="#ffffff" d="M 354.71875 325.292969 L 357.839844 326.03125 L 355.824219 328.859375 L 368.953125 331.976562 L 367.449219 334.085938 L 354.320312 330.96875 L 352.308594 333.800781 L 349.1875 333.058594 L 354.71875 325.292969 " fill-opacity="1" fill-rule="nonzero"/><path fill="#fcf6f5" d="M 321.171875 344.578125 L 324.996094 344.746094 L 326.457031 342.695312 L 327.359375 344.847656 L 331.1875 345.015625 L 327.921875 346.179688 L 328.828125 348.332031 L 325.902344 346.898438 L 322.636719 348.058594 L 324.09375 346.007812 L 321.171875 344.578125 " fill-opacity="1" fill-rule="nonzero"/><path fill="#fcf6f5" d="M 360.589844 353.925781 L 365.535156 354.144531 L 367.421875 351.496094 L 368.59375 354.28125 L 373.542969 354.496094 L 369.320312 356 L 370.488281 358.78125 L 366.707031 356.925781 L 362.484375 358.433594 L 364.371094 355.78125 L 360.589844 353.925781 " fill-opacity="1" fill-rule="nonzero"/><path fill="#fcf6f5" d="M 368.304688 343.089844 L 373.253906 343.308594 L 375.136719 340.65625 L 376.308594 343.441406 L 381.253906 343.660156 L 377.035156 345.160156 L 378.203125 347.945312 L 374.421875 346.089844 L 370.203125 347.589844 L 372.085938 344.941406 L 368.304688 343.089844 " fill-opacity="1" fill-rule="nonzero"/><path fill="#fcf6f5" d="M 352.871094 364.765625 L 357.820312 364.980469 L 359.707031 362.332031 L 360.875 365.117188 L 365.824219 365.335938 L 361.601562 366.835938 L 362.773438 369.621094 L 358.992188 367.765625 L 354.769531 369.265625 L 356.652344 366.617188 L 352.871094 364.765625 " fill-opacity="1" fill-rule="nonzero"/><path fill="#f9af0b" d="M 394.691406 321.832031 L 299.605469 376.726562 C 294.347656 373.691406 285.832031 373.691406 280.578125 376.726562 L 244.429688 355.859375 C 249.683594 352.824219 249.683594 347.90625 244.429688 344.875 L 339.519531 289.984375 C 344.773438 293.015625 353.292969 293.015625 358.546875 289.984375 L 394.691406 310.847656 C 389.4375 313.882812 389.4375 318.796875 394.691406 321.832031 " fill-opacity="1" fill-rule="nonzero"/><path fill="#ffffff" d="M 252.246094 355.414062 L 281.191406 372.121094 C 286.78125 370.429688 293.398438 370.429688 298.988281 372.121094 L 386.875 321.390625 C 384.238281 318.234375 384.238281 314.453125 386.875 311.292969 L 357.929688 294.585938 C 352.339844 296.28125 345.722656 296.28125 340.132812 294.585938 L 252.246094 345.320312 C 254.886719 348.476562 254.886719 352.257812 252.246094 355.414062 Z M 299.109375 373.179688 L 298.90625 373.117188 C 293.46875 371.421875 286.714844 371.421875 281.273438 373.117188 L 281.070312 373.179688 L 250.710938 355.65625 L 251.128906 355.203125 C 253.964844 352.175781 253.964844 348.558594 251.128906 345.53125 L 250.710938 345.078125 L 340.015625 293.527344 L 340.21875 293.589844 C 345.65625 295.285156 352.410156 295.285156 357.847656 293.589844 L 358.050781 293.527344 L 388.414062 311.054688 L 387.992188 311.503906 C 385.160156 314.535156 385.160156 318.152344 387.992188 321.179688 L 388.414062 321.628906 L 299.109375 373.179688 " fill-opacity="1" fill-rule="nonzero"/><path fill="#231b1e" d="M 244.429688 355.859375 L 248.949219 358.46875 C 247.601562 359.246094 245.496094 359.292969 244.25 358.574219 C 243 357.851562 243.082031 356.636719 244.429688 355.859375 " fill-opacity="1" fill-rule="nonzero"/><path fill="#231b1e" d="M 276.054688 374.113281 L 280.578125 376.726562 C 279.230469 377.503906 277.121094 377.546875 275.875 376.832031 C 274.625 376.109375 274.707031 374.894531 276.054688 374.113281 " fill-opacity="1" fill-rule="nonzero"/><path fill="#231b1e" d="M 269.730469 370.464844 L 274.253906 373.074219 C 272.902344 373.851562 270.796875 373.898438 269.550781 373.179688 C 268.296875 372.457031 268.378906 371.242188 269.730469 370.464844 " fill-opacity="1" fill-rule="nonzero"/><path fill="#231b1e" d="M 263.402344 366.8125 L 267.925781 369.421875 C 266.578125 370.199219 264.46875 370.246094 263.222656 369.527344 C 261.972656 368.808594 262.054688 367.589844 263.402344 366.8125 " fill-opacity="1" fill-rule="nonzero"/><path fill="#231b1e" d="M 257.078125 363.160156 L 261.601562 365.769531 C 260.25 366.550781 258.144531 366.59375 256.898438 365.878906 C 255.648438 365.15625 255.730469 363.941406 257.078125 363.160156 " fill-opacity="1" fill-rule="nonzero"/><path fill="#231b1e" d="M 250.753906 359.507812 L 255.277344 362.121094 C 253.925781 362.898438 251.820312 362.945312 250.574219 362.226562 C 249.324219 361.503906 249.402344 360.289062 250.753906 359.507812 " fill-opacity="1" fill-rule="nonzero"/><path fill="#231b1e" d="M 394.691406 310.847656 L 390.171875 308.238281 C 391.519531 307.460938 393.628906 307.417969 394.875 308.136719 C 396.125 308.855469 396.042969 310.070312 394.691406 310.847656 " fill-opacity="1" fill-rule="nonzero"/><path fill="#231b1e" d="M 363.066406 292.59375 L 358.546875 289.984375 C 359.894531 289.203125 362 289.160156 363.246094 289.878906 C 364.496094 290.601562 364.414062 291.816406 363.066406 292.59375 " fill-opacity="1" fill-rule="nonzero"/><path fill="#231b1e" d="M 369.390625 296.246094 L 364.871094 293.632812 C 366.21875 292.855469 368.328125 292.8125 369.574219 293.53125 C 370.824219 294.253906 370.742188 295.46875 369.390625 296.246094 " fill-opacity="1" fill-rule="nonzero"/><path fill="#231b1e" d="M 375.71875 299.894531 L 371.195312 297.285156 C 372.542969 296.507812 374.652344 296.464844 375.898438 297.183594 C 377.148438 297.902344 377.066406 299.117188 375.71875 299.894531 " fill-opacity="1" fill-rule="nonzero"/><path fill="#231b1e" d="M 382.042969 303.546875 L 377.519531 300.9375 C 378.871094 300.160156 380.980469 300.117188 382.222656 300.832031 C 383.472656 301.554688 383.390625 302.769531 382.042969 303.546875 " fill-opacity="1" fill-rule="nonzero"/><path fill="#231b1e" d="M 388.367188 307.199219 L 383.847656 304.585938 C 385.195312 303.808594 387.304688 303.765625 388.546875 304.484375 C 389.796875 305.207031 389.71875 306.421875 388.367188 307.199219 " fill-opacity="1" fill-rule="nonzero"/><path fill="#ffffff" d="M 379.589844 326.441406 L 332.027344 298.984375 L 332.515625 298.136719 L 380.078125 325.59375 L 379.589844 326.441406 " fill-opacity="1" fill-rule="nonzero"/><path fill="#ffffff" d="M 306.609375 368.570312 L 259.042969 341.113281 L 259.535156 340.269531 L 307.097656 367.726562 L 306.609375 368.570312 " fill-opacity="1" fill-rule="nonzero"/><path fill="#fcf6f5" d="M 292.824219 341.675781 L 295.207031 343.050781 L 291.460938 345.214844 L 301.5 351.007812 L 298.703125 352.625 L 288.667969 346.828125 L 284.921875 348.992188 L 282.539062 347.617188 L 292.824219 341.675781 " fill-opacity="1" fill-rule="nonzero"/><path fill="#fcf6f5" d="M 294.613281 340.640625 L 297.414062 339.027344 L 309.832031 346.199219 L 307.039062 347.8125 L 294.613281 340.640625 " fill-opacity="1" fill-rule="nonzero"/><path fill="#fcf6f5" d="M 318.613281 341.417969 C 316.59375 342.585938 314.496094 343.148438 312.316406 343.109375 C 310.132812 343.070312 308.011719 342.457031 305.941406 341.261719 C 304.914062 340.671875 304.160156 340.046875 303.675781 339.394531 C 303.191406 338.746094 302.953125 338.097656 302.957031 337.449219 C 302.964844 336.804688 303.210938 336.175781 303.703125 335.5625 C 304.191406 334.949219 304.890625 334.378906 305.800781 333.855469 C 306.324219 333.550781 306.84375 333.296875 307.351562 333.09375 C 307.859375 332.890625 308.324219 332.726562 308.746094 332.597656 C 309.171875 332.46875 309.546875 332.378906 309.867188 332.3125 C 310.191406 332.25 310.429688 332.210938 310.582031 332.191406 L 312.035156 333.960938 C 311.453125 334.0625 310.832031 334.21875 310.183594 334.429688 C 309.527344 334.640625 308.882812 334.933594 308.238281 335.304688 C 307.804688 335.554688 307.457031 335.835938 307.1875 336.15625 C 306.917969 336.476562 306.785156 336.820312 306.785156 337.1875 C 306.785156 337.550781 306.941406 337.9375 307.25 338.335938 C 307.5625 338.734375 308.074219 339.140625 308.792969 339.554688 C 309.367188 339.886719 309.960938 340.160156 310.582031 340.375 C 311.207031 340.589844 311.835938 340.714844 312.472656 340.761719 C 313.117188 340.808594 313.765625 340.757812 314.429688 340.617188 C 315.09375 340.476562 315.746094 340.21875 316.390625 339.847656 C 316.796875 339.613281 317.136719 339.386719 317.414062 339.175781 C 317.6875 338.960938 317.917969 338.761719 318.105469 338.582031 C 318.289062 338.394531 318.433594 338.226562 318.542969 338.066406 C 318.648438 337.90625 318.746094 337.765625 318.828125 337.632812 L 321.839844 338.480469 C 321.683594 338.847656 321.34375 339.292969 320.816406 339.816406 C 320.292969 340.339844 319.558594 340.875 318.613281 341.417969 " fill-opacity="1" fill-rule="nonzero"/><path fill="#fcf6f5" d="M 331.636719 333.613281 C 330.980469 333.527344 330.246094 333.445312 329.433594 333.371094 C 328.625 333.296875 327.78125 333.234375 326.914062 333.1875 C 326.039062 333.140625 325.171875 333.113281 324.300781 333.113281 C 323.433594 333.105469 322.613281 333.132812 321.847656 333.1875 L 327.109375 336.226562 L 324.3125 337.839844 L 311.894531 330.667969 L 314.691406 329.054688 L 319.355469 331.75 C 319.320312 330.898438 319.261719 330.023438 319.179688 329.121094 C 319.097656 328.214844 319.015625 327.378906 318.933594 326.605469 L 322.25 324.6875 C 322.414062 325.757812 322.53125 326.808594 322.605469 327.839844 C 322.679688 328.867188 322.710938 329.925781 322.710938 331.015625 C 324.53125 330.921875 326.472656 330.933594 328.535156 331.058594 C 330.59375 331.179688 332.738281 331.394531 334.960938 331.695312 L 331.636719 333.613281 " fill-opacity="1" fill-rule="nonzero"/><path fill="#fcf6f5" d="M 336.570312 330.761719 L 324.152344 323.59375 L 332.539062 318.75 L 334.890625 320.105469 L 329.296875 323.332031 L 331.734375 324.742188 L 336.699219 321.875 L 338.992188 323.199219 L 334.027344 326.066406 L 337.019531 327.792969 L 343.023438 324.328125 L 345.371094 325.683594 L 336.570312 330.761719 " fill-opacity="1" fill-rule="nonzero"/><path fill="#fcf6f5" d="M 344.226562 312.003906 L 346.609375 313.378906 L 342.863281 315.542969 L 352.898438 321.335938 L 350.101562 322.953125 L 340.066406 317.15625 L 336.320312 319.320312 L 333.9375 317.945312 L 344.226562 312.003906 " fill-opacity="1" fill-rule="nonzero"/><path fill="#fcf6f5" d="M 300.371094 322.277344 L 303.789062 323.28125 L 306.503906 321.714844 L 305.902344 323.902344 L 309.320312 324.910156 L 305.53125 325.253906 L 304.933594 327.445312 L 303.1875 325.46875 L 299.398438 325.816406 L 302.113281 324.25 L 300.371094 322.277344 " fill-opacity="1" fill-rule="nonzero"/><path fill="#fcf6f5" d="M 330.507812 339.671875 L 334.925781 340.972656 L 338.433594 338.945312 L 337.65625 341.777344 L 342.078125 343.074219 L 337.179688 343.523438 L 336.402344 346.351562 L 334.148438 343.800781 L 329.25 344.25 L 332.757812 342.222656 L 330.507812 339.671875 " fill-opacity="1" fill-rule="nonzero"/><path fill="#fcf6f5" d="M 344.859375 331.386719 L 349.28125 332.683594 L 352.789062 330.660156 L 352.011719 333.488281 L 356.429688 334.789062 L 351.53125 335.238281 L 350.753906 338.066406 L 348.503906 335.515625 L 343.601562 335.964844 L 347.113281 333.9375 L 344.859375 331.386719 " fill-opacity="1" fill-rule="nonzero"/><path fill="#fcf6f5" d="M 316.152344 347.957031 L 320.574219 349.257812 L 324.082031 347.230469 L 323.304688 350.0625 L 327.726562 351.359375 L 322.824219 351.808594 L 322.046875 354.636719 L 319.796875 352.085938 L 314.898438 352.535156 L 318.402344 350.511719 L 316.152344 347.957031 " fill-opacity="1" fill-rule="nonzero"/><path fill="#789f2a" d="M 406.453125 162.769531 L 173.765625 297.085938 L 173.761719 168.3125 L 406.453125 33.996094 L 406.453125 162.769531 " fill-opacity="1" fill-rule="nonzero"/><path fill="#f0edf8" d="M 398.683594 158.503906 L 181.535156 283.84375 L 181.535156 172.585938 L 398.679688 47.242188 L 398.683594 158.503906 " fill-opacity="1" fill-rule="nonzero"/><path fill="#ef323d" d="M 239.496094 161.476562 L 240.042969 161.160156 C 240.332031 160.996094 240.5625 160.8125 240.726562 160.621094 C 240.894531 160.429688 241.042969 160.078125 241.171875 159.574219 C 241.300781 159.070312 241.367188 158.425781 241.367188 157.644531 C 241.367188 156.863281 241.292969 156.308594 241.152344 155.980469 C 241.003906 155.648438 240.859375 155.488281 240.71875 155.492188 C 240.574219 155.496094 240.402344 155.554688 240.203125 155.667969 L 239.496094 156.078125 Z M 239.472656 169.867188 C 239.472656 170.09375 239.007812 170.546875 238.082031 171.222656 C 237.15625 171.898438 236.226562 172.503906 235.296875 173.039062 C 234.371094 173.574219 233.777344 173.855469 233.519531 173.882812 C 233.261719 173.910156 233.132812 173.789062 233.132812 173.527344 L 233.132812 156.589844 C 233.132812 155.746094 235.320312 154.0625 239.703125 151.535156 C 242.347656 150.003906 244.097656 149.207031 244.949219 149.136719 C 245.984375 149.03125 246.683594 149.296875 247.046875 149.929688 C 247.535156 150.734375 247.777344 151.992188 247.777344 153.695312 C 247.777344 156.03125 247.425781 157.925781 246.730469 159.382812 C 246.226562 160.445312 245.722656 161.238281 245.222656 161.753906 C 244.722656 162.273438 244.308594 162.675781 243.980469 162.960938 C 243.652344 163.246094 243.246094 163.554688 242.757812 163.886719 C 242.089844 164.34375 241.175781 164.90625 240.023438 165.570312 L 239.472656 165.863281 L 239.472656 169.867188 " fill-opacity="1" fill-rule="nonzero"/><path fill="#ef323d" d="M 256.539062 156.644531 L 256.539062 153.5625 C 256.140625 153.789062 255.820312 154.167969 255.582031 154.695312 C 255.335938 155.222656 255.214844 155.730469 255.214844 156.222656 C 255.214844 157.382812 255.441406 157.828125 255.902344 157.566406 C 256.097656 157.453125 256.253906 157.304688 256.367188 157.125 C 256.480469 156.945312 256.539062 156.785156 256.539062 156.644531 Z M 253.480469 162.78125 C 252.097656 163.582031 251.007812 163.828125 250.21875 163.53125 C 249.898438 163.402344 249.625 163.09375 249.386719 162.617188 C 249.148438 162.140625 249.03125 161.488281 249.03125 160.660156 C 249.03125 159.835938 249.203125 159.015625 249.546875 158.203125 C 249.886719 157.394531 250.304688 156.679688 250.789062 156.066406 C 251.277344 155.449219 251.847656 154.851562 252.5 154.261719 C 253.488281 153.390625 254.578125 152.617188 255.761719 151.929688 L 256.515625 151.492188 C 256.515625 150.777344 256.304688 150.390625 255.875 150.335938 C 255.695312 150.320312 255.414062 150.417969 255.042969 150.632812 C 254.671875 150.847656 254.222656 151.21875 253.699219 151.753906 C 253.171875 152.28125 252.734375 152.765625 252.386719 153.207031 C 252.035156 153.648438 251.800781 153.902344 251.679688 153.96875 C 251.40625 154.128906 251.03125 153.929688 250.558594 153.363281 C 250.089844 152.800781 249.855469 152.179688 249.855469 151.496094 C 249.855469 151.265625 250.136719 150.804688 250.699219 150.113281 C 251.261719 149.417969 252.054688 148.625 253.082031 147.722656 C 254.109375 146.820312 255.109375 146.089844 256.082031 145.53125 C 257.054688 144.96875 257.894531 144.574219 258.601562 144.347656 C 259.308594 144.125 259.890625 144.015625 260.335938 144.023438 C 260.785156 144.023438 261.164062 144.15625 261.480469 144.417969 C 261.789062 144.675781 262.027344 144.933594 262.1875 145.191406 C 262.34375 145.453125 262.460938 145.839844 262.539062 146.359375 C 262.644531 146.949219 262.699219 147.714844 262.699219 148.664062 L 262.699219 156.59375 C 262.699219 156.785156 262.292969 157.175781 261.480469 157.757812 C 260.664062 158.34375 259.855469 158.863281 259.0625 159.324219 C 258.261719 159.785156 257.746094 160.058594 257.507812 160.140625 C 257.273438 160.226562 257.132812 160.242188 257.085938 160.199219 C 257.039062 160.15625 257.003906 160.054688 256.96875 159.898438 L 256.789062 158.503906 L 256.609375 158.609375 C 256.226562 160.40625 255.183594 161.796875 253.480469 162.78125 " fill-opacity="1" fill-rule="nonzero"/><path fill="#ef323d" d="M 271.984375 150.152344 L 271.984375 148.597656 L 271.800781 148.703125 C 271.722656 148.835938 271.613281 149.015625 271.457031 149.246094 C 271.308594 149.472656 270.953125 149.863281 270.386719 150.414062 C 269.824219 150.96875 269.195312 151.445312 268.503906 151.84375 C 267.8125 152.242188 267.203125 152.46875 266.679688 152.515625 C 266.15625 152.5625 265.742188 152.460938 265.4375 152.207031 C 265.132812 151.953125 264.894531 151.511719 264.730469 150.890625 C 264.4375 149.917969 264.296875 148.382812 264.296875 146.292969 L 264.296875 142.660156 C 264.296875 142.289062 264.746094 141.667969 265.640625 140.789062 C 266.539062 139.910156 267.480469 139.1875 268.472656 138.613281 C 269.792969 137.851562 270.457031 137.863281 270.457031 138.65625 L 270.457031 141.972656 C 270.457031 145.484375 270.699219 147.097656 271.183594 146.820312 C 271.472656 146.652344 271.617188 146.332031 271.617188 145.859375 L 271.617188 138.429688 C 271.617188 138.0625 272.097656 137.421875 273.054688 136.507812 C 274.015625 135.597656 275.039062 134.824219 276.136719 134.191406 C 277.230469 133.558594 277.777344 133.585938 277.777344 134.269531 L 277.777344 146.726562 C 277.777344 150.644531 275.480469 153.929688 270.890625 156.582031 C 268.472656 157.976562 266.828125 158.648438 265.960938 158.609375 C 265.578125 158.582031 265.390625 158.433594 265.390625 158.171875 C 265.390625 157.75 265.542969 156.957031 265.847656 155.789062 C 266.148438 154.621094 266.433594 153.964844 266.691406 153.8125 C 266.75 153.777344 266.964844 153.707031 267.332031 153.601562 C 268.453125 153.304688 269.394531 152.9375 270.148438 152.5 C 270.902344 152.066406 271.394531 151.6875 271.632812 151.359375 C 271.867188 151.027344 271.984375 150.625 271.984375 150.152344 " fill-opacity="1" fill-rule="nonzero"/><path fill="#ef323d" d="M 282.316406 145.453125 C 281.953125 145.46875 281.5625 145.40625 281.144531 145.257812 C 280.726562 145.117188 280.378906 144.859375 280.105469 144.488281 C 279.464844 143.59375 279.148438 142.125 279.148438 140.089844 C 279.148438 138.828125 279.320312 137.597656 279.671875 136.402344 C 280.019531 135.210938 280.445312 134.195312 280.949219 133.359375 C 281.449219 132.527344 282.03125 131.746094 282.683594 131.015625 C 283.734375 129.847656 284.78125 128.964844 285.832031 128.355469 C 287.59375 127.339844 288.824219 126.785156 289.519531 126.703125 C 290.207031 126.617188 290.554688 126.957031 290.554688 127.710938 C 290.554688 128.46875 290.4375 129.339844 290.199219 130.324219 C 289.964844 131.3125 289.65625 131.917969 289.277344 132.136719 C 289.15625 132.207031 288.785156 132.269531 288.171875 132.328125 C 287.554688 132.386719 287.019531 132.542969 286.574219 132.800781 C 286.125 133.0625 285.785156 133.464844 285.546875 134.011719 C 285.308594 134.5625 285.195312 135.429688 285.195312 136.613281 C 285.195312 137.800781 285.300781 138.546875 285.511719 138.851562 C 285.722656 139.160156 286.058594 139.183594 286.507812 138.925781 C 286.953125 138.667969 287.515625 138.167969 288.183594 137.433594 C 288.851562 136.695312 289.222656 136.300781 289.300781 136.257812 C 289.589844 136.09375 289.867188 136.324219 290.132812 136.964844 C 290.402344 137.601562 290.535156 138.222656 290.535156 138.839844 C 290.535156 139.789062 290.105469 140.699219 289.253906 141.566406 C 288.402344 142.433594 287.25 143.289062 285.796875 144.128906 C 284.347656 144.964844 283.183594 145.40625 282.316406 145.453125 " fill-opacity="1" fill-rule="nonzero"/><path fill="#ef323d" d="M 299.339844 135.441406 L 299.339844 128.121094 C 299.335938 126.804688 299.292969 125.875 299.199219 125.328125 C 299.109375 124.785156 298.886719 124.613281 298.539062 124.816406 C 298.234375 124.992188 298.082031 125.316406 298.082031 125.789062 L 298.082031 136.167969 C 298.082031 136.363281 297.640625 136.769531 296.757812 137.390625 C 295.878906 138.015625 294.972656 138.59375 294.042969 139.132812 C 293.117188 139.664062 292.53125 139.957031 292.289062 140 C 292.046875 140.046875 291.921875 139.953125 291.921875 139.722656 L 291.921875 121.46875 C 291.921875 121.101562 292.363281 120.476562 293.246094 119.601562 C 294.128906 118.722656 295.054688 118.003906 296.027344 117.4375 C 297.050781 116.851562 297.695312 116.699219 297.96875 116.976562 C 298.058594 117.066406 298.109375 117.191406 298.109375 117.347656 L 298.109375 121.21875 L 297.855469 123.183594 L 298.015625 123.089844 C 298.226562 122.597656 298.5625 122.082031 299.019531 121.535156 C 299.871094 120.519531 300.796875 119.71875 301.800781 119.136719 C 303.246094 118.304688 304.21875 118.273438 304.734375 119.039062 C 305.242188 119.808594 305.496094 121.390625 305.496094 123.777344 L 305.496094 131.890625 C 305.496094 132.078125 305.050781 132.492188 304.164062 133.121094 C 303.273438 133.746094 302.367188 134.324219 301.449219 134.855469 C 300.527344 135.386719 299.945312 135.675781 299.699219 135.71875 C 299.460938 135.761719 299.339844 135.671875 299.339844 135.441406 " fill-opacity="1" fill-rule="nonzero"/><path fill="#ef323d" d="M 313.050781 118.363281 L 313.050781 120.101562 C 313.488281 119.847656 313.851562 119.4375 314.132812 118.871094 C 314.414062 118.304688 314.554688 117.730469 314.554688 117.152344 C 314.554688 116.097656 314.316406 115.707031 313.847656 115.976562 C 313.3125 116.285156 313.050781 117.082031 313.050781 118.363281 Z M 313.09375 122.179688 C 313.09375 123.324219 313.5625 123.625 314.507812 123.078125 C 315.058594 122.761719 315.773438 122.136719 316.652344 121.195312 C 317.535156 120.253906 318 119.769531 318.046875 119.746094 C 318.332031 119.578125 318.714844 119.859375 319.1875 120.589844 C 319.660156 121.316406 319.890625 121.917969 319.890625 122.394531 C 319.890625 123.078125 319.285156 123.949219 318.066406 125 C 316.851562 126.054688 315.660156 126.917969 314.496094 127.589844 C 313.332031 128.261719 312.359375 128.71875 311.578125 128.957031 C 310.796875 129.199219 310.152344 129.300781 309.660156 129.261719 C 309.164062 129.222656 308.734375 129.070312 308.359375 128.8125 C 307.988281 128.554688 307.710938 128.261719 307.527344 127.9375 C 307.347656 127.613281 307.199219 127.214844 307.097656 126.753906 C 306.941406 126.066406 306.863281 125.3125 306.863281 124.488281 C 306.863281 121.289062 307.585938 118.667969 309.03125 116.625 C 309.746094 115.597656 310.546875 114.707031 311.429688 113.953125 C 312.3125 113.195312 313.355469 112.472656 314.554688 111.777344 C 318.402344 109.558594 320.328125 109.992188 320.328125 113.082031 C 320.328125 116.363281 318.167969 119.253906 313.847656 121.75 L 313.09375 122.179688 " fill-opacity="1" fill-rule="nonzero"/><path fill="#ef323d" d="M 324.640625 121.019531 C 324.273438 121.039062 323.882812 120.972656 323.464844 120.832031 C 323.046875 120.683594 322.699219 120.429688 322.425781 120.058594 C 321.789062 119.164062 321.46875 117.699219 321.46875 115.660156 C 321.46875 114.394531 321.644531 113.167969 321.996094 111.972656 C 322.34375 110.777344 322.769531 109.765625 323.273438 108.929688 C 323.773438 108.097656 324.351562 107.316406 325.003906 106.585938 C 326.054688 105.417969 327.105469 104.535156 328.15625 103.925781 C 329.917969 102.910156 331.144531 102.355469 331.839844 102.273438 C 332.53125 102.191406 332.875 102.527344 332.875 103.28125 C 332.875 104.035156 332.757812 104.910156 332.523438 105.898438 C 332.285156 106.882812 331.980469 107.484375 331.597656 107.707031 C 331.476562 107.777344 331.109375 107.839844 330.492188 107.898438 C 329.878906 107.957031 329.34375 108.113281 328.894531 108.371094 C 328.445312 108.628906 328.105469 109.035156 327.867188 109.585938 C 327.632812 110.132812 327.515625 111 327.515625 112.183594 C 327.515625 113.371094 327.621094 114.117188 327.835938 114.421875 C 328.046875 114.734375 328.378906 114.753906 328.828125 114.496094 C 329.273438 114.238281 329.832031 113.738281 330.503906 113 C 331.171875 112.261719 331.546875 111.871094 331.621094 111.828125 C 331.910156 111.660156 332.1875 111.898438 332.453125 112.53125 C 332.722656 113.171875 332.855469 113.792969 332.855469 114.410156 C 332.855469 115.355469 332.425781 116.265625 331.578125 117.136719 C 330.726562 118.003906 329.574219 118.859375 328.121094 119.699219 C 326.667969 120.539062 325.503906 120.976562 324.640625 121.019531 " fill-opacity="1" fill-rule="nonzero"/><path fill="#ef323d" d="M 339.128906 112.9375 C 338.277344 113.542969 337.386719 114.113281 336.460938 114.644531 C 335.53125 115.183594 334.929688 115.480469 334.65625 115.542969 C 334.382812 115.605469 334.246094 115.519531 334.246094 115.292969 L 334.246094 97.066406 C 334.246094 96.679688 334.675781 96.054688 335.53125 95.191406 C 336.394531 94.324219 337.316406 93.609375 338.304688 93.039062 C 339.703125 92.230469 340.40625 92.230469 340.40625 93.039062 L 340.40625 102.886719 L 340.703125 102.71875 C 341.429688 98.273438 341.96875 95.949219 342.320312 95.75 C 343.203125 95.242188 344.265625 94.863281 345.515625 94.617188 C 346.761719 94.371094 347.386719 94.539062 347.386719 95.117188 C 347.386719 95.539062 347.082031 96.523438 346.472656 98.066406 C 345.863281 99.613281 345.234375 100.949219 344.582031 102.082031 C 346.753906 103.832031 347.839844 104.988281 347.839844 105.546875 C 347.839844 106.074219 347.148438 107.117188 345.765625 108.667969 C 344.382812 110.222656 343.40625 111.164062 342.84375 111.488281 C 342.570312 111.644531 342.285156 111.429688 341.976562 110.84375 C 341.675781 110.253906 341.351562 109.296875 340.996094 107.96875 L 340.40625 109.128906 L 340.40625 111.738281 C 340.40625 111.929688 339.980469 112.332031 339.128906 112.9375 " fill-opacity="1" fill-rule="nonzero"/><path fill="#ef323d" d="M 193.6875 212.183594 C 193.6875 211.558594 194.136719 210.707031 195.03125 209.632812 C 195.925781 208.558594 197.105469 207.601562 198.566406 206.753906 C 199.699219 206.101562 200.429688 205.953125 200.757812 206.308594 C 200.996094 206.550781 201.113281 206.839844 201.113281 207.164062 L 201.113281 208.390625 C 203.777344 207.175781 205.625 206.679688 206.664062 206.898438 C 207.089844 206.980469 207.300781 207.171875 207.300781 207.46875 C 207.300781 208.882812 207.011719 210.574219 206.433594 212.542969 C 205.855469 214.507812 205.296875 215.644531 204.753906 215.960938 C 204.660156 216.015625 204.355469 216.070312 203.835938 216.125 C 202.28125 216.234375 200.988281 216.582031 199.964844 217.175781 C 198.9375 217.765625 198.242188 218.277344 197.878906 218.703125 C 197.511719 219.136719 197.332031 219.574219 197.332031 220.023438 C 197.332031 220.472656 197.589844 220.667969 198.109375 220.613281 C 198.625 220.558594 199.269531 220.402344 200.035156 220.132812 C 200.800781 219.871094 201.636719 219.679688 202.546875 219.5625 C 203.453125 219.449219 204.296875 219.453125 205.074219 219.570312 C 205.851562 219.695312 206.5 220.171875 207.019531 221 C 207.535156 221.832031 207.796875 222.832031 207.796875 224.003906 C 207.796875 225.171875 207.703125 226.195312 207.515625 227.0625 C 207.324219 227.933594 207 228.910156 206.539062 229.992188 C 206.082031 231.074219 205.386719 232.203125 204.453125 233.378906 C 203.523438 234.558594 202.410156 235.667969 201.113281 236.714844 L 201.113281 237.371094 C 201.113281 237.996094 200.664062 238.84375 199.769531 239.917969 C 198.875 240.996094 197.695312 241.957031 196.234375 242.796875 C 195.105469 243.449219 194.371094 243.601562 194.042969 243.25 C 193.804688 243.003906 193.6875 242.714844 193.6875 242.390625 L 193.6875 241.167969 C 192.15625 241.890625 190.824219 242.394531 189.695312 242.699219 C 187.523438 243.269531 186.441406 243.160156 186.441406 242.371094 C 186.441406 240.847656 186.628906 239.152344 187.007812 237.289062 C 187.382812 235.425781 187.832031 234.34375 188.351562 234.042969 C 188.445312 233.988281 189.421875 233.792969 191.285156 233.449219 C 193.144531 233.109375 194.550781 232.667969 195.492188 232.125 C 196.433594 231.582031 197.046875 231.113281 197.332031 230.714844 C 197.613281 230.320312 197.753906 229.90625 197.753906 229.472656 C 197.753906 229.035156 197.496094 228.8125 196.976562 228.796875 C 196.457031 228.785156 195.808594 228.90625 195.03125 229.164062 C 194.253906 229.425781 193.410156 229.613281 192.503906 229.726562 C 191.597656 229.84375 190.753906 229.851562 189.976562 229.757812 C 189.199219 229.660156 188.550781 229.234375 188.03125 228.472656 C 187.511719 227.710938 187.253906 226.621094 187.253906 225.207031 C 187.253906 220.199219 189.398438 216.035156 193.6875 212.71875 L 193.6875 212.183594 " fill-opacity="1" fill-rule="nonzero"/><path fill="#ef323d" d="M 221.300781 225.207031 C 219.863281 226.214844 218.425781 227.132812 216.988281 227.960938 C 215.550781 228.789062 214.625 229.25 214.214844 229.339844 C 213.800781 229.429688 213.59375 229.296875 213.59375 228.941406 L 213.59375 211.304688 L 209.988281 213.390625 C 209.585938 213.621094 209.386719 212.742188 209.386719 210.757812 C 209.386719 208.769531 209.585938 206.859375 209.988281 205.023438 C 210.105469 204.4375 211.355469 203.238281 213.734375 201.429688 C 216.117188 199.621094 217.941406 198.347656 219.214844 197.613281 C 220.488281 196.878906 221.335938 196.445312 221.761719 196.308594 C 222.1875 196.171875 222.503906 196.117188 222.714844 196.144531 C 222.925781 196.171875 223.09375 196.246094 223.210938 196.367188 C 223.375 196.574219 223.457031 196.8125 223.457031 197.082031 L 223.457031 223.246094 C 223.457031 223.546875 222.738281 224.199219 221.300781 225.207031 " fill-opacity="1" fill-rule="nonzero"/><path fill="#ef323d" d="M 244.917969 205.265625 C 245.109375 205.511719 245.363281 205.542969 245.679688 205.359375 C 245.996094 205.175781 246.25 204.84375 246.4375 204.371094 C 246.628906 203.894531 246.78125 202.996094 246.898438 201.671875 C 247.015625 200.355469 247.074219 198.539062 247.074219 196.226562 C 247.074219 193.914062 247.015625 192.144531 246.898438 190.917969 C 246.78125 189.695312 246.625 188.925781 246.4375 188.613281 C 246.25 188.304688 245.996094 188.238281 245.675781 188.421875 C 245.363281 188.601562 245.109375 188.953125 244.917969 189.472656 C 244.449219 190.667969 244.210938 193.46875 244.210938 197.878906 C 244.210938 202.261719 244.449219 204.722656 244.917969 205.265625 Z M 250.59375 208.339844 C 249.261719 209.503906 247.617188 210.648438 245.664062 211.777344 C 243.707031 212.910156 242.0625 213.660156 240.730469 214.035156 C 239.398438 214.40625 238.1875 214.378906 237.105469 213.941406 C 234.960938 213.085938 233.886719 209.609375 233.886719 203.511719 C 233.886719 197.632812 235.007812 193.003906 237.246094 189.613281 C 238.355469 187.941406 239.566406 186.519531 240.886719 185.347656 C 242.207031 184.175781 243.792969 183.058594 245.644531 181.992188 C 247.492188 180.921875 249.082031 180.207031 250.417969 179.847656 C 251.75 179.488281 252.96875 179.503906 254.078125 179.898438 C 256.316406 180.703125 257.433594 184.042969 257.433594 189.917969 C 257.433594 196.015625 256.363281 200.730469 254.21875 204.0625 C 253.132812 205.75 251.925781 207.175781 250.59375 208.339844 " fill-opacity="1" fill-rule="nonzero"/><path fill="#ef323d" d="M 270.589844 190.453125 C 270.777344 190.695312 271.03125 190.726562 271.347656 190.542969 C 271.664062 190.359375 271.917969 190.03125 272.109375 189.550781 C 272.296875 189.074219 272.449219 188.179688 272.566406 186.859375 C 272.6875 185.539062 272.746094 183.722656 272.746094 181.410156 C 272.746094 179.097656 272.6875 177.328125 272.566406 176.101562 C 272.449219 174.878906 272.296875 174.109375 272.105469 173.796875 C 271.917969 173.484375 271.664062 173.417969 271.347656 173.601562 C 271.03125 173.789062 270.777344 174.136719 270.589844 174.652344 C 270.117188 175.851562 269.882812 178.65625 269.882812 183.0625 C 269.882812 187.445312 270.117188 189.90625 270.589844 190.453125 Z M 276.261719 193.523438 C 274.929688 194.683594 273.289062 195.832031 271.332031 196.960938 C 269.375 198.089844 267.730469 198.84375 266.398438 199.21875 C 265.066406 199.589844 263.855469 199.558594 262.773438 199.125 C 260.628906 198.269531 259.554688 194.792969 259.554688 188.695312 C 259.554688 182.816406 260.675781 178.183594 262.914062 174.796875 C 264.023438 173.121094 265.238281 171.699219 266.554688 170.53125 C 267.878906 169.359375 269.460938 168.242188 271.3125 167.171875 C 273.160156 166.105469 274.753906 165.390625 276.085938 165.03125 C 277.417969 164.671875 278.636719 164.6875 279.746094 165.082031 C 281.984375 165.886719 283.105469 169.222656 283.105469 175.105469 C 283.105469 181.199219 282.03125 185.914062 279.886719 189.246094 C 278.800781 190.933594 277.59375 192.363281 276.261719 193.523438 " fill-opacity="1" fill-rule="nonzero"/><path fill="#ef323d" d="M 296.257812 175.632812 C 296.445312 175.878906 296.695312 175.910156 297.019531 175.726562 C 297.335938 175.542969 297.585938 175.210938 297.777344 174.738281 C 297.964844 174.257812 298.117188 173.363281 298.238281 172.039062 C 298.355469 170.722656 298.414062 168.90625 298.414062 166.59375 C 298.414062 164.277344 298.355469 162.511719 298.234375 161.285156 C 298.117188 160.0625 297.964844 159.292969 297.777344 158.980469 C 297.585938 158.667969 297.335938 158.605469 297.015625 158.785156 C 296.695312 158.96875 296.445312 159.320312 296.257812 159.835938 C 295.785156 161.035156 295.546875 163.835938 295.546875 168.246094 C 295.546875 172.628906 295.785156 175.089844 296.257812 175.632812 Z M 301.929688 178.707031 C 300.597656 179.871094 298.953125 181.015625 297 182.144531 C 295.042969 183.273438 293.398438 184.023438 292.066406 184.398438 C 290.734375 184.773438 289.527344 184.746094 288.441406 184.308594 C 286.300781 183.449219 285.222656 179.972656 285.222656 173.878906 C 285.222656 168 286.34375 163.371094 288.582031 159.980469 C 289.691406 158.308594 290.90625 156.882812 292.226562 155.714844 C 293.546875 154.542969 295.128906 153.425781 296.980469 152.355469 C 298.832031 151.289062 300.421875 150.574219 301.753906 150.210938 C 303.085938 149.851562 304.304688 149.871094 305.414062 150.265625 C 307.652344 151.070312 308.773438 154.410156 308.773438 160.285156 C 308.773438 166.382812 307.699219 171.097656 305.554688 174.429688 C 304.472656 176.117188 303.261719 177.542969 301.929688 178.707031 " fill-opacity="1" fill-rule="nonzero"/><path fill="#ef323d" d="M 329.878906 156.226562 C 330.070312 156.472656 330.320312 156.5 330.640625 156.316406 C 330.960938 156.132812 331.210938 155.804688 331.402344 155.328125 C 331.589844 154.851562 331.742188 153.957031 331.859375 152.632812 C 331.976562 151.3125 332.039062 149.496094 332.039062 147.183594 C 332.039062 144.871094 331.976562 143.101562 331.859375 141.878906 C 331.742188 140.652344 331.589844 139.882812 331.402344 139.570312 C 331.210938 139.257812 330.960938 139.195312 330.640625 139.378906 C 330.320312 139.5625 330.066406 139.910156 329.878906 140.429688 C 329.40625 141.628906 329.171875 144.429688 329.171875 148.835938 C 329.171875 153.21875 329.410156 155.679688 329.878906 156.226562 Z M 335.554688 159.296875 C 334.222656 160.460938 332.578125 161.605469 330.621094 162.734375 C 328.664062 163.867188 327.019531 164.617188 325.691406 164.992188 C 324.359375 165.363281 323.148438 165.335938 322.066406 164.898438 C 319.921875 164.042969 318.847656 160.566406 318.847656 154.46875 C 318.847656 148.59375 319.96875 143.960938 322.207031 140.570312 C 323.3125 138.898438 324.53125 137.476562 325.851562 136.308594 C 327.167969 135.136719 328.753906 134.015625 330.605469 132.945312 C 332.453125 131.878906 334.046875 131.164062 335.378906 130.804688 C 336.710938 130.445312 337.925781 130.464844 339.035156 130.855469 C 341.277344 131.660156 342.394531 135 342.394531 140.878906 C 342.394531 146.972656 341.324219 151.6875 339.179688 155.023438 C 338.09375 156.707031 336.886719 158.136719 335.554688 159.296875 " fill-opacity="1" fill-rule="nonzero"/><path fill="#ef323d" d="M 355.550781 141.410156 C 355.738281 141.652344 355.996094 141.683594 356.3125 141.5 C 356.628906 141.316406 356.878906 140.988281 357.070312 140.511719 C 357.257812 140.03125 357.414062 139.136719 357.53125 137.816406 C 357.648438 136.496094 357.707031 134.679688 357.707031 132.367188 C 357.707031 130.054688 357.648438 128.285156 357.53125 127.058594 C 357.410156 125.835938 357.257812 125.066406 357.070312 124.753906 C 356.878906 124.441406 356.628906 124.378906 356.3125 124.5625 C 355.996094 124.742188 355.738281 125.09375 355.550781 125.609375 C 355.078125 126.808594 354.84375 129.613281 354.847656 134.019531 C 354.847656 138.398438 355.078125 140.863281 355.550781 141.410156 Z M 361.226562 144.480469 C 359.890625 145.644531 358.25 146.789062 356.292969 147.917969 C 354.335938 149.046875 352.691406 149.796875 351.363281 150.171875 C 350.027344 150.546875 348.820312 150.519531 347.738281 150.082031 C 345.589844 149.226562 344.519531 145.746094 344.519531 139.652344 C 344.519531 133.773438 345.636719 129.140625 347.875 125.753906 C 348.984375 124.078125 350.199219 122.65625 351.519531 121.488281 C 352.839844 120.316406 354.425781 119.199219 356.273438 118.128906 C 358.125 117.0625 359.714844 116.347656 361.046875 115.988281 C 362.378906 115.625 363.601562 115.644531 364.707031 116.039062 C 366.945312 116.84375 368.066406 120.183594 368.066406 126.0625 C 368.066406 132.15625 366.992188 136.871094 364.851562 140.203125 C 363.765625 141.890625 362.558594 143.316406 361.226562 144.480469 " fill-opacity="1" fill-rule="nonzero"/><path fill="#ef323d" d="M 381.21875 126.59375 C 381.402344 126.839844 381.660156 126.871094 381.976562 126.683594 C 382.292969 126.5 382.550781 126.171875 382.738281 125.695312 C 382.925781 125.21875 383.078125 124.320312 383.195312 123.003906 C 383.316406 121.683594 383.371094 119.863281 383.371094 117.554688 C 383.371094 115.238281 383.316406 113.46875 383.195312 112.246094 C 383.078125 111.019531 382.925781 110.25 382.738281 109.9375 C 382.550781 109.625 382.292969 109.5625 381.976562 109.746094 C 381.660156 109.929688 381.402344 110.28125 381.21875 110.796875 C 380.742188 111.992188 380.507812 114.796875 380.507812 119.203125 C 380.507812 123.585938 380.746094 126.046875 381.21875 126.59375 Z M 386.890625 129.664062 C 385.558594 130.828125 383.917969 131.972656 381.960938 133.101562 C 380 134.234375 378.359375 134.984375 377.027344 135.359375 C 375.695312 135.734375 374.484375 135.703125 373.402344 135.269531 C 371.257812 134.410156 370.1875 130.933594 370.1875 124.839844 C 370.1875 118.960938 371.300781 114.328125 373.542969 110.941406 C 374.648438 109.265625 375.867188 107.84375 377.183594 106.671875 C 378.503906 105.503906 380.089844 104.382812 381.941406 103.316406 C 383.792969 102.25 385.382812 101.535156 386.710938 101.171875 C 388.046875 100.8125 389.265625 100.832031 390.375 101.226562 C 392.613281 102.027344 393.730469 105.367188 393.730469 111.246094 C 393.730469 117.339844 392.660156 122.054688 390.515625 125.390625 C 389.429688 127.078125 388.222656 128.5 386.890625 129.664062 " fill-opacity="1" fill-rule="nonzero"/><path fill="#e5ddf1" d="M 393.988281 143.171875 L 186.230469 263.097656 L 186.230469 257.863281 L 393.988281 137.9375 L 393.988281 143.171875 " fill-opacity="1" fill-rule="nonzero"/><path fill="#e5ddf1" d="M 393.988281 155.03125 L 186.230469 274.957031 L 186.230469 269.726562 L 393.988281 149.800781 L 393.988281 155.03125 " fill-opacity="1" fill-rule="nonzero"/><path fill="#f39c75" d="M 439.878906 64.859375 C 439.878906 63.722656 439.355469 62.648438 438.683594 61.734375 C 436.957031 59.375 433.984375 57.816406 431.097656 58.269531 C 429.632812 58.5 428.910156 59.304688 427.78125 60.082031 C 426.777344 60.777344 425.722656 61.453125 425.382812 62.675781 C 425.03125 63.945312 425.199219 65.253906 425.53125 66.507812 C 425.867188 67.785156 426.324219 69.050781 426.371094 70.371094 C 426.402344 71.433594 426.164062 72.507812 426.34375 73.554688 C 426.621094 75.136719 428.445312 76.09375 429.789062 76.710938 C 430.703125 77.128906 431.730469 77.398438 432.710938 77.179688 C 434.3125 76.824219 435.363281 75.292969 436.015625 73.785156 C 436.675781 72.257812 437.40625 70.800781 438.121094 69.300781 C 438.800781 67.863281 439.871094 66.535156 439.878906 64.859375 " fill-opacity="1" fill-rule="nonzero"/><path fill="#fabda4" d="M 438.507812 60.804688 C 438.867188 61.867188 438.601562 63.214844 437.640625 63.789062 C 437.054688 64.140625 436.570312 64.160156 435.925781 64.160156 C 434.957031 64.152344 434.050781 64.332031 433.136719 64.640625 C 431.980469 65.027344 430.859375 65.539062 429.664062 65.769531 C 428.46875 66 427.148438 65.917969 426.164062 65.195312 C 423.0625 62.925781 426.847656 58.886719 429.1875 57.96875 C 431.152344 57.195312 433.316406 57.152344 435.425781 57.230469 C 436.75 57.277344 438.09375 59.589844 438.507812 60.804688 " fill-opacity="1" fill-rule="nonzero"/><path fill="#fabda4" d="M 440.066406 66.519531 C 440.792969 64.28125 440.050781 61.453125 437.945312 60.402344 C 437.34375 61.242188 437.960938 62.425781 437.757812 63.433594 C 437.554688 64.453125 436.578125 65.105469 435.640625 65.546875 C 434.707031 65.984375 433.667969 66.371094 433.078125 67.21875 C 431.855469 68.96875 433.496094 71.539062 435.570312 71.386719 C 437.5625 71.234375 439.523438 68.191406 440.066406 66.519531 " fill-opacity="1" fill-rule="nonzero"/><path fill="#f39c75" d="M 526.34375 140.015625 C 527.402344 139.363281 528.707031 139.230469 529.949219 139.328125 C 533.144531 139.585938 536.3125 141.453125 537.554688 144.40625 C 538.183594 145.902344 537.851562 147.046875 537.773438 148.542969 C 537.703125 149.882812 537.6875 151.257812 536.738281 152.277344 C 535.753906 153.335938 534.4375 153.933594 533.074219 154.347656 C 531.691406 154.773438 530.246094 155.070312 528.992188 155.792969 C 527.976562 156.375 527.117188 157.21875 526.03125 157.652344 C 524.394531 158.308594 522.449219 157.160156 521.097656 156.257812 C 520.183594 155.648438 519.339844 154.847656 518.976562 153.808594 C 518.386719 152.109375 519.210938 150.242188 520.242188 148.769531 C 521.289062 147.269531 522.226562 145.746094 523.210938 144.222656 C 524.160156 142.753906 524.785156 140.984375 526.34375 140.015625 " fill-opacity="1" fill-rule="nonzero"/><g clip-path="url(#id1)"><path fill="#fabda4" d="M 530.914062 138.960938 C 529.71875 139.230469 528.613281 140.257812 528.632812 141.488281 C 528.640625 142.238281 528.902344 142.699219 529.277344 143.300781 C 529.839844 144.199219 530.195312 145.152344 530.433594 146.179688 C 530.742188 147.480469 530.910156 148.820312 531.382812 150.066406 C 531.855469 151.316406 532.699219 152.5 533.933594 153.003906 C 537.84375 154.585938 539.429688 148.726562 538.9375 146.011719 C 538.527344 143.738281 537.316406 141.691406 536.027344 139.769531 C 535.222656 138.5625 532.289062 138.640625 530.914062 138.960938 " fill-opacity="1" fill-rule="nonzero"/></g><path fill="#fabda4" d="M 524.6875 140.800781 C 526.355469 138.832031 529.421875 137.890625 531.617188 139.25 C 531.179688 140.296875 529.722656 140.402344 528.894531 141.175781 C 528.066406 141.949219 528.019531 143.238281 528.148438 144.367188 C 528.273438 145.492188 528.515625 146.683594 528.0625 147.722656 C 527.140625 149.871094 523.792969 149.824219 522.742188 147.796875 C 521.734375 145.851562 523.4375 142.273438 524.6875 140.800781 " fill-opacity="1" fill-rule="nonzero"/><path fill="#f0edf8" d="M 422.808594 118.472656 C 423.039062 118.894531 423.273438 119.316406 423.507812 119.742188 C 426.378906 124.984375 429.527344 130.074219 432.929688 134.992188 C 434.769531 137.648438 444.015625 149.195312 446 151.746094 C 447.554688 153.738281 446.054688 145.742188 446.855469 145.050781 C 447.613281 144.398438 448.449219 143.632812 448.96875 142.773438 C 449.402344 142.066406 449.644531 141.171875 450.007812 140.410156 C 450.949219 138.4375 451.753906 136.367188 452.046875 134.1875 C 452.429688 131.390625 451.878906 128.347656 450 126.234375 C 448.777344 124.859375 447.105469 123.984375 445.585938 122.960938 C 442.84375 121.113281 440.492188 118.6875 438.714844 115.902344 C 436.757812 112.832031 434.871094 109.703125 432.914062 106.617188 C 431.339844 104.136719 430.015625 101.507812 428.378906 99.066406 C 426.660156 96.507812 424.617188 94.007812 421.160156 94.617188 C 417.066406 95.339844 415.566406 100.59375 416.417969 104.066406 C 417.679688 109.226562 420.261719 113.855469 422.808594 118.472656 " fill-opacity="1" fill-rule="nonzero"/><path fill="#f0edf8" d="M 434.429688 73.757812 C 434.789062 73.980469 435.113281 74.257812 435.175781 74.648438 C 435.285156 75.328125 434.957031 76.148438 434.839844 76.8125 C 434.523438 78.570312 434.164062 80.316406 433.820312 82.0625 C 432.976562 86.144531 432.007812 90.199219 430.945312 94.222656 C 430.160156 97.199219 429.320312 100.160156 428.4375 103.109375 C 428.015625 104.527344 427.519531 105.941406 427.164062 107.378906 C 426.953125 108.21875 424.5 107.132812 423.273438 107.253906 C 420.441406 107.519531 416.121094 105.792969 416.191406 102.316406 C 416.210938 101.304688 416.96875 97.054688 418.03125 93.027344 C 418.105469 92.734375 418.195312 92.445312 418.289062 92.15625 C 419.042969 89.796875 419.988281 87.496094 420.914062 85.203125 C 422.0625 82.351562 423.25 79.523438 424.445312 76.699219 C 424.894531 75.621094 425.332031 74.535156 425.816406 73.472656 C 426.167969 72.699219 426.664062 72.128906 427.535156 71.953125 C 428.160156 71.828125 428.816406 71.914062 429.449219 72.023438 C 430.964844 72.28125 432.484375 72.667969 433.835938 73.421875 C 434.015625 73.523438 434.230469 73.632812 434.429688 73.757812 " fill-opacity="1" fill-rule="nonzero"/><path fill="#f0393a" d="M 449.390625 133.183594 C 448.589844 131.246094 447.957031 128.902344 448.007812 126.574219 C 448.019531 125.9375 448.144531 125.46875 448.703125 125.113281 C 449.375 124.679688 451.441406 123.933594 452.125 124.46875 C 452.808594 125.003906 453.917969 125.441406 453.59375 126.097656 C 453.109375 127.089844 449.136719 132.574219 449.390625 133.183594 " fill-opacity="1" fill-rule="nonzero"/><path fill="#a01f21" d="M 483.757812 133.214844 C 483.769531 131.449219 483.890625 129.679688 483.945312 127.90625 C 484.058594 124.234375 484.035156 120.535156 483.394531 116.902344 C 482.628906 112.570312 480.988281 108.394531 478.605469 104.695312 C 478.246094 104.132812 477.863281 103.582031 477.375 103.132812 C 476.140625 103.3125 474.582031 102.90625 473.476562 103.492188 C 471.835938 104.367188 470.671875 107.226562 469.957031 108.832031 C 468.03125 113.171875 467.4375 118.117188 468.40625 122.777344 C 468.78125 124.570312 469.589844 125.945312 470.199219 127.609375 C 470.941406 129.632812 471.625 131.640625 472.808594 133.460938 C 474.269531 135.710938 476.464844 137.613281 479.101562 138.125 C 480.421875 138.382812 481.945312 138.210938 482.855469 137.222656 C 483.855469 136.140625 483.753906 134.660156 483.757812 133.300781 C 483.757812 133.273438 483.757812 133.246094 483.757812 133.214844 " fill-opacity="1" fill-rule="nonzero"/><path fill="#f39c75" d="M 482.894531 132.367188 C 478.886719 130.542969 471.550781 126.957031 467.597656 124.25 C 467.019531 123.859375 464.359375 125.601562 463.679688 125.457031 C 458.558594 124.371094 453.105469 124.613281 448.355469 126.699219 C 448.304688 126.726562 448.253906 126.753906 448.199219 126.777344 L 448.199219 158.203125 L 478.320312 158.203125 L 482.894531 132.367188 " fill-opacity="1" fill-rule="nonzero"/><path fill="#f39c75" d="M 471.546875 129.96875 C 471.546875 129.96875 452.800781 139.386719 453.699219 128.984375 C 454.960938 114.480469 455.882812 112.863281 462.382812 110.992188 C 464.164062 110.480469 464.863281 108.976562 466.707031 109.050781 C 473.4375 109.320312 470.617188 112.832031 470.210938 115.375 C 469.003906 122.921875 471.664062 125.972656 471.546875 129.96875 " fill-opacity="1" fill-rule="nonzero"/><path fill="#f0edf8" d="M 454.617188 124.351562 C 454.53125 124.355469 454.449219 124.359375 454.363281 124.363281 C 455.109375 124.132812 455.539062 124.324219 454.617188 124.351562 " fill-opacity="1" fill-rule="nonzero"/><path fill="#e5ddf1" d="M 492.539062 143.183594 C 492.574219 143.757812 492.582031 144.359375 492.558594 144.984375 C 492.484375 146.726562 492.027344 148.402344 491.644531 150.085938 C 491.195312 152.082031 490.234375 153.882812 489.160156 155.605469 C 488.027344 157.429688 487.09375 159.285156 485.964844 161.121094 C 484.824219 162.976562 484.238281 164.855469 483.332031 166.824219 C 481.320312 171.226562 479.515625 175.78125 478.710938 180.578125 C 478.066406 184.433594 478.066406 188.335938 478.28125 192.214844 C 478.402344 194.058594 478.710938 195.949219 478.613281 197.769531 C 478.59375 198.273438 478.710938 199.179688 478.613281 199.617188 C 478.476562 200.285156 478.136719 200.523438 477.515625 201 C 474.160156 203.613281 470.183594 205.121094 466.070312 205.839844 C 461.632812 206.582031 456.84375 206.273438 452.582031 205.554688 C 451.316406 205.339844 450.117188 205.097656 448.964844 204.835938 C 443.890625 203.636719 440.082031 202.101562 439.433594 201.625 C 438.5 200.90625 438.90625 201.125 439.699219 194.34375 C 442.957031 166.519531 430.667969 166.019531 435.457031 151.460938 C 436.269531 148.972656 437.953125 146.625 438.980469 144.132812 C 442.789062 135.011719 440.394531 124.859375 454.355469 124.351562 C 453.492188 124.621094 445.410156 138.230469 455.140625 142.222656 C 461.414062 144.796875 473.835938 137.933594 476.730469 129.410156 C 480.867188 131.34375 484.621094 132.570312 488.066406 135.113281 C 491.007812 137.285156 492.324219 139.851562 492.539062 143.183594 " fill-opacity="1" fill-rule="nonzero"/><path fill="#17191a" d="M 466.589844 326.230469 C 466.578125 326.863281 465.820312 327.851562 465.546875 328.398438 C 465.007812 329.492188 464.328125 330.585938 463.855469 331.6875 C 463.246094 333.113281 463.007812 334.839844 462.609375 336.339844 C 461.792969 339.40625 460.972656 342.472656 460.152344 345.539062 C 459.828125 346.761719 459.503906 347.992188 459.433594 349.253906 C 459.363281 350.515625 459.566406 351.828125 460.242188 352.898438 C 461.464844 354.84375 463.898438 355.582031 466.132812 356.121094 C 467.445312 356.4375 468.882812 356.722656 470.09375 356.132812 C 471.050781 355.667969 471.6875 354.738281 472.230469 353.824219 C 474.71875 349.664062 475.894531 345.152344 477.183594 340.542969 C 477.867188 338.105469 478.4375 335.574219 478.195312 333.050781 C 478.058594 331.652344 477.644531 330.257812 476.929688 329.039062 C 476.558594 328.40625 476.097656 327.816406 475.558594 327.320312 C 475.019531 326.828125 474.503906 326.621094 474.144531 325.96875 C 473.472656 324.746094 472.984375 323.257812 471.9375 322.265625 C 471.042969 321.421875 469.398438 321.523438 468.355469 322.050781 C 467.191406 322.628906 466.363281 323.753906 465.929688 324.980469 C 465.953125 325.378906 466.539062 325.734375 466.589844 326.128906 C 466.589844 326.160156 466.59375 326.195312 466.589844 326.230469 " fill-opacity="1" fill-rule="nonzero"/><path fill="#17191a" d="M 438.417969 331.304688 C 439.042969 329.640625 440.035156 328.132812 441.167969 326.769531 C 442.617188 325.019531 444.308594 323.488281 445.933594 321.898438 C 448.085938 319.804688 450.132812 317.605469 452.074219 315.3125 C 452.203125 315.160156 452.332031 315.019531 452.464844 314.875 C 452.464844 314.875 459.417969 307.371094 465.390625 314.875 C 466.042969 315.695312 466.070312 316.855469 466.140625 317.894531 C 466.257812 319.722656 465.636719 321.617188 464.355469 322.945312 C 462.90625 324.441406 460.851562 325.15625 459.082031 326.257812 C 456.855469 327.640625 455.292969 329.578125 454.058594 331.855469 C 452.898438 333.976562 450.835938 336.070312 448.773438 337.339844 C 447.402344 338.183594 445.761719 338.730469 444.175781 338.417969 C 442.539062 338.09375 441.214844 336.90625 440.039062 335.714844 C 439.425781 335.085938 438.804688 334.414062 438.410156 333.621094 C 437.964844 332.726562 438.066406 332.226562 438.417969 331.304688 " fill-opacity="1" fill-rule="nonzero"/><path fill="#231b1e" d="M 432.707031 237.6875 C 433.238281 231.53125 432.433594 214.988281 438.460938 197.90625 L 454.3125 200.171875 C 466.859375 210.480469 455.347656 244.402344 453.601562 252.230469 C 452.714844 256.226562 451.972656 261.988281 451.015625 265.964844 C 449.234375 273.34375 442.277344 278.386719 438.695312 278.730469 C 431.382812 279.429688 432.984375 268.984375 432.800781 264.777344 C 432.398438 255.726562 431.917969 246.738281 432.707031 237.6875 " fill-opacity="1" fill-rule="nonzero"/><path fill="#231b1e" d="M 433.371094 274.859375 C 434.878906 278.378906 437.027344 280.808594 439.296875 284.886719 C 443.636719 292.679688 447.785156 299.09375 450.1875 307.699219 C 450.730469 309.664062 451.257812 311.636719 451.800781 313.605469 C 452.449219 315.957031 453.410156 318.605469 455.847656 319.394531 C 457.101562 319.796875 458.546875 319.597656 459.824219 319.109375 C 461.773438 318.363281 463.375 316.964844 464.417969 315.253906 C 465.714844 313.132812 464.722656 311.550781 463.945312 309.484375 C 461.609375 303.230469 462.804688 296.152344 461.703125 289.550781 C 461.152344 286.230469 460.019531 283.058594 458.890625 279.898438 C 456.671875 273.671875 453.300781 268.738281 448.609375 264 C 447.480469 262.855469 446.003906 261.699219 444.300781 261.984375 L 433.371094 274.859375 " fill-opacity="1" fill-rule="nonzero"/><path fill="#443540" d="M 484.476562 222.0625 C 484.382812 216.703125 484.25 213.699219 483.507812 208.390625 C 483.03125 204.976562 480.320312 195.648438 480.320312 195.648438 C 480.320312 195.648438 466.398438 201.625 462.003906 202.0625 C 456.648438 202.585938 454.515625 202.722656 450.3125 201.921875 C 448.402344 201.554688 448.25 201.648438 448.269531 203.554688 C 448.289062 206.203125 449.335938 209.207031 449.84375 211.8125 C 451.835938 221.949219 454.871094 232.066406 456.453125 242.253906 C 457.738281 250.554688 457.371094 259.371094 458.515625 267.804688 C 458.996094 271.382812 460.921875 274.984375 462.539062 278.054688 C 464.429688 281.636719 466.324219 283.632812 469.8125 283.246094 C 471.394531 283.070312 474.125 281.273438 474.996094 279.933594 C 475.558594 279.074219 475.679688 277.375 476.003906 276.363281 C 476.929688 273.441406 477.710938 270.480469 478.355469 267.484375 C 478.484375 266.859375 478.609375 266.230469 478.734375 265.628906 C 478.746094 265.558594 478.753906 265.484375 478.769531 265.414062 C 480.34375 257.441406 481.234375 249.265625 482.429688 241.234375 C 483.367188 234.964844 484.582031 228.519531 484.476562 222.0625 " fill-opacity="1" fill-rule="nonzero"/><path fill="#443540" d="M 458.605469 264.761719 C 459.289062 273.992188 463.035156 280.683594 464.589844 289.796875 C 466.214844 299.355469 466.804688 308.671875 466.335938 318.378906 C 466.238281 320.40625 466.1875 322.453125 466.015625 324.476562 C 465.878906 326.105469 465.503906 328.277344 466.09375 329.84375 C 466.679688 331.425781 468.351562 332.320312 469.96875 332.8125 C 471.160156 333.179688 472.414062 333.402344 473.65625 333.285156 C 474.816406 333.179688 475.992188 332.738281 476.890625 331.96875 C 477.738281 331.230469 477.957031 329.96875 478.179688 328.890625 C 478.640625 326.636719 478.449219 324.417969 478.730469 322.179688 C 478.964844 320.296875 479.460938 318.320312 479.914062 316.46875 C 480.949219 312.238281 482.40625 308.105469 483.046875 303.785156 C 483.578125 300.175781 483.519531 296.503906 483.460938 292.851562 C 483.34375 285.65625 480.890625 275.777344 477.957031 269.234375 C 477.25 267.652344 477.046875 269.535156 475.34375 269.226562 L 458.605469 264.761719 " fill-opacity="1" fill-rule="nonzero"/><path fill="#443540" d="M 438.460938 197.90625 C 439.152344 195.546875 439.804688 193.402344 439.804688 193.402344 C 439.804688 193.402344 448.335938 200.949219 459.78125 200.105469 C 470.75 199.304688 478.609375 192.980469 478.292969 192.394531 C 479 193.453125 479.671875 194.546875 480.320312 195.648438 C 468.457031 205.933594 450.984375 205.652344 438.460938 197.90625 " fill-opacity="1" fill-rule="nonzero"/><path fill="#fabda4" d="M 464.589844 120.964844 C 465.101562 120.632812 465.605469 120.269531 466.089844 119.867188 C 466.3125 119.679688 466.53125 119.484375 466.742188 119.285156 C 468.59375 117.539062 469.726562 115.15625 471.136719 113.078125 C 472.5625 110.980469 473.347656 108.222656 473.710938 105.734375 C 474.449219 100.671875 473.152344 95.382812 469.5625 91.632812 C 465.542969 87.425781 459.140625 85.671875 453.535156 87.238281 C 452.015625 87.660156 450.570312 88.304688 449.164062 89.019531 C 447.953125 89.636719 446.746094 90.324219 445.820312 91.324219 C 445.21875 91.976562 444.746094 92.75 444.316406 93.53125 C 443.546875 94.9375 443.140625 96.332031 442.699219 97.859375 C 442.457031 98.703125 442.539062 99.597656 442.539062 100.464844 C 442.539062 102.003906 442.648438 103.492188 442.949219 105.003906 C 443.195312 106.253906 443.363281 107.503906 443.394531 108.765625 C 443.425781 110.046875 442.792969 111.140625 442.386719 112.328125 C 442.140625 113.058594 441.710938 114.191406 441.929688 114.925781 C 442.167969 115.726562 443.03125 116.367188 443.433594 117.101562 C 443.867188 117.878906 444 118.464844 444.035156 119.371094 C 444.054688 119.957031 444.253906 120.332031 444.480469 120.851562 C 444.671875 121.285156 444.5625 121.605469 444.628906 122.039062 C 444.707031 122.554688 445.109375 123.003906 445.292969 123.484375 C 445.503906 124.023438 445.675781 124.550781 445.960938 125.0625 C 447.625 128.078125 450.058594 128.277344 453.066406 127.109375 C 455.429688 126.195312 457.589844 125.011719 459.742188 123.71875 C 461.351562 122.75 463.027344 121.976562 464.589844 120.964844 " fill-opacity="1" fill-rule="nonzero"/><path fill="#ef323d" d="M 479.152344 100.570312 C 479.066406 99.171875 478.8125 97.78125 478.382812 96.445312 C 477.96875 95.152344 477.398438 93.914062 476.6875 92.761719 C 476.320312 92.171875 475.929688 91.558594 475.46875 91.039062 C 475.042969 90.566406 474.148438 90.074219 473.917969 89.496094 C 473.886719 89.421875 471.480469 83.460938 460.390625 83.460938 C 456.207031 83.464844 452.125 84.984375 448.585938 87.171875 C 446.078125 88.726562 444.542969 90.109375 443.339844 92.859375 C 442.15625 95.574219 441.5625 98.554688 441.644531 101.523438 C 441.660156 101.96875 441.707031 102.453125 442.015625 102.78125 C 442.476562 103.273438 443.273438 103.152344 443.921875 102.984375 C 446.378906 102.351562 448.429688 101.542969 450.601562 100.304688 C 451.605469 99.726562 454.261719 98.496094 455.445312 99.03125 C 456.414062 99.476562 455.6875 101.992188 456.058594 103.113281 C 456.519531 104.53125 457.421875 105.8125 458.652344 106.664062 C 459.75 107.421875 461.035156 107.851562 462.203125 108.484375 C 463.375 109.121094 464.492188 110.066406 464.8125 111.363281 C 465.148438 112.738281 464.691406 114.574219 465.910156 115.296875 C 467.359375 116.15625 471.351562 112.824219 471.148438 113.175781 C 470.183594 114.804688 470.320312 114.527344 469.964844 117.398438 C 474.566406 114.671875 478.09375 109.746094 478.957031 104.40625 C 479.160156 103.140625 479.226562 101.847656 479.152344 100.570312 " fill-opacity="1" fill-rule="nonzero"/><path fill="#fabda4" d="M 469.691406 107.707031 C 472.605469 107.523438 473.328125 111.140625 471.316406 113.929688 C 470.730469 114.742188 469.695312 115.460938 468.925781 116.109375 C 463.6875 120.535156 462.394531 115.71875 464.058594 114.207031 C 467.929688 110.707031 466.019531 107.941406 469.691406 107.707031 " fill-opacity="1" fill-rule="nonzero"/><path fill="#f39c75" d="M 467.800781 114.328125 C 468.136719 114.023438 471.464844 112.074219 469.207031 110.730469 C 468.585938 110.359375 467.886719 110.90625 467.785156 111.566406 C 467.730469 111.914062 467.839844 112.261719 467.785156 112.609375 C 467.753906 112.8125 467.671875 113.003906 467.558594 113.175781 C 467.265625 113.65625 466.257812 114.117188 466.449219 114.816406 C 466.621094 115.4375 467.605469 114.5 467.800781 114.328125 " fill-opacity="1" fill-rule="nonzero"/><path fill="#f0edf8" d="M 491.015625 138.113281 C 490.832031 137.816406 490.652344 137.515625 490.476562 137.203125 C 489.914062 136.195312 489.011719 135.207031 487.855469 135.171875 C 486.953125 135.148438 486.148438 135.714844 485.5 136.339844 C 483.800781 137.96875 482.675781 140.101562 481.660156 142.226562 C 480.628906 144.386719 479.664062 146.605469 479.175781 148.953125 C 478.738281 151.054688 478.46875 153.992188 479.636719 155.910156 C 480.761719 157.757812 481.773438 159.691406 482.820312 161.597656 C 484.933594 165.441406 487.117188 169.25 489.386719 173.003906 C 490.433594 174.742188 491.457031 177.050781 492.949219 178.472656 C 497.171875 182.5 503.125 181.796875 505.46875 178.402344 C 506.359375 177.117188 506.414062 175.339844 506.296875 173.835938 C 506.121094 171.652344 505.125 169.648438 504.386719 167.628906 C 503.527344 165.273438 502.632812 162.929688 501.722656 160.589844 C 499.300781 154.394531 496.847656 148.101562 493.640625 142.261719 C 492.835938 140.804688 491.878906 139.511719 491.015625 138.113281 " fill-opacity="1" fill-rule="nonzero"/><path fill="#f0edf8" d="M 521.828125 149.570312 C 519.332031 148.886719 517.363281 150.820312 515.5625 152.140625 C 511.328125 155.238281 495.597656 165.394531 490.921875 174.199219 C 489.796875 176.3125 494.933594 178.269531 497.214844 180.378906 C 498.773438 181.820312 501.753906 181.027344 503.691406 180.410156 C 506.097656 179.644531 526.316406 158.566406 526.757812 157.398438 C 527.714844 154.894531 523.765625 150.101562 521.828125 149.570312 " fill-opacity="1" fill-rule="nonzero"/><path fill="#f39c75" d="M 214.175781 108.054688 C 214.820312 106.796875 216.019531 105.90625 217.285156 105.277344 C 220.550781 103.652344 224.730469 103.621094 227.671875 105.773438 C 229.164062 106.863281 229.507812 108.171875 230.304688 109.675781 C 231.023438 111.023438 231.808594 112.371094 231.484375 113.921875 C 231.148438 115.53125 230.210938 116.882812 229.128906 118.082031 C 228.023438 119.304688 226.789062 120.441406 225.988281 121.882812 C 225.34375 123.042969 225 124.371094 224.195312 125.425781 C 222.988281 127.023438 220.417969 127.039062 218.574219 126.953125 C 217.324219 126.894531 216.03125 126.605469 215.070312 125.804688 C 213.496094 124.496094 213.210938 122.195312 213.351562 120.152344 C 213.492188 118.082031 213.515625 116.050781 213.582031 113.984375 C 213.648438 112 213.222656 109.910156 214.175781 108.054688 " fill-opacity="1" fill-rule="nonzero"/><path fill="#fabda4" d="M 218.550781 103.027344 C 217.546875 103.996094 217.070312 105.644531 217.804688 106.828125 C 218.253906 107.554688 218.777344 107.851562 219.496094 108.222656 C 220.570312 108.765625 221.472656 109.484375 222.3125 110.347656 C 223.371094 111.4375 224.316406 112.644531 225.507812 113.582031 C 226.703125 114.523438 228.21875 115.1875 229.71875 114.949219 C 234.453125 114.207031 232.570312 107.566406 230.5 105.207031 C 228.765625 103.230469 226.390625 101.949219 224.011719 100.824219 C 222.515625 100.121094 219.707031 101.914062 218.550781 103.027344 " fill-opacity="1" fill-rule="nonzero"/><path fill="#fabda4" d="M 213.015625 109.792969 C 213.492188 106.898438 215.929688 104.1875 218.859375 104.226562 C 219.050781 105.503906 217.691406 106.460938 217.335938 107.695312 C 216.980469 108.9375 217.691406 110.222656 218.476562 111.242188 C 219.261719 112.265625 220.1875 113.285156 220.359375 114.566406 C 220.714844 117.199219 217.425781 119.109375 215.21875 117.753906 C 213.09375 116.445312 212.660156 111.957031 213.015625 109.792969 " fill-opacity="1" fill-rule="nonzero"/><path fill="#f0edf8" d="M 188.988281 161.113281 C 185.300781 165.285156 181.429688 169.296875 177.386719 173.125 C 171.503906 178.699219 162.582031 183.4375 167.394531 192.628906 C 169.609375 196.851562 171.820312 201.078125 174.03125 205.300781 C 174.882812 206.925781 176.191406 208.800781 178.003906 208.558594 C 179.160156 208.40625 179.996094 207.414062 180.710938 206.496094 C 196.871094 185.71875 212.585938 164.191406 222.550781 139.832031 C 224.234375 135.71875 227.203125 128.207031 225.117188 123.777344 C 224.378906 122.207031 222.992188 121.023438 221.472656 120.191406 C 219.03125 118.855469 215.265625 118.035156 212.921875 119.914062 C 210.726562 121.667969 209.289062 124.898438 208.117188 127.367188 C 205.742188 132.371094 203.363281 137.371094 200.988281 142.375 C 198.84375 146.890625 197.019531 151.488281 193.84375 155.390625 C 192.261719 157.332031 190.644531 159.238281 188.988281 161.113281 " fill-opacity="1" fill-rule="nonzero"/><g clip-path="url(#id2)"><path fill="#231b1e" d="M 131.867188 402.480469 C 132.765625 410.679688 132.785156 418.945312 132.804688 427.191406 C 132.808594 429.691406 133.65625 432.046875 133.417969 434.582031 C 133.269531 436.195312 132.675781 437.828125 131.484375 438.925781 C 130.277344 440.035156 128.574219 440.484375 126.9375 440.472656 C 123.589844 440.4375 120.382812 438.539062 118.484375 435.78125 C 115.695312 431.714844 116.351562 426.550781 115.878906 421.890625 C 115.539062 418.554688 115.300781 415.203125 115.15625 411.851562 C 114.972656 407.613281 116.484375 405.699219 119.570312 403.039062 C 121.949219 400.992188 124.214844 397.671875 126.9375 396.203125 C 128.242188 395.5 130.128906 396.132812 131.183594 397.070312 C 132.355469 398.113281 132.972656 399.683594 133.089844 401.25 L 131.867188 402.480469 " fill-opacity="1" fill-rule="nonzero"/></g><path fill="#231b1e" d="M 175.628906 389.570312 C 178.191406 389.988281 180.894531 391.671875 183.195312 392.753906 C 188.675781 395.328125 194.023438 398.179688 199.367188 401.027344 C 203.148438 403.042969 211.578125 406.558594 209.671875 412.183594 C 208.792969 414.777344 206.175781 416.488281 203.484375 416.96875 C 198.121094 417.925781 193.453125 416.324219 189.191406 413.300781 C 184.976562 410.3125 180.207031 408.109375 175.195312 406.855469 C 170.898438 405.777344 168.132812 403.394531 167.988281 398.773438 C 167.851562 394.261719 170.230469 388.6875 175.628906 389.570312 " fill-opacity="1" fill-rule="nonzero"/><path fill="#231b1e" d="M 184.074219 293.226562 C 182.996094 307.203125 187.066406 347.613281 173.347656 344.78125 C 169.046875 343.894531 161.269531 336.847656 160.085938 327.660156 C 159.449219 322.703125 159.3125 315.609375 158.761719 310.644531 C 157.621094 300.378906 145.730469 267.8125 166.367188 260.261719 C 169.464844 259.125 173.980469 252.617188 176.785156 254.675781 C 177.363281 255.097656 179.222656 257.175781 180.800781 261.824219 C 181.699219 264.472656 182.332031 268.558594 183.03125 272.140625 C 184.222656 278.28125 184.671875 285.5 184.074219 293.226562 " fill-opacity="1" fill-rule="nonzero"/><path fill="#231b1e" d="M 184.074219 394.0625 C 183.734375 397.019531 182.105469 400.335938 172.113281 400.503906 C 169.398438 400.546875 167.421875 392.75 166.867188 390.664062 C 164.464844 381.675781 165.457031 370.796875 164.304688 361.550781 C 162.476562 346.863281 160.328125 336.484375 160.585938 329.648438 C 160.695312 326.824219 164.402344 329.621094 165.855469 327.199219 C 169.375 321.320312 183.660156 323.992188 183.332031 326.84375 C 181.914062 339.09375 184.089844 393.9375 184.074219 394.0625 " fill-opacity="1" fill-rule="nonzero"/><path fill="#443540" d="M 148.433594 337.207031 C 148.042969 340.328125 147.40625 343.421875 146.816406 346.511719 C 145.863281 351.503906 144.855469 356.484375 143.835938 361.464844 C 138.117188 389.398438 136.289062 403.796875 133.210938 409.390625 C 130.667969 414.007812 124.277344 412.8125 120.285156 410.902344 C 118.535156 410.066406 116.941406 408.773438 116.085938 407.039062 C 115.25 405.34375 115.179688 403.390625 115.15625 401.503906 C 114.898438 383.214844 118.007812 365.417969 124.515625 348.335938 C 126.042969 344.324219 127.851562 340.222656 130.664062 336.9375 C 131.667969 335.769531 135.679688 344.964844 137.097656 344.367188 C 138.636719 343.71875 135.671875 340.847656 137.304688 341.183594 C 140.382812 341.816406 143.195312 343.664062 144.992188 346.246094 L 148.433594 337.207031 " fill-opacity="1" fill-rule="nonzero"/><path fill="#443540" d="M 134.855469 262.339844 C 134.855469 262.335938 136.300781 260.828125 136.332031 260.847656 C 140.601562 263.75 146.300781 263.890625 151.621094 265.21875 C 163.101562 268.09375 163.734375 270.273438 172.070312 266.121094 C 172.574219 274.359375 169.648438 281.65625 169.488281 283.453125 C 168.65625 292.703125 160.015625 292.367188 159.054688 297.183594 C 156.832031 308.335938 152.546875 330.375 149.417969 341.308594 C 148.199219 345.558594 146.835938 349.902344 144.039062 353.332031 C 140.777344 357.324219 135.777344 359.054688 130.757812 357.9375 C 129.464844 357.652344 128.191406 357.066406 127.332031 356.058594 C 125.328125 353.714844 122.859375 353.960938 123.546875 350.957031 C 125.542969 342.199219 125.996094 329.601562 125.195312 320.65625 C 123.566406 302.554688 124.480469 283.042969 134.855469 262.339844 " fill-opacity="1" fill-rule="nonzero"/><path fill="#f39c75" d="M 133.503906 249.8125 L 133.539062 249.851562 C 133.917969 252.804688 134.167969 255.769531 134.277344 258.738281 C 134.132812 255.753906 133.878906 252.777344 133.503906 249.8125 " fill-opacity="1" fill-rule="nonzero"/><path fill="#f39c75" d="M 134.277344 258.738281 C 134.363281 260.554688 134.40625 262.367188 134.40625 264.179688 C 134.371094 264.164062 134.335938 264.148438 134.300781 264.132812 C 134.351562 262.335938 134.339844 260.539062 134.277344 258.738281 " fill-opacity="1" fill-rule="nonzero"/><path fill="#e5ddf1" d="M 131.109375 258.742188 C 131.226562 257.667969 131.300781 256.585938 131.285156 255.496094 C 131.21875 250.382812 131.203125 245.269531 131.160156 240.160156 C 131.109375 233.355469 128.25 226.6875 126.4375 220.132812 C 125.429688 216.484375 123.230469 210.953125 122.929688 208.347656 C 122.234375 202.335938 125.714844 197.695312 133.503906 192.417969 C 138.765625 188.855469 149.273438 184.171875 159.550781 180.953125 C 166.503906 178.777344 173.230469 178.160156 176.96875 185.378906 C 178.929688 189.167969 180.617188 193.089844 180.789062 197.320312 C 181.058594 203.921875 181.296875 210.523438 181.507812 217.121094 C 182.007812 232.75 182.191406 248.386719 182.835938 264.007812 C 182.96875 267.203125 182.777344 270.195312 180.816406 272.902344 C 178.820312 275.65625 176.128906 276.300781 173.234375 277.601562 C 169.886719 279.105469 166.230469 280.085938 162.617188 280.703125 C 155.414062 281.921875 147.921875 281.515625 140.925781 279.394531 C 137.417969 278.332031 131.34375 276.074219 129.960938 272.210938 C 128.597656 268.394531 130.675781 262.632812 131.109375 258.742188 " fill-opacity="1" fill-rule="nonzero"/><path fill="#f39c75" d="M 143.636719 186.890625 C 143.269531 198.507812 165.070312 198.707031 164.757812 187.78125 C 164.320312 172.554688 163.394531 170.808594 156.21875 168.445312 C 154.25 167.796875 152.195312 167.300781 150.117188 167.261719 C 142.542969 167.121094 145.476562 170.964844 145.761719 173.648438 C 146.605469 181.605469 143.773438 182.707031 143.636719 186.890625 " fill-opacity="1" fill-rule="nonzero"/><path fill="#f39c75" d="M 143.636719 186.890625 C 143.773438 182.710938 146.605469 181.605469 145.761719 173.648438 C 145.476562 170.964844 142.542969 167.121094 150.117188 167.261719 C 152.195312 167.300781 154.25 167.796875 156.21875 168.445312 C 163.296875 170.773438 164.292969 172.515625 164.738281 187.160156 C 158.707031 186.582031 153.378906 179.929688 147.230469 183.878906 C 145.59375 185.105469 144.492188 186.6875 143.726562 188.433594 C 143.652344 187.945312 143.621094 187.429688 143.636719 186.890625 " fill-opacity="1" fill-rule="nonzero"/><path fill="#fabda4" d="M 172.257812 150.378906 C 173.765625 152.789062 174.648438 155.574219 174.617188 158.53125 C 174.605469 159.800781 174.394531 161.070312 173.96875 162.273438 C 173.570312 163.410156 172.851562 164.484375 172.839844 165.726562 C 172.824219 167.179688 173.875 168.804688 174.347656 170.175781 C 174.773438 171.414062 175.019531 172.804688 174.527344 174.023438 C 174.246094 174.71875 173.746094 175.304688 173.34375 175.9375 C 171.421875 178.960938 173.234375 183.421875 169.882812 185.597656 C 169.042969 186.140625 168.058594 186.242188 167.066406 186.296875 C 165.824219 186.359375 160.234375 184.792969 158.070312 183.835938 C 155.679688 182.78125 153.347656 180.066406 151.625 178.101562 C 150.269531 176.566406 148.003906 174.59375 147.144531 172.75 C 146.878906 172.1875 147.515625 172.082031 146.9375 171.800781 C 146.589844 171.632812 146.164062 169.40625 145.777344 169.363281 C 145.316406 169.316406 144.695312 168.804688 144.304688 168.542969 C 143.554688 168.042969 143.195312 169.867188 142.949219 168.996094 C 141.898438 165.320312 140.566406 161.5625 140.722656 157.679688 C 140.867188 154.121094 140.789062 151.070312 143.078125 148.046875 C 144.796875 145.777344 147.253906 144.125 149.917969 143.109375 C 153.988281 141.5625 158.59375 141.480469 162.714844 142.882812 C 166.617188 144.210938 170.085938 146.910156 172.257812 150.378906 " fill-opacity="1" fill-rule="nonzero"/><path fill="#fabda4" d="M 140.722656 157.679688 C 140.867188 154.121094 140.789062 151.070312 143.078125 148.046875 C 144.796875 145.777344 147.253906 144.125 149.917969 143.109375 C 152.347656 142.1875 154.96875 141.792969 157.5625 141.917969 C 161.445312 149.675781 155.824219 159.609375 160.054688 167.648438 C 161.472656 169.535156 164.308594 170.953125 164.308594 173.316406 C 165.25 177.554688 161.019531 181.324219 163.351562 185.566406 C 161.40625 185.050781 159.238281 184.355469 158.070312 183.835938 C 155.679688 182.78125 153.347656 180.066406 151.625 178.101562 C 150.269531 176.566406 148.003906 174.59375 147.144531 172.75 C 146.878906 172.1875 147.515625 172.082031 146.9375 171.800781 C 146.589844 171.632812 146.164062 169.40625 145.777344 169.363281 C 145.316406 169.316406 144.695312 168.804688 144.300781 168.542969 C 143.554688 168.042969 143.195312 169.867188 142.949219 168.996094 C 141.898438 165.320312 140.566406 161.5625 140.722656 157.679688 " fill-opacity="1" fill-rule="nonzero"/><path fill="#231b1e" d="M 158.765625 153.652344 C 157.765625 153.492188 156.753906 153.523438 155.832031 153.933594 C 154.273438 154.636719 153.34375 156.328125 153.09375 158.019531 C 152.542969 161.753906 153.832031 165.476562 153.9375 169.175781 C 153.949219 169.730469 153.917969 170.3125 153.644531 170.800781 C 152.898438 172.117188 151.503906 171.402344 150.714844 170.5625 C 150.207031 170.027344 149.808594 169.398438 149.324219 168.84375 C 148.839844 168.292969 148.230469 167.800781 147.503906 167.667969 C 146.347656 167.457031 145.457031 168.367188 145.273438 169.4375 C 145.105469 170.417969 145.289062 171.398438 145.546875 172.34375 C 145.605469 172.566406 146.09375 174.269531 145.398438 174.28125 C 144.691406 174.289062 138.515625 167.929688 138.238281 157.121094 C 137.972656 146.757812 145.164062 144.824219 145.164062 144.824219 C 145.164062 144.824219 148.332031 139.457031 156.683594 139.855469 C 161.074219 140.066406 165.371094 141.492188 169.085938 143.808594 C 169.234375 143.902344 169.378906 143.996094 169.527344 144.089844 C 171.328125 145.261719 173.03125 146.652344 174.199219 148.457031 C 177.402344 153.414062 173.085938 157.382812 167.890625 156.554688 C 165.445312 156.160156 163.1875 155.027344 160.851562 154.207031 C 160.179688 153.972656 159.472656 153.761719 158.765625 153.652344 " fill-opacity="1" fill-rule="nonzero"/><path fill="#fabda4" d="M 146.40625 164.832031 C 143.328125 164.625 142.546875 168.445312 144.660156 171.398438 C 145.273438 172.261719 146.367188 173.023438 147.175781 173.707031 C 152.691406 178.410156 154.078125 173.324219 152.324219 171.726562 C 148.253906 168.007812 150.28125 165.089844 146.40625 164.832031 " fill-opacity="1" fill-rule="nonzero"/><path fill="#f39c75" d="M 148.265625 172.125 C 147.914062 171.800781 144.402344 169.730469 146.792969 168.316406 C 147.457031 167.929688 148.191406 168.507812 148.292969 169.210938 C 148.347656 169.570312 148.234375 169.945312 148.289062 170.308594 C 148.320312 170.523438 148.410156 170.726562 148.523438 170.910156 C 148.835938 171.417969 149.898438 171.90625 149.691406 172.648438 C 149.507812 173.304688 148.46875 172.308594 148.265625 172.125 " fill-opacity="1" fill-rule="nonzero"/><path fill="#f39c75" d="M 81.269531 151.964844 C 80.355469 150.660156 78.882812 149.847656 77.371094 149.335938 C 73.476562 148.023438 68.804688 148.628906 65.847656 151.484375 C 64.351562 152.929688 64.167969 154.441406 63.503906 156.246094 C 62.910156 157.859375 62.238281 159.484375 62.835938 161.167969 C 63.460938 162.910156 64.710938 164.277344 66.105469 165.453125 C 67.523438 166.648438 69.078125 167.730469 70.191406 169.214844 C 71.089844 170.410156 71.683594 171.839844 72.738281 172.898438 C 74.332031 174.496094 77.203125 174.121094 79.253906 173.742188 C 80.640625 173.488281 82.039062 172.96875 82.988281 171.925781 C 84.542969 170.222656 84.511719 167.609375 84.042969 165.351562 C 83.566406 163.054688 83.230469 160.792969 82.839844 158.496094 C 82.460938 156.289062 82.621094 153.890625 81.269531 151.964844 " fill-opacity="1" fill-rule="nonzero"/><path fill="#fabda4" d="M 76.417969 148.414062 C 77.691406 149.339844 78.472656 151.105469 77.832031 152.542969 C 77.441406 153.421875 76.90625 153.835938 76.15625 154.355469 C 75.039062 155.128906 74.140625 156.070312 73.339844 157.160156 C 72.324219 158.542969 71.453125 160.03125 70.261719 161.265625 C 69.078125 162.496094 67.484375 163.46875 65.773438 163.4375 C 60.371094 163.332031 61.460938 155.625 63.410156 152.675781 C 65.039062 150.203125 67.5 148.40625 69.984375 146.789062 C 71.546875 145.773438 74.957031 147.347656 76.417969 148.414062 " fill-opacity="1" fill-rule="nonzero"/><path fill="#fabda4" d="M 82.828125 153.726562 C 81.855469 150.566406 78.71875 147.910156 75.449219 148.402344 C 75.433594 149.855469 77.097656 150.71875 77.683594 152.046875 C 78.269531 153.375 77.671875 154.917969 76.953125 156.179688 C 76.234375 157.441406 75.355469 158.726562 75.359375 160.179688 C 75.367188 163.175781 79.328125 164.804688 81.585938 162.953125 C 83.761719 161.167969 83.558594 156.089844 82.828125 153.726562 " fill-opacity="1" fill-rule="nonzero"/><path fill="#f0edf8" d="M 91.777344 175.585938 C 88.609375 170.394531 84.75 163.851562 77.511719 166.484375 C 75.898438 167.074219 72.773438 168.046875 71.804688 169.558594 C 70.695312 171.285156 72.253906 174.542969 72.929688 176.449219 C 74.707031 181.457031 77.34375 186.101562 79.933594 190.71875 C 83.496094 197.070312 87.90625 203.078125 93.855469 207.390625 C 99.222656 211.28125 105.535156 213.558594 111.960938 215 C 116.414062 216.003906 126.605469 219.257812 130.730469 216.796875 C 134.019531 214.835938 135.230469 208.777344 137.328125 205.644531 C 138.820312 203.421875 139.664062 200.84375 140.070312 198.203125 C 140.167969 197.566406 140.269531 190.28125 139.84375 190.40625 C 129.972656 193.34375 118.695312 194.652344 108.476562 192.84375 C 100.261719 191.394531 95.753906 182.089844 91.777344 175.585938 " fill-opacity="1" fill-rule="nonzero"/><path fill="#f7970f" d="M 267.746094 39.96875 L 265.855469 38.875 L 261.265625 31.925781 L 263.160156 33.023438 L 267.746094 39.96875 " fill-opacity="1" fill-rule="nonzero"/><path fill="#f7970f" d="M 272.25 17.277344 L 270.363281 16.179688 L 278.71875 16.601562 L 280.609375 17.699219 L 272.25 17.277344 " fill-opacity="1" fill-rule="nonzero"/><path fill="#f7970f" d="M 254.800781 32.597656 L 252.910156 31.496094 L 261.234375 21.445312 L 263.128906 22.542969 L 254.800781 32.597656 " fill-opacity="1" fill-rule="nonzero"/><g clip-path="url(#id3)"><path fill="#f7970f" d="M 263.128906 22.546875 L 261.234375 21.449219 L 265.773438 9.230469 L 267.664062 10.328125 L 263.128906 22.546875 " fill-opacity="1" fill-rule="nonzero"/></g><path fill="#fac009" d="M 267.664062 10.332031 L 272.25 17.277344 L 280.605469 17.699219 L 272.28125 27.757812 L 267.746094 39.976562 L 263.15625 33.027344 L 254.796875 32.601562 L 263.125 22.546875 L 267.664062 10.332031 " fill-opacity="1" fill-rule="nonzero"/><path fill="#f7970f" d="M 119.40625 213.992188 L 117.988281 213.164062 L 114.542969 207.949219 L 115.960938 208.769531 L 119.40625 213.992188 " fill-opacity="1" fill-rule="nonzero"/><path fill="#f7970f" d="M 122.792969 196.949219 L 121.371094 196.121094 L 127.648438 196.441406 L 129.066406 197.265625 L 122.792969 196.949219 " fill-opacity="1" fill-rule="nonzero"/><path fill="#f7970f" d="M 109.6875 208.449219 L 108.269531 207.625 L 114.519531 200.078125 L 115.9375 200.902344 L 109.6875 208.449219 " fill-opacity="1" fill-rule="nonzero"/><path fill="#f7970f" d="M 115.9375 200.902344 L 114.519531 200.078125 L 117.925781 190.90625 L 119.34375 191.730469 L 115.9375 200.902344 " fill-opacity="1" fill-rule="nonzero"/><path fill="#fac009" d="M 119.34375 191.730469 L 122.792969 196.949219 L 129.066406 197.265625 L 122.8125 204.816406 L 119.40625 213.992188 L 115.960938 208.769531 L 109.6875 208.449219 L 115.9375 200.902344 L 119.34375 191.730469 " fill-opacity="1" fill-rule="nonzero"/><path fill="#f7970f" d="M 423.03125 42.324219 L 421.644531 41.519531 L 418.277344 36.421875 L 419.664062 37.226562 L 423.03125 42.324219 " fill-opacity="1" fill-rule="nonzero"/><path fill="#f7970f" d="M 426.332031 25.683594 L 424.949219 24.875 L 431.074219 25.1875 L 432.464844 25.992188 L 426.332031 25.683594 " fill-opacity="1" fill-rule="nonzero"/><path fill="#f7970f" d="M 413.539062 36.917969 L 412.152344 36.109375 L 418.257812 28.734375 L 419.644531 29.542969 L 413.539062 36.917969 " fill-opacity="1" fill-rule="nonzero"/><path fill="#f7970f" d="M 419.640625 29.542969 L 418.257812 28.738281 L 421.582031 19.777344 L 422.96875 20.582031 L 419.640625 29.542969 " fill-opacity="1" fill-rule="nonzero"/><path fill="#fac009" d="M 422.972656 20.582031 L 426.335938 25.675781 L 432.46875 25.988281 L 426.359375 33.363281 L 423.03125 42.324219 L 419.667969 37.226562 L 413.539062 36.914062 L 419.644531 29.542969 L 422.972656 20.582031 " fill-opacity="1" fill-rule="nonzero"/><path fill="#f7970f" d="M 188.296875 123.925781 L 186.40625 122.828125 L 182.703125 113.15625 L 184.59375 114.253906 L 188.296875 123.925781 " fill-opacity="1" fill-rule="nonzero"/><path fill="#f7970f" d="M 191.914062 101.574219 L 190.023438 100.476562 L 200.300781 98.769531 L 202.191406 99.867188 L 191.914062 101.574219 " fill-opacity="1" fill-rule="nonzero"/><path fill="#f7970f" d="M 174.3125 115.960938 L 172.421875 114.859375 L 182.679688 104.714844 L 184.570312 105.816406 L 174.3125 115.960938 " fill-opacity="1" fill-rule="nonzero"/><path fill="#f7970f" d="M 184.570312 105.816406 L 182.679688 104.71875 L 186.316406 90.808594 L 188.207031 91.90625 L 184.570312 105.816406 " fill-opacity="1" fill-rule="nonzero"/><path fill="#fac009" d="M 188.207031 91.902344 L 191.914062 101.574219 L 202.191406 99.867188 L 191.9375 110.015625 L 188.296875 123.925781 L 184.59375 114.253906 L 174.316406 115.957031 L 184.570312 105.8125 L 188.207031 91.902344 " fill-opacity="1" fill-rule="nonzero"/><path fill="#f7970f" d="M 150.511719 147.335938 L 149.21875 146.585938 L 146.683594 139.96875 L 147.976562 140.722656 L 150.511719 147.335938 " fill-opacity="1" fill-rule="nonzero"/><path fill="#f7970f" d="M 152.984375 132.046875 L 151.691406 131.300781 L 158.71875 130.128906 L 160.011719 130.882812 L 152.984375 132.046875 " fill-opacity="1" fill-rule="nonzero"/><path fill="#f7970f" d="M 140.949219 141.886719 L 139.65625 141.136719 L 146.667969 134.195312 L 147.960938 134.949219 L 140.949219 141.886719 " fill-opacity="1" fill-rule="nonzero"/><path fill="#f7970f" d="M 147.960938 134.949219 L 146.667969 134.199219 L 149.15625 124.683594 L 150.449219 125.433594 L 147.960938 134.949219 " fill-opacity="1" fill-rule="nonzero"/><path fill="#fac009" d="M 150.449219 125.433594 L 152.984375 132.046875 L 160.011719 130.882812 L 153 137.820312 L 150.511719 147.335938 L 147.976562 140.722656 L 140.949219 141.886719 L 147.960938 134.949219 L 150.449219 125.433594 " fill-opacity="1" fill-rule="nonzero"/><path fill="#f7970f" d="M 346.019531 58.199219 L 344.191406 57.136719 L 340.605469 47.785156 L 342.433594 48.847656 L 346.019531 58.199219 " fill-opacity="1" fill-rule="nonzero"/><path fill="#f7970f" d="M 349.511719 36.589844 L 347.683594 35.527344 L 357.621094 33.878906 L 359.449219 34.9375 L 349.511719 36.589844 " fill-opacity="1" fill-rule="nonzero"/><path fill="#f7970f" d="M 332.5 50.496094 L 330.671875 49.433594 L 340.582031 39.625 L 342.414062 40.6875 L 332.5 50.496094 " fill-opacity="1" fill-rule="nonzero"/><path fill="#f7970f" d="M 342.414062 40.6875 L 340.582031 39.625 L 344.101562 26.175781 L 345.929688 27.238281 L 342.414062 40.6875 " fill-opacity="1" fill-rule="nonzero"/><path fill="#fac009" d="M 345.929688 27.238281 L 349.515625 36.585938 L 359.449219 34.9375 L 349.539062 44.746094 L 346.019531 58.195312 L 342.433594 48.847656 L 332.503906 50.496094 L 342.414062 40.6875 L 345.929688 27.238281 " fill-opacity="1" fill-rule="nonzero"/><path fill="#f7970f" d="M 276.429688 98.363281 L 275.027344 97.546875 L 272.277344 90.367188 L 273.679688 91.183594 L 276.429688 98.363281 " fill-opacity="1" fill-rule="nonzero"/><path fill="#f7970f" d="M 279.113281 81.769531 L 277.710938 80.957031 L 285.339844 79.6875 L 286.742188 80.503906 L 279.113281 81.769531 " fill-opacity="1" fill-rule="nonzero"/><path fill="#f7970f" d="M 266.050781 92.449219 L 264.648438 91.632812 L 272.257812 84.101562 L 273.664062 84.917969 L 266.050781 92.449219 " fill-opacity="1" fill-rule="nonzero"/><path fill="#f7970f" d="M 273.664062 84.917969 L 272.257812 84.105469 L 274.960938 73.777344 L 276.363281 74.59375 L 273.664062 84.917969 " fill-opacity="1" fill-rule="nonzero"/><path fill="#fac009" d="M 276.363281 74.59375 L 279.113281 81.773438 L 286.742188 80.503906 L 279.128906 88.039062 L 276.429688 98.363281 L 273.679688 91.183594 L 266.050781 92.449219 L 273.664062 84.917969 L 276.363281 74.59375 " fill-opacity="1" fill-rule="nonzero"/></svg>