<svg xmlns="http://www.w3.org/2000/svg" xmlns:xlink="http://www.w3.org/1999/xlink" width="400" zoomAndPan="magnify" viewBox="0 0 300 74.999997" height="100" preserveAspectRatio="xMidYMid meet" version="1.0"><defs><g/><clipPath id="id1"><path d="M 4.683594 3.632812 L 72.183594 3.632812 L 72.183594 71.132812 L 4.683594 71.132812 Z M 4.683594 3.632812 " clip-rule="nonzero"/></clipPath></defs><g fill="#ed8b00" fill-opacity="1"><g transform="translate(83.990632, 33.332687)"><g><path d="M 2.421875 0 L 2.421875 -27.796875 L 8.296875 -27.796875 L 8.296875 -4.84375 L 20.203125 -4.84375 L 20.203125 0 Z M 2.421875 0 "/></g></g></g><g fill="#ed8b00" fill-opacity="1"><g transform="translate(105.669791, 33.332687)"><g><path d="M 11.71875 0.40625 C 9.613281 0.40625 7.796875 -0.0390625 6.265625 -0.9375 C 4.734375 -1.84375 3.550781 -3.101562 2.71875 -4.71875 C 1.882812 -6.332031 1.46875 -8.207031 1.46875 -10.34375 C 1.46875 -12.5 1.882812 -14.382812 2.71875 -16 C 3.550781 -17.613281 4.734375 -18.867188 6.265625 -19.765625 C 7.796875 -20.671875 9.613281 -21.125 11.71875 -21.125 C 13.832031 -21.125 15.65625 -20.671875 17.1875 -19.765625 C 18.71875 -18.867188 19.898438 -17.613281 20.734375 -16 C 21.566406 -14.382812 21.984375 -12.5 21.984375 -10.34375 C 21.984375 -8.207031 21.566406 -6.332031 20.734375 -4.71875 C 19.898438 -3.101562 18.71875 -1.84375 17.1875 -0.9375 C 15.65625 -0.0390625 13.832031 0.40625 11.71875 0.40625 Z M 11.75 -4.078125 C 13.175781 -4.078125 14.257812 -4.671875 15 -5.859375 C 15.738281 -7.054688 16.109375 -8.5625 16.109375 -10.375 C 16.109375 -12.195312 15.738281 -13.707031 15 -14.90625 C 14.257812 -16.101562 13.175781 -16.703125 11.75 -16.703125 C 10.289062 -16.703125 9.191406 -16.101562 8.453125 -14.90625 C 7.710938 -13.707031 7.34375 -12.195312 7.34375 -10.375 C 7.34375 -8.5625 7.710938 -7.054688 8.453125 -5.859375 C 9.191406 -4.671875 10.289062 -4.078125 11.75 -4.078125 Z M 11.75 -4.078125 "/></g></g></g><g fill="#ed8b00" fill-opacity="1"><g transform="translate(129.112588, 33.332687)"><g><path d="M 13.390625 -20.84375 L 13.390625 -16.5 L 9.46875 -16.5 L 9.46875 -6.40625 C 9.46875 -5.613281 9.648438 -5.078125 10.015625 -4.796875 C 10.378906 -4.515625 10.847656 -4.375 11.421875 -4.375 C 11.691406 -4.375 11.960938 -4.394531 12.234375 -4.4375 C 12.515625 -4.488281 12.722656 -4.53125 12.859375 -4.5625 L 13.78125 -0.265625 C 13.488281 -0.171875 13.078125 -0.0625 12.546875 0.0625 C 12.023438 0.1875 11.390625 0.257812 10.640625 0.28125 C 8.535156 0.375 6.847656 -0.078125 5.578125 -1.078125 C 4.304688 -2.078125 3.675781 -3.597656 3.6875 -5.640625 L 3.6875 -16.5 L 0.84375 -16.5 L 0.84375 -20.84375 L 3.6875 -20.84375 L 3.6875 -25.84375 L 9.46875 -25.84375 L 9.46875 -20.84375 Z M 13.390625 -20.84375 "/></g></g></g><g fill="#ed8b00" fill-opacity="1"><g transform="translate(143.954269, 33.332687)"><g><path d="M 13.390625 -20.84375 L 13.390625 -16.5 L 9.46875 -16.5 L 9.46875 -6.40625 C 9.46875 -5.613281 9.648438 -5.078125 10.015625 -4.796875 C 10.378906 -4.515625 10.847656 -4.375 11.421875 -4.375 C 11.691406 -4.375 11.960938 -4.394531 12.234375 -4.4375 C 12.515625 -4.488281 12.722656 -4.53125 12.859375 -4.5625 L 13.78125 -0.265625 C 13.488281 -0.171875 13.078125 -0.0625 12.546875 0.0625 C 12.023438 0.1875 11.390625 0.257812 10.640625 0.28125 C 8.535156 0.375 6.847656 -0.078125 5.578125 -1.078125 C 4.304688 -2.078125 3.675781 -3.597656 3.6875 -5.640625 L 3.6875 -16.5 L 0.84375 -16.5 L 0.84375 -20.84375 L 3.6875 -20.84375 L 3.6875 -25.84375 L 9.46875 -25.84375 L 9.46875 -20.84375 Z M 13.390625 -20.84375 "/></g></g></g><g fill="#ed8b00" fill-opacity="1"><g transform="translate(158.795951, 33.332687)"><g><path d="M 11.71875 0.40625 C 9.613281 0.40625 7.796875 -0.0390625 6.265625 -0.9375 C 4.734375 -1.84375 3.550781 -3.101562 2.71875 -4.71875 C 1.882812 -6.332031 1.46875 -8.207031 1.46875 -10.34375 C 1.46875 -12.5 1.882812 -14.382812 2.71875 -16 C 3.550781 -17.613281 4.734375 -18.867188 6.265625 -19.765625 C 7.796875 -20.671875 9.613281 -21.125 11.71875 -21.125 C 13.832031 -21.125 15.65625 -20.671875 17.1875 -19.765625 C 18.71875 -18.867188 19.898438 -17.613281 20.734375 -16 C 21.566406 -14.382812 21.984375 -12.5 21.984375 -10.34375 C 21.984375 -8.207031 21.566406 -6.332031 20.734375 -4.71875 C 19.898438 -3.101562 18.71875 -1.84375 17.1875 -0.9375 C 15.65625 -0.0390625 13.832031 0.40625 11.71875 0.40625 Z M 11.75 -4.078125 C 13.175781 -4.078125 14.257812 -4.671875 15 -5.859375 C 15.738281 -7.054688 16.109375 -8.5625 16.109375 -10.375 C 16.109375 -12.195312 15.738281 -13.707031 15 -14.90625 C 14.257812 -16.101562 13.175781 -16.703125 11.75 -16.703125 C 10.289062 -16.703125 9.191406 -16.101562 8.453125 -14.90625 C 7.710938 -13.707031 7.34375 -12.195312 7.34375 -10.375 C 7.34375 -8.5625 7.710938 -7.054688 8.453125 -5.859375 C 9.191406 -4.671875 10.289062 -4.078125 11.75 -4.078125 Z M 11.75 -4.078125 "/></g></g></g><g fill="#000000" fill-opacity="1"><g transform="translate(182.228905, 33.332687)"><g/></g></g><g fill="#34a5e9" fill-opacity="1"><g transform="translate(83.990632, 67.832684)"><g><path d="M 25.734375 -19.109375 L 22.359375 -19.109375 C 22.085938 -20.390625 21.566406 -21.46875 20.796875 -22.34375 C 20.035156 -23.226562 19.109375 -23.894531 18.015625 -24.34375 C 16.929688 -24.800781 15.773438 -25.03125 14.546875 -25.03125 C 12.867188 -25.03125 11.347656 -24.601562 9.984375 -23.75 C 8.617188 -22.894531 7.535156 -21.640625 6.734375 -19.984375 C 5.929688 -18.335938 5.53125 -16.304688 5.53125 -13.890625 C 5.53125 -11.484375 5.929688 -9.453125 6.734375 -7.796875 C 7.535156 -6.140625 8.617188 -4.882812 9.984375 -4.03125 C 11.347656 -3.1875 12.867188 -2.765625 14.546875 -2.765625 C 15.773438 -2.765625 16.929688 -2.988281 18.015625 -3.4375 C 19.109375 -3.894531 20.035156 -4.5625 20.796875 -5.4375 C 21.566406 -6.320312 22.085938 -7.40625 22.359375 -8.6875 L 25.734375 -8.6875 C 25.390625 -6.789062 24.6875 -5.164062 23.625 -3.8125 C 22.570312 -2.457031 21.257812 -1.421875 19.6875 -0.703125 C 18.125 0.015625 16.410156 0.375 14.546875 0.375 C 12.179688 0.375 10.070312 -0.203125 8.21875 -1.359375 C 6.375 -2.515625 4.921875 -4.160156 3.859375 -6.296875 C 2.804688 -8.429688 2.28125 -10.960938 2.28125 -13.890625 C 2.28125 -16.828125 2.804688 -19.363281 3.859375 -21.5 C 4.921875 -23.632812 6.375 -25.28125 8.21875 -26.4375 C 10.070312 -27.59375 12.179688 -28.171875 14.546875 -28.171875 C 16.410156 -28.171875 18.125 -27.8125 19.6875 -27.09375 C 21.257812 -26.375 22.570312 -25.335938 23.625 -23.984375 C 24.6875 -22.628906 25.390625 -21.003906 25.734375 -19.109375 Z M 25.734375 -19.109375 "/></g></g></g><g fill="#34a5e9" fill-opacity="1"><g transform="translate(111.774687, 67.832684)"><g><path d="M 6.140625 -12.546875 L 6.140625 0 L 2.9375 0 L 2.9375 -27.796875 L 6.140625 -27.796875 L 6.140625 -17.59375 L 6.40625 -17.59375 C 6.894531 -18.664062 7.628906 -19.519531 8.609375 -20.15625 C 9.585938 -20.800781 10.898438 -21.125 12.546875 -21.125 C 14.679688 -21.125 16.398438 -20.476562 17.703125 -19.1875 C 19.003906 -17.90625 19.65625 -15.925781 19.65625 -13.25 L 19.65625 0 L 16.453125 0 L 16.453125 -13.03125 C 16.453125 -14.6875 16.023438 -15.96875 15.171875 -16.875 C 14.316406 -17.78125 13.132812 -18.234375 11.625 -18.234375 C 10.039062 -18.234375 8.726562 -17.738281 7.6875 -16.75 C 6.65625 -15.757812 6.140625 -14.359375 6.140625 -12.546875 Z M 6.140625 -12.546875 "/></g></g></g><g fill="#34a5e9" fill-opacity="1"><g transform="translate(134.349232, 67.832684)"><g><path d="M 11.671875 0.4375 C 9.660156 0.4375 7.925781 -0.00390625 6.46875 -0.890625 C 5.019531 -1.785156 3.90625 -3.035156 3.125 -4.640625 C 2.34375 -6.253906 1.953125 -8.128906 1.953125 -10.265625 C 1.953125 -12.398438 2.34375 -14.28125 3.125 -15.90625 C 3.90625 -17.539062 5 -18.816406 6.40625 -19.734375 C 7.8125 -20.660156 9.457031 -21.125 11.34375 -21.125 C 12.425781 -21.125 13.5 -20.941406 14.5625 -20.578125 C 15.625 -20.210938 16.585938 -19.625 17.453125 -18.8125 C 18.316406 -18.007812 19.003906 -16.941406 19.515625 -15.609375 C 20.035156 -14.273438 20.296875 -12.632812 20.296875 -10.6875 L 20.296875 -9.34375 L 5.171875 -9.34375 C 5.242188 -7.113281 5.875 -5.40625 7.0625 -4.21875 C 8.25 -3.03125 9.785156 -2.4375 11.671875 -2.4375 C 12.929688 -2.4375 14.007812 -2.707031 14.90625 -3.25 C 15.8125 -3.800781 16.472656 -4.617188 16.890625 -5.703125 L 19.984375 -4.828125 C 19.492188 -3.253906 18.515625 -1.984375 17.046875 -1.015625 C 15.578125 -0.046875 13.785156 0.4375 11.671875 0.4375 Z M 5.171875 -12.109375 L 17.046875 -12.109375 C 17.046875 -13.867188 16.53125 -15.328125 15.5 -16.484375 C 14.46875 -17.648438 13.082031 -18.234375 11.34375 -18.234375 C 10.125 -18.234375 9.066406 -17.945312 8.171875 -17.375 C 7.273438 -16.8125 6.566406 -16.0625 6.046875 -15.125 C 5.535156 -14.1875 5.242188 -13.179688 5.171875 -12.109375 Z M 5.171875 -12.109375 "/></g></g></g><g fill="#34a5e9" fill-opacity="1"><g transform="translate(156.598182, 67.832684)"><g><path d="M 11.40625 0.4375 C 9.445312 0.4375 7.757812 -0.0195312 6.34375 -0.9375 C 4.9375 -1.863281 3.851562 -3.132812 3.09375 -4.75 C 2.332031 -6.375 1.953125 -8.226562 1.953125 -10.3125 C 1.953125 -12.425781 2.34375 -14.296875 3.125 -15.921875 C 3.90625 -17.546875 5 -18.816406 6.40625 -19.734375 C 7.8125 -20.660156 9.457031 -21.125 11.34375 -21.125 C 12.8125 -21.125 14.132812 -20.847656 15.3125 -20.296875 C 16.488281 -19.753906 17.453125 -18.992188 18.203125 -18.015625 C 18.953125 -17.046875 19.414062 -15.910156 19.59375 -14.609375 L 16.390625 -14.609375 C 16.148438 -15.554688 15.609375 -16.394531 14.765625 -17.125 C 13.929688 -17.863281 12.8125 -18.234375 11.40625 -18.234375 C 9.53125 -18.234375 8.019531 -17.519531 6.875 -16.09375 C 5.726562 -14.675781 5.15625 -12.785156 5.15625 -10.421875 C 5.15625 -8.003906 5.71875 -6.066406 6.84375 -4.609375 C 7.976562 -3.160156 9.5 -2.4375 11.40625 -2.4375 C 12.644531 -2.4375 13.710938 -2.757812 14.609375 -3.40625 C 15.503906 -4.050781 16.097656 -4.941406 16.390625 -6.078125 L 19.59375 -6.078125 C 19.414062 -4.847656 18.972656 -3.742188 18.265625 -2.765625 C 17.554688 -1.785156 16.617188 -1.003906 15.453125 -0.421875 C 14.285156 0.148438 12.9375 0.4375 11.40625 0.4375 Z M 11.40625 0.4375 "/></g></g></g><g fill="#34a5e9" fill-opacity="1"><g transform="translate(177.924611, 67.832684)"><g><path d="M 2.9375 0 L 2.9375 -27.796875 L 6.140625 -27.796875 L 6.140625 -11.5625 L 6.515625 -11.5625 L 15.640625 -20.84375 L 19.59375 -20.84375 L 10.796875 -11.9375 L 20.25 0 L 16.171875 0 L 8.375 -9.875 L 6.140625 -7.796875 L 6.140625 0 Z M 2.9375 0 "/></g></g></g><g fill="#34a5e9" fill-opacity="1"><g transform="translate(198.708385, 67.832684)"><g><path d="M 11.671875 0.4375 C 9.660156 0.4375 7.925781 -0.00390625 6.46875 -0.890625 C 5.019531 -1.785156 3.90625 -3.035156 3.125 -4.640625 C 2.34375 -6.253906 1.953125 -8.128906 1.953125 -10.265625 C 1.953125 -12.398438 2.34375 -14.28125 3.125 -15.90625 C 3.90625 -17.539062 5 -18.816406 6.40625 -19.734375 C 7.8125 -20.660156 9.457031 -21.125 11.34375 -21.125 C 12.425781 -21.125 13.5 -20.941406 14.5625 -20.578125 C 15.625 -20.210938 16.585938 -19.625 17.453125 -18.8125 C 18.316406 -18.007812 19.003906 -16.941406 19.515625 -15.609375 C 20.035156 -14.273438 20.296875 -12.632812 20.296875 -10.6875 L 20.296875 -9.34375 L 5.171875 -9.34375 C 5.242188 -7.113281 5.875 -5.40625 7.0625 -4.21875 C 8.25 -3.03125 9.785156 -2.4375 11.671875 -2.4375 C 12.929688 -2.4375 14.007812 -2.707031 14.90625 -3.25 C 15.8125 -3.800781 16.472656 -4.617188 16.890625 -5.703125 L 19.984375 -4.828125 C 19.492188 -3.253906 18.515625 -1.984375 17.046875 -1.015625 C 15.578125 -0.046875 13.785156 0.4375 11.671875 0.4375 Z M 5.171875 -12.109375 L 17.046875 -12.109375 C 17.046875 -13.867188 16.53125 -15.328125 15.5 -16.484375 C 14.46875 -17.648438 13.082031 -18.234375 11.34375 -18.234375 C 10.125 -18.234375 9.066406 -17.945312 8.171875 -17.375 C 7.273438 -16.8125 6.566406 -16.0625 6.046875 -15.125 C 5.535156 -14.1875 5.242188 -13.179688 5.171875 -12.109375 Z M 5.171875 -12.109375 "/></g></g></g><g fill="#34a5e9" fill-opacity="1"><g transform="translate(220.957334, 67.832684)"><g><path d="M 2.9375 0 L 2.9375 -20.84375 L 6.03125 -20.84375 L 6.03125 -17.703125 L 6.25 -17.703125 C 6.613281 -18.734375 7.289062 -19.566406 8.28125 -20.203125 C 9.28125 -20.847656 10.410156 -21.171875 11.671875 -21.171875 C 12.253906 -21.171875 12.757812 -21.101562 13.1875 -20.96875 C 13.625 -20.832031 14.003906 -20.644531 14.328125 -20.40625 L 13.25 -17.703125 C 13.019531 -17.816406 12.753906 -17.90625 12.453125 -17.96875 C 12.148438 -18.039062 11.800781 -18.078125 11.40625 -18.078125 C 9.882812 -18.078125 8.625 -17.613281 7.625 -16.6875 C 6.632812 -15.757812 6.140625 -14.59375 6.140625 -13.1875 L 6.140625 0 Z M 2.9375 0 "/></g></g></g><g clip-path="url(#id1)"><path fill="#ed8b00" d="M 38.410156 3.65625 C 19.789062 3.65625 4.683594 18.757812 4.683594 37.382812 C 4.683594 56.007812 19.789062 71.109375 38.410156 71.109375 C 57.035156 71.109375 72.140625 56.007812 72.140625 37.382812 C 72.183594 18.757812 57.128906 3.65625 38.410156 3.65625 Z M 38.410156 3.65625 " fill-opacity="1" fill-rule="nonzero"/></g><path fill="#34a5e9" d="M 56.433594 22.972656 L 56.203125 22.789062 C 55.414062 22.140625 54.441406 21.863281 53.515625 21.953125 C 52.542969 22.046875 51.660156 22.464844 51.011719 23.253906 L 42.765625 32.980469 L 37.855469 38.863281 L 34.289062 43.171875 L 31.832031 40.578125 L 30.445312 39.140625 L 25.625 34.09375 C 24.929688 33.351562 24.003906 32.980469 23.03125 32.933594 C 22.105469 32.886719 21.132812 33.257812 20.4375 33.953125 L 20.203125 34.183594 C 18.722656 35.574219 18.675781 37.9375 20.066406 39.421875 L 24.835938 44.425781 L 26.226562 45.90625 L 31.742188 51.699219 C 32.390625 52.347656 33.222656 52.761719 34.058594 52.808594 C 34.101562 52.808594 34.101562 52.808594 34.148438 52.808594 C 34.195312 52.808594 34.242188 52.808594 34.335938 52.808594 C 34.335938 52.808594 34.335938 52.808594 34.382812 52.808594 C 34.519531 52.808594 34.660156 52.808594 34.84375 52.808594 C 35.816406 52.714844 36.699219 52.300781 37.347656 51.511719 L 45.546875 41.785156 L 48.695312 37.9375 L 56.898438 28.210938 C 58.195312 26.632812 58.007812 24.316406 56.433594 22.972656 Z M 56.433594 22.972656 " fill-opacity="1" fill-rule="nonzero"/></svg>