<svg xmlns="http://www.w3.org/2000/svg" xmlns:xlink="http://www.w3.org/1999/xlink" width="450" zoomAndPan="magnify" viewBox="0 0 337.5 225" height="300" preserveAspectRatio="xMidYMid meet" version="1.0"><defs><clipPath id="id1"><path d="M 114 35 L 205 35 L 205 74 L 114 74 Z M 114 35 " clip-rule="nonzero"/></clipPath><clipPath id="id2"><path d="M 114.328125 73.667969 C 115.90625 67.273438 130.800781 57.941406 138.761719 63.566406 C 141.207031 51.390625 143.492188 43.796875 151.472656 37.796875 C 159.457031 31.800781 172.777344 39.640625 174.917969 56.0625 C 177.054688 49.3125 187.933594 40.214844 196.671875 47.886719 C 204.753906 54.984375 205.566406 66.882812 204.722656 73.65625 L 114.328125 73.65625 Z M 114.328125 73.667969 " clip-rule="nonzero"/></clipPath><linearGradient x1="420.869619" gradientTransform="matrix(0.375, 0, 0, 0.375, 0, 0.16643)" y1="196.564092" x2="421.418304" gradientUnits="userSpaceOnUse" y2="83.739556" id="id3"><stop stop-opacity="1" stop-color="rgb(98.594666%, 98.594666%, 98.594666%)" offset="0"/><stop stop-opacity="1" stop-color="rgb(98.417664%, 98.417664%, 98.417664%)" offset="0.0104869"/><stop stop-opacity="1" stop-color="rgb(98.242188%, 98.242188%, 98.242188%)" offset="0.125"/><stop stop-opacity="1" stop-color="rgb(98.065186%, 98.065186%, 98.065186%)" offset="0.25"/><stop stop-opacity="1" stop-color="rgb(97.711182%, 97.711182%, 97.711182%)" offset="0.375"/><stop stop-opacity="1" stop-color="rgb(97.358704%, 97.358704%, 97.358704%)" offset="0.5"/><stop stop-opacity="1" stop-color="rgb(97.0047%, 97.0047%, 97.0047%)" offset="0.625"/><stop stop-opacity="1" stop-color="rgb(96.652222%, 96.652222%, 96.652222%)" offset="0.75"/><stop stop-opacity="1" stop-color="rgb(96.299744%, 96.299744%, 96.299744%)" offset="0.875"/><stop stop-opacity="1" stop-color="rgb(95.94574%, 95.94574%, 95.94574%)" offset="0.989513"/><stop stop-opacity="1" stop-color="rgb(95.770264%, 95.770264%, 95.770264%)" offset="1"/></linearGradient><clipPath id="id4"><path d="M 64 51 L 137 51 L 137 83 L 64 83 Z M 64 51 " clip-rule="nonzero"/></clipPath><clipPath id="id5"><path d="M 136.503906 82.078125 C 135.246094 76.988281 123.375 69.554688 117.03125 74.035156 C 115.085938 64.339844 113.265625 58.292969 106.902344 53.515625 C 100.542969 48.738281 89.925781 54.980469 88.222656 68.058594 C 86.519531 62.683594 77.851562 55.4375 70.886719 61.546875 C 64.445312 67.203125 63.800781 76.675781 64.472656 82.070312 L 136.503906 82.070312 Z M 136.503906 82.078125 " clip-rule="nonzero"/></clipPath><linearGradient x1="271.577906" gradientTransform="matrix(0.375, 0, 0, 0.375, 0, 0.16643)" y1="218.879471" x2="271.140988" gradientUnits="userSpaceOnUse" y2="129.032778" id="id6"><stop stop-opacity="1" stop-color="rgb(98.594666%, 98.594666%, 98.594666%)" offset="0"/><stop stop-opacity="1" stop-color="rgb(98.417664%, 98.417664%, 98.417664%)" offset="0.0104934"/><stop stop-opacity="1" stop-color="rgb(98.242188%, 98.242188%, 98.242188%)" offset="0.125"/><stop stop-opacity="1" stop-color="rgb(98.065186%, 98.065186%, 98.065186%)" offset="0.25"/><stop stop-opacity="1" stop-color="rgb(97.711182%, 97.711182%, 97.711182%)" offset="0.375"/><stop stop-opacity="1" stop-color="rgb(97.358704%, 97.358704%, 97.358704%)" offset="0.5"/><stop stop-opacity="1" stop-color="rgb(97.0047%, 97.0047%, 97.0047%)" offset="0.625"/><stop stop-opacity="1" stop-color="rgb(96.652222%, 96.652222%, 96.652222%)" offset="0.75"/><stop stop-opacity="1" stop-color="rgb(96.299744%, 96.299744%, 96.299744%)" offset="0.875"/><stop stop-opacity="1" stop-color="rgb(95.94574%, 95.94574%, 95.94574%)" offset="0.989507"/><stop stop-opacity="1" stop-color="rgb(95.770264%, 95.770264%, 95.770264%)" offset="1"/></linearGradient><clipPath id="id7"><path d="M 210 42 L 285 42 L 285 74 L 210 74 Z M 210 42 " clip-rule="nonzero"/></clipPath><clipPath id="id8"><path d="M 284.164062 73.667969 C 282.882812 68.476562 270.78125 60.898438 264.3125 65.46875 C 262.328125 55.582031 260.472656 49.414062 253.984375 44.546875 C 247.5 39.675781 236.679688 46.042969 234.941406 59.375 C 233.203125 53.894531 224.367188 46.507812 217.265625 52.734375 C 210.699219 58.5 210.039062 68.15625 210.726562 73.65625 L 284.164062 73.65625 Z M 284.164062 73.667969 " clip-rule="nonzero"/></clipPath><linearGradient x1="663.533701" gradientTransform="matrix(0.375, 0, 0, 0.375, 0, 0.16643)" y1="196.458168" x2="663.088336" gradientUnits="userSpaceOnUse" y2="104.857302" id="id9"><stop stop-opacity="1" stop-color="rgb(98.594666%, 98.594666%, 98.594666%)" offset="0"/><stop stop-opacity="1" stop-color="rgb(98.417664%, 98.417664%, 98.417664%)" offset="0.0104913"/><stop stop-opacity="1" stop-color="rgb(98.242188%, 98.242188%, 98.242188%)" offset="0.125"/><stop stop-opacity="1" stop-color="rgb(98.065186%, 98.065186%, 98.065186%)" offset="0.25"/><stop stop-opacity="1" stop-color="rgb(97.711182%, 97.711182%, 97.711182%)" offset="0.375"/><stop stop-opacity="1" stop-color="rgb(97.358704%, 97.358704%, 97.358704%)" offset="0.5"/><stop stop-opacity="1" stop-color="rgb(97.0047%, 97.0047%, 97.0047%)" offset="0.625"/><stop stop-opacity="1" stop-color="rgb(96.652222%, 96.652222%, 96.652222%)" offset="0.75"/><stop stop-opacity="1" stop-color="rgb(96.299744%, 96.299744%, 96.299744%)" offset="0.875"/><stop stop-opacity="1" stop-color="rgb(95.94574%, 95.94574%, 95.94574%)" offset="0.989509"/><stop stop-opacity="1" stop-color="rgb(95.770264%, 95.770264%, 95.770264%)" offset="1"/></linearGradient><clipPath id="id10"><path d="M 59.066406 163.953125 L 264.957031 163.953125 L 264.957031 170.082031 L 59.066406 170.082031 Z M 59.066406 163.953125 " clip-rule="nonzero"/></clipPath><linearGradient x1="420.325137" gradientTransform="matrix(0.375, 0, 0, 0.375, 0, 0.16643)" y1="453.195214" x2="420.330874" gradientUnits="userSpaceOnUse" y2="436.667645" id="id11"><stop stop-opacity="1" stop-color="rgb(98.594666%, 98.594666%, 98.594666%)" offset="0"/><stop stop-opacity="1" stop-color="rgb(98.434448%, 98.434448%, 98.434448%)" offset="0.0115302"/><stop stop-opacity="1" stop-color="rgb(98.275757%, 98.275757%, 98.275757%)" offset="0.125"/><stop stop-opacity="1" stop-color="rgb(98.11554%, 98.11554%, 98.11554%)" offset="0.25"/><stop stop-opacity="1" stop-color="rgb(97.795105%, 97.795105%, 97.795105%)" offset="0.375"/><stop stop-opacity="1" stop-color="rgb(97.476196%, 97.476196%, 97.476196%)" offset="0.5"/><stop stop-opacity="1" stop-color="rgb(97.155762%, 97.155762%, 97.155762%)" offset="0.625"/><stop stop-opacity="1" stop-color="rgb(96.835327%, 96.835327%, 96.835327%)" offset="0.75"/><stop stop-opacity="1" stop-color="rgb(96.516418%, 96.516418%, 96.516418%)" offset="0.875"/><stop stop-opacity="1" stop-color="rgb(96.195984%, 96.195984%, 96.195984%)" offset="0.98847"/><stop stop-opacity="1" stop-color="rgb(96.035767%, 96.035767%, 96.035767%)" offset="1"/></linearGradient><clipPath id="id12"><path d="M 149 96 L 304 96 L 304 224.832031 L 149 224.832031 Z M 149 96 " clip-rule="nonzero"/></clipPath><clipPath id="id13"><path d="M 29 96 L 184 96 L 184 224.832031 L 29 224.832031 Z M 29 96 " clip-rule="nonzero"/></clipPath></defs><g clip-path="url(#id1)"><g clip-path="url(#id2)"><path fill="url(#id3)" d="M 114.328125 31.800781 L 114.328125 73.667969 L 205.566406 73.667969 L 205.566406 31.800781 Z M 114.328125 31.800781 " fill-rule="nonzero"/></g></g><g clip-path="url(#id4)"><g clip-path="url(#id5)"><path fill="url(#id6)" d="M 63.800781 48.738281 L 63.800781 82.078125 L 136.503906 82.078125 L 136.503906 48.738281 Z M 63.800781 48.738281 " fill-rule="nonzero"/></g></g><g clip-path="url(#id7)"><g clip-path="url(#id8)"><path fill="url(#id9)" d="M 210.039062 39.675781 L 210.039062 73.667969 L 284.164062 73.667969 L 284.164062 39.675781 Z M 210.039062 39.675781 " fill-rule="nonzero"/></g></g><path fill="#ed8b00" d="M 131.257812 85.765625 L 127.652344 165.757812 L 62.082031 165.757812 L 68.859375 133.292969 L 90.714844 126.394531 C 91.285156 126.195312 91.789062 125.878906 92.222656 125.453125 C 92.65625 125.027344 92.980469 124.53125 93.195312 123.960938 L 106.261719 90.40625 Z M 131.257812 85.765625 " fill-opacity="1" fill-rule="nonzero"/><path fill="#ffffff" d="M 124.03125 94.1875 L 122.394531 123.046875 L 98.730469 125.261719 L 108.925781 95.242188 Z M 65.976562 133.378906 L 71.308594 132.535156 L 68.203125 143.515625 L 65.457031 143.222656 C 65.308594 143.207031 65.171875 143.164062 65.039062 143.097656 C 64.910156 143.027344 64.796875 142.933594 64.703125 142.820312 C 64.609375 142.707031 64.539062 142.582031 64.496094 142.441406 C 64.449219 142.300781 64.433594 142.15625 64.445312 142.011719 L 65.023438 134.40625 C 65.046875 134.144531 65.144531 133.917969 65.320312 133.726562 C 65.5 133.535156 65.71875 133.417969 65.976562 133.378906 Z M 65.976562 133.378906 " fill-opacity="1" fill-rule="nonzero"/><path fill="#ed8b00" d="M 95.792969 117.507812 C 97.070312 118.59375 95.917969 128.394531 95.007812 128.230469 C 94.097656 128.066406 92.152344 127.691406 91.363281 127.070312 C 90.578125 126.449219 86.152344 118.519531 87.226562 116.875 C 88.304688 115.230469 94.808594 116.664062 95.792969 117.507812 Z M 95.792969 117.507812 " fill-opacity="1" fill-rule="nonzero"/><path fill="#000000" d="M 95.792969 117.507812 C 97.070312 118.59375 95.917969 128.394531 95.007812 128.230469 C 94.097656 128.066406 92.152344 127.691406 91.363281 127.070312 C 90.578125 126.449219 86.152344 118.519531 87.226562 116.875 C 88.304688 115.230469 94.808594 116.664062 95.792969 117.507812 Z M 95.792969 117.507812 " fill-opacity="0.098" fill-rule="nonzero"/><path fill="#ed8b00" d="M 129.464844 165.757812 L 264.273438 165.757812 L 256.261719 67.480469 L 134.386719 67.480469 Z M 129.464844 165.757812 " fill-opacity="1" fill-rule="nonzero"/><g clip-path="url(#id10)"><path fill="url(#id11)" d="M 59.066406 163.953125 L 59.066406 170.082031 L 264.957031 170.082031 L 264.957031 163.953125 Z M 59.066406 163.953125 " fill-rule="nonzero"/></g><path stroke-linecap="butt" transform="matrix(0.375, 0, 0, 0.375, 0, 0.16643)" fill-opacity="1" fill="#dbdbdb" fill-rule="nonzero" stroke-linejoin="miter" d="M 200.270858 455.004158 L 200.270858 432.827072 L 146.562518 429.524989 L 142.666684 455.004158 Z M 716.98967 429.827072 L 683.468833 433.285406 L 683.468833 455.004158 L 721.041754 455.004158 Z M 716.98967 429.827072 " stroke="#e1e4e5" stroke-width="1.148" stroke-opacity="1" stroke-miterlimit="4"/><g clip-path="url(#id12)"><path stroke-linecap="butt" transform="matrix(0.375, 0, 0, 0.375, 0, 0.16643)" fill="none" stroke-linejoin="miter" d="M 560.843818 458.035409 C 560.843818 458.035409 565.958402 420.212487 603.38549 420.212487 C 640.812578 420.212487 646.354245 458.035409 646.354245 458.035409 " stroke="#e1e4e5" stroke-width="11.481" stroke-opacity="1" stroke-miterlimit="10"/></g><path fill="#59401e" d="M 226.355469 158.210938 C 246.429688 158.210938 246.464844 189.40625 226.355469 189.40625 C 206.277344 189.40625 206.246094 158.210938 226.355469 158.210938 Z M 226.355469 158.210938 " fill-opacity="1" fill-rule="nonzero"/><path fill="#e1e4e5" d="M 226.355469 166.726562 C 235.464844 166.726562 235.480469 180.886719 226.355469 180.886719 C 217.242188 180.886719 217.226562 166.726562 226.355469 166.726562 Z M 226.355469 166.726562 " fill-opacity="1" fill-rule="nonzero"/><g clip-path="url(#id13)"><path stroke-linecap="butt" transform="matrix(0.375, 0, 0, 0.375, 0, 0.16643)" fill="none" stroke-linejoin="miter" d="M 240.166696 458.035409 C 240.166696 458.035409 245.28128 420.212487 282.708368 420.212487 C 320.135456 420.212487 325.677123 458.035409 325.677123 458.035409 " stroke="#e1e4e5" stroke-width="11.481" stroke-opacity="1" stroke-miterlimit="10"/></g><path fill="#59401e" d="M 106.023438 158.210938 C 126.097656 158.210938 126.132812 189.40625 106.023438 189.40625 C 85.949219 189.40625 85.914062 158.210938 106.023438 158.210938 Z M 106.023438 158.210938 " fill-opacity="1" fill-rule="nonzero"/><path fill="#e1e4e5" d="M 106.023438 166.726562 C 115.132812 166.726562 115.152344 180.886719 106.023438 180.886719 C 96.910156 180.886719 96.898438 166.726562 106.023438 166.726562 Z M 106.023438 166.726562 " fill-opacity="1" fill-rule="nonzero"/><path stroke-linecap="round" transform="matrix(0.375, 0, 0, 0.375, 0, 0.16643)" fill="none" stroke-linejoin="round" d="M 561.427152 343.858311 C 540.604232 361.202064 506.843812 361.202064 486.031309 343.858311 M 477.604225 272.462469 L 477.604225 284.170804 M 571.541736 272.462469 L 571.541736 284.170804 M 515.687563 315.681225 L 530.718814 315.681225 M 526.958397 261.191635 C 519.812563 277.170803 515.687563 294.952056 515.687563 313.806224 " stroke="#59401e" stroke-width="15.03" stroke-opacity="1" stroke-miterlimit="4"/></svg>