<svg xmlns="http://www.w3.org/2000/svg" xmlns:xlink="http://www.w3.org/1999/xlink" width="500" zoomAndPan="magnify" viewBox="0 0 375 374.999991" height="500" preserveAspectRatio="xMidYMid meet" version="1.0"><defs><clipPath id="id1"><path d="M 136 63 L 350 63 L 350 277 L 136 277 Z M 136 63 " clip-rule="nonzero"/></clipPath><clipPath id="id2"><path d="M 350 169.984375 C 350 171.722656 349.957031 173.460938 349.871094 175.195312 C 349.785156 176.929688 349.65625 178.664062 349.488281 180.394531 C 349.316406 182.125 349.101562 183.847656 348.847656 185.566406 C 348.589844 187.285156 348.292969 188.996094 347.953125 190.703125 C 347.613281 192.40625 347.230469 194.101562 346.808594 195.789062 C 346.382812 197.472656 345.917969 199.148438 345.414062 200.8125 C 344.90625 202.476562 344.359375 204.125 343.773438 205.761719 C 343.183594 207.398438 342.558594 209.019531 341.890625 210.625 C 341.222656 212.230469 340.515625 213.820312 339.773438 215.390625 C 339.027344 216.960938 338.242188 218.511719 337.421875 220.046875 C 336.597656 221.578125 335.738281 223.089844 334.84375 224.582031 C 333.945312 226.070312 333.015625 227.539062 332.046875 228.984375 C 331.078125 230.429688 330.074219 231.851562 329.035156 233.246094 C 327.996094 234.640625 326.925781 236.011719 325.816406 237.355469 C 324.710938 238.699219 323.574219 240.015625 322.402344 241.300781 C 321.230469 242.589844 320.03125 243.847656 318.796875 245.078125 C 317.5625 246.308594 316.300781 247.503906 315.011719 248.671875 C 313.71875 249.839844 312.398438 250.972656 311.050781 252.078125 C 309.703125 253.179688 308.328125 254.25 306.929688 255.285156 C 305.527344 256.320312 304.101562 257.320312 302.652344 258.285156 C 301.203125 259.25 299.730469 260.179688 298.234375 261.074219 C 296.742188 261.96875 295.222656 262.824219 293.6875 263.644531 C 292.148438 264.460938 290.589844 265.242188 289.015625 265.984375 C 287.441406 266.730469 285.847656 267.433594 284.234375 268.097656 C 282.625 268.765625 281 269.390625 279.355469 269.972656 C 277.714844 270.558594 276.058594 271.105469 274.390625 271.609375 C 272.722656 272.113281 271.042969 272.578125 269.351562 273 C 267.660156 273.421875 265.960938 273.804688 264.25 274.140625 C 262.539062 274.480469 260.824219 274.777344 259.097656 275.03125 C 257.375 275.289062 255.644531 275.5 253.910156 275.671875 C 252.171875 275.839844 250.4375 275.96875 248.695312 276.054688 C 246.953125 276.140625 245.210938 276.183594 243.46875 276.183594 C 241.722656 276.183594 239.980469 276.140625 238.238281 276.054688 C 236.5 275.96875 234.761719 275.839844 233.023438 275.671875 C 231.289062 275.5 229.558594 275.289062 227.835938 275.03125 C 226.109375 274.777344 224.394531 274.480469 222.683594 274.140625 C 220.972656 273.804688 219.273438 273.421875 217.582031 273 C 215.890625 272.578125 214.210938 272.113281 212.542969 271.609375 C 210.875 271.105469 209.21875 270.558594 207.578125 269.972656 C 205.933594 269.390625 204.308594 268.765625 202.699219 268.097656 C 201.085938 267.433594 199.496094 266.730469 197.917969 265.984375 C 196.34375 265.242188 194.785156 264.460938 193.246094 263.644531 C 191.710938 262.824219 190.191406 261.96875 188.699219 261.074219 C 187.203125 260.179688 185.730469 259.25 184.28125 258.285156 C 182.832031 257.320312 181.40625 256.320312 180.003906 255.285156 C 178.605469 254.25 177.230469 253.179688 175.882812 252.078125 C 174.535156 250.972656 173.214844 249.839844 171.921875 248.671875 C 170.632812 247.503906 169.371094 246.308594 168.136719 245.078125 C 166.902344 243.847656 165.703125 242.589844 164.53125 241.300781 C 163.359375 240.015625 162.222656 238.699219 161.117188 237.355469 C 160.007812 236.011719 158.9375 234.640625 157.898438 233.246094 C 156.859375 231.851562 155.855469 230.429688 154.886719 228.984375 C 153.917969 227.539062 152.988281 226.070312 152.089844 224.582031 C 151.195312 223.089844 150.335938 221.578125 149.511719 220.046875 C 148.691406 218.511719 147.90625 216.960938 147.160156 215.390625 C 146.417969 213.820312 145.710938 212.230469 145.042969 210.625 C 144.375 209.019531 143.75 207.398438 143.160156 205.761719 C 142.574219 204.125 142.027344 202.476562 141.519531 200.8125 C 141.015625 199.148438 140.550781 197.472656 140.125 195.789062 C 139.703125 194.101562 139.320312 192.40625 138.980469 190.703125 C 138.640625 188.996094 138.34375 187.285156 138.085938 185.566406 C 137.832031 183.847656 137.617188 182.125 137.445312 180.394531 C 137.277344 178.664062 137.148438 176.929688 137.0625 175.195312 C 136.976562 173.460938 136.933594 171.722656 136.933594 169.984375 C 136.933594 168.246094 136.976562 166.507812 137.0625 164.773438 C 137.148438 163.039062 137.277344 161.304688 137.445312 159.574219 C 137.617188 157.84375 137.832031 156.121094 138.085938 154.402344 C 138.34375 152.683594 138.640625 150.972656 138.980469 149.265625 C 139.320312 147.5625 139.703125 145.867188 140.125 144.179688 C 140.550781 142.496094 141.015625 140.820312 141.519531 139.15625 C 142.027344 137.492188 142.574219 135.84375 143.160156 134.207031 C 143.75 132.570312 144.375 130.949219 145.042969 129.34375 C 145.710938 127.738281 146.417969 126.148438 147.160156 124.578125 C 147.90625 123.007812 148.691406 121.457031 149.511719 119.921875 C 150.335938 118.390625 151.195312 116.878906 152.089844 115.386719 C 152.988281 113.898438 153.917969 112.429688 154.886719 110.984375 C 155.855469 109.539062 156.859375 108.117188 157.898438 106.722656 C 158.9375 105.328125 160.007812 103.957031 161.117188 102.613281 C 162.222656 101.269531 163.359375 99.953125 164.53125 98.667969 C 165.703125 97.378906 166.902344 96.121094 168.136719 94.890625 C 169.371094 93.660156 170.632812 92.464844 171.921875 91.296875 C 173.214844 90.128906 174.535156 88.996094 175.882812 87.890625 C 177.230469 86.789062 178.605469 85.71875 180.003906 84.683594 C 181.40625 83.648438 182.832031 82.648438 184.28125 81.683594 C 185.730469 80.71875 187.203125 79.789062 188.699219 78.894531 C 190.191406 78 191.710938 77.144531 193.246094 76.324219 C 194.785156 75.507812 196.34375 74.726562 197.917969 73.980469 C 199.492188 73.238281 201.085938 72.535156 202.699219 71.871094 C 204.308594 71.203125 205.933594 70.578125 207.578125 69.996094 C 209.21875 69.410156 210.875 68.863281 212.542969 68.359375 C 214.210938 67.855469 215.890625 67.390625 217.582031 66.96875 C 219.273438 66.546875 220.972656 66.164062 222.683594 65.828125 C 224.394531 65.488281 226.109375 65.191406 227.835938 64.9375 C 229.558594 64.679688 231.289062 64.46875 233.023438 64.296875 C 234.761719 64.128906 236.5 64 238.238281 63.914062 C 239.980469 63.828125 241.722656 63.785156 243.46875 63.785156 C 245.210938 63.785156 246.953125 63.828125 248.695312 63.914062 C 250.4375 64 252.171875 64.128906 253.910156 64.296875 C 255.644531 64.46875 257.375 64.679688 259.097656 64.9375 C 260.824219 65.191406 262.539062 65.488281 264.25 65.828125 C 265.960938 66.164062 267.660156 66.546875 269.351562 66.96875 C 271.042969 67.390625 272.722656 67.855469 274.390625 68.359375 C 276.058594 68.863281 277.714844 69.410156 279.355469 69.996094 C 281 70.578125 282.625 71.203125 284.234375 71.871094 C 285.847656 72.535156 287.441406 73.238281 289.015625 73.980469 C 290.589844 74.726562 292.148438 75.507812 293.6875 76.324219 C 295.222656 77.144531 296.742188 78 298.234375 78.894531 C 299.730469 79.789062 301.203125 80.71875 302.652344 81.683594 C 304.101562 82.648438 305.527344 83.648438 306.929688 84.683594 C 308.328125 85.71875 309.703125 86.789062 311.050781 87.890625 C 312.398438 88.996094 313.71875 90.128906 315.011719 91.296875 C 316.300781 92.464844 317.5625 93.660156 318.796875 94.890625 C 320.03125 96.121094 321.230469 97.378906 322.402344 98.667969 C 323.574219 99.953125 324.710938 101.269531 325.816406 102.613281 C 326.925781 103.957031 327.996094 105.328125 329.035156 106.722656 C 330.074219 108.117188 331.078125 109.539062 332.046875 110.984375 C 333.015625 112.429688 333.945312 113.898438 334.84375 115.386719 C 335.738281 116.878906 336.597656 118.390625 337.421875 119.921875 C 338.242188 121.457031 339.027344 123.007812 339.773438 124.578125 C 340.515625 126.148438 341.222656 127.738281 341.890625 129.34375 C 342.558594 130.949219 343.183594 132.570312 343.773438 134.207031 C 344.359375 135.84375 344.90625 137.492188 345.414062 139.15625 C 345.917969 140.820312 346.382812 142.496094 346.808594 144.179688 C 347.230469 145.867188 347.613281 147.5625 347.953125 149.265625 C 348.292969 150.972656 348.589844 152.683594 348.847656 154.402344 C 349.101562 156.121094 349.316406 157.84375 349.488281 159.574219 C 349.65625 161.304688 349.785156 163.039062 349.871094 164.773438 C 349.957031 166.507812 350 168.246094 350 169.984375 Z M 350 169.984375 " clip-rule="nonzero"/></clipPath><linearGradient x1="544.626174" gradientTransform="matrix(0.625, 0, 0, 0.625, -93.749993, 0)" y1="443.811176" x2="540.637052" gradientUnits="userSpaceOnUse" y2="100.067254" id="id3"><stop stop-opacity="1" stop-color="rgb(98.594666%, 98.594666%, 98.594666%)" offset="0"/><stop stop-opacity="1" stop-color="rgb(98.434448%, 98.434448%, 98.434448%)" offset="0.0115076"/><stop stop-opacity="1" stop-color="rgb(98.275757%, 98.275757%, 98.275757%)" offset="0.125"/><stop stop-opacity="1" stop-color="rgb(98.11554%, 98.11554%, 98.11554%)" offset="0.25"/><stop stop-opacity="1" stop-color="rgb(97.795105%, 97.795105%, 97.795105%)" offset="0.375"/><stop stop-opacity="1" stop-color="rgb(97.47467%, 97.47467%, 97.47467%)" offset="0.5"/><stop stop-opacity="1" stop-color="rgb(97.155762%, 97.155762%, 97.155762%)" offset="0.625"/><stop stop-opacity="1" stop-color="rgb(96.835327%, 96.835327%, 96.835327%)" offset="0.75"/><stop stop-opacity="1" stop-color="rgb(96.516418%, 96.516418%, 96.516418%)" offset="0.875"/><stop stop-opacity="1" stop-color="rgb(96.195984%, 96.195984%, 96.195984%)" offset="0.988492"/><stop stop-opacity="1" stop-color="rgb(96.035767%, 96.035767%, 96.035767%)" offset="1"/></linearGradient></defs><g clip-path="url(#id1)"><g clip-path="url(#id2)"><path fill="url(#id3)" d="M 136.933594 63.785156 L 136.933594 276.183594 L 350 276.183594 L 350 63.785156 Z M 136.933594 63.785156 " fill-rule="nonzero"/></g></g><path fill="#ed8b00" d="M 280.46875 153.675781 C 280.46875 103.917969 239.996094 63.5625 190.097656 63.5625 C 140.195312 63.5625 99.519531 104.226562 99.722656 153.984375 C 99.824219 178.707031 109.867188 201.082031 126.054688 217.328125 C 138.660156 229.996094 147.984375 245.527344 152.59375 262.792969 L 159.871094 289.664062 L 219.09375 289.664062 L 225.957031 264.222656 C 230.773438 246.652344 240.304688 230.710938 253.316406 217.941406 C 270.121094 201.492188 280.46875 178.808594 280.46875 153.675781 Z M 280.46875 153.675781 " fill-opacity="1" fill-rule="nonzero"/><path stroke-linecap="butt" transform="matrix(0.625, 0, 0, 0.625, -93.749989, -0.000000000000042633)" fill-opacity="1" fill="#ffffff" fill-rule="nonzero" stroke-linejoin="miter" d="M 453.506292 515.112567 C 427.550038 515.112567 406.450036 494.062564 406.450036 468.200061 L 406.450036 459.05631 L 500.556298 459.05631 L 500.556298 468.200061 C 500.556298 494.225064 479.462545 515.112567 453.506292 515.112567 Z M 453.506292 515.112567 " stroke="#e1e4e5" stroke-width="4.59" stroke-opacity="1" stroke-miterlimit="4"/><path fill="#e1e4e5" d="M 220.730469 299.78125 L 158.535156 299.78125 C 157.203125 299.78125 156.175781 298.757812 156.175781 297.429688 C 156.175781 296.101562 157.203125 295.078125 158.535156 295.078125 L 220.730469 295.078125 C 222.0625 295.078125 223.085938 296.101562 223.085938 297.429688 C 223.085938 298.65625 221.960938 299.78125 220.730469 299.78125 Z M 221.140625 309.792969 L 158.945312 309.792969 C 157.613281 309.792969 156.589844 308.769531 156.589844 307.441406 C 156.589844 306.113281 157.613281 305.09375 158.945312 305.09375 L 221.140625 305.09375 C 222.472656 305.09375 223.496094 306.113281 223.496094 307.441406 C 223.496094 308.667969 222.472656 309.792969 221.140625 309.792969 Z M 221.140625 309.792969 " fill-opacity="1" fill-rule="nonzero"/><path stroke-linecap="butt" transform="matrix(0.625, 0, 0, 0.625, -93.749989, -0.000000000000042633)" fill-opacity="1" fill="#ffffff" fill-rule="nonzero" stroke-linejoin="miter" d="M 395.056284 268.300035 C 392.187534 268.300035 389.562533 268.993785 387.231283 270.362535 C 384.231283 272.143785 381.712532 275.693786 380.156282 280.356286 C 378.606282 284.987537 378.081282 290.525038 378.912532 296.006288 C 381.850032 315.325041 397.962535 336.162544 434.700039 342.131294 C 432.443789 320.325042 428.706289 300.793789 422.725038 289.156287 Z M 395.056284 268.300035 C 396.850034 268.300035 398.718785 268.562535 400.675035 269.100035 M 395.056284 268.300035 L 400.675035 269.100035 M 400.675035 269.100035 C 409.162536 271.531285 417.468787 278.937536 422.725038 289.156287 Z M 469.937544 453.931309 L 470.018794 455.593809 L 476.475045 455.593809 L 476.406295 453.781309 L 476.400045 453.700059 C 476.293795 451.100058 474.031294 395.768801 478.293795 348.225045 C 518.62505 342.212544 537.143803 319.125041 540.493803 296.912538 C 541.487553 290.337538 540.850053 283.762537 538.925053 278.181286 C 537.000053 272.631285 533.731302 267.925035 529.343802 265.312534 C 524.093801 262.181284 517.8063 261.600034 511.262549 263.468784 C 501.012548 266.387535 491.487547 275.075036 485.581296 286.500037 L 485.581296 286.506287 C 478.937545 299.400039 475.043795 320.425042 472.762544 343.012544 C 467.787544 343.568795 462.475043 343.862545 456.781292 343.862545 C 451.093791 343.862545 445.781291 343.568795 440.80629 343.012544 C 438.52504 320.393792 434.625039 299.400039 427.987538 286.506287 L 427.987538 286.500037 C 422.081288 275.075036 412.550036 266.387535 402.306285 263.468784 C 395.762534 261.600034 389.481283 262.181284 384.231283 265.312534 C 379.818782 267.925035 376.550032 272.625035 374.631282 278.187536 C 372.706281 283.762537 372.081281 290.337538 373.075031 296.912538 C 376.425032 319.093791 394.943784 342.175044 435.268789 348.225045 C 439.53129 395.762551 437.26879 451.093808 437.16879 453.700059 L 437.16254 453.781309 L 437.09379 455.593809 L 443.55004 455.593809 L 443.62504 453.931309 C 443.78754 450.525058 445.575041 396.431301 441.39379 348.943795 C 446.237541 349.418795 451.393791 349.687545 456.818792 349.687545 C 462.231293 349.687545 467.387544 349.443795 472.237544 348.950045 C 468.050044 396.437551 469.775044 450.556308 469.937544 453.931309 Z M 478.900045 342.162544 C 481.156295 320.356292 484.893796 300.793789 490.875047 289.193787 C 496.168797 278.962536 504.450048 271.525035 512.925049 269.131285 L 512.937549 269.125035 C 514.8813 268.562535 516.75005 268.300035 518.55005 268.300035 C 521.412551 268.300035 524.037551 268.993785 526.356301 270.387535 L 526.362551 270.393785 C 529.362552 272.175035 531.887552 275.725036 533.443802 280.387536 C 534.993802 285.018787 535.518802 290.556288 534.687552 296.037538 C 531.756302 315.325041 515.63755 336.193794 478.900045 342.162544 Z M 478.900045 342.162544 " stroke="#ffffff" stroke-width="3.489" stroke-opacity="1" stroke-miterlimit="4"/><path fill="#ffffff" d="M 261.304688 149.570312 C 258.921875 149.570312 256.996094 147.625 256.996094 145.214844 C 256.996094 118.234375 238.949219 94.785156 213.117188 88.164062 C 210.820312 87.574219 209.40625 85.199219 210.007812 82.878906 C 210.589844 80.542969 212.9375 79.132812 215.234375 79.738281 C 244.898438 87.324219 265.613281 114.253906 265.613281 145.214844 C 265.613281 147.625 263.6875 149.570312 261.304688 149.570312 Z M 201.640625 86.269531 C 204.019531 86.269531 205.945312 84.320312 205.945312 81.917969 C 205.945312 79.511719 204.019531 77.5625 201.640625 77.5625 C 199.257812 77.5625 197.328125 79.511719 197.328125 81.917969 C 197.328125 84.320312 199.257812 86.269531 201.640625 86.269531 Z M 201.640625 86.269531 " fill-opacity="1" fill-rule="nonzero"/><path fill="#e1e4e5" d="M 100.753906 204.492188 L 59.882812 204.492188 C 59.703125 204.492188 59.53125 204.523438 59.367188 204.59375 C 59.203125 204.660156 59.058594 204.757812 58.933594 204.882812 C 58.808594 205.007812 58.710938 205.152344 58.644531 205.316406 C 58.574219 205.480469 58.542969 205.652344 58.542969 205.832031 C 58.542969 206.007812 58.574219 206.179688 58.644531 206.34375 C 58.710938 206.507812 58.808594 206.652344 58.933594 206.777344 C 59.058594 206.902344 59.203125 207 59.367188 207.070312 C 59.53125 207.136719 59.703125 207.171875 59.882812 207.171875 L 100.753906 207.171875 C 100.929688 207.171875 101.101562 207.136719 101.265625 207.070312 C 101.429688 207 101.574219 206.902344 101.699219 206.777344 C 101.824219 206.652344 101.921875 206.507812 101.992188 206.34375 C 102.058594 206.179688 102.09375 206.007812 102.09375 205.832031 C 102.09375 205.652344 102.058594 205.480469 101.992188 205.316406 C 101.921875 205.152344 101.824219 205.007812 101.699219 204.882812 C 101.574219 204.757812 101.429688 204.660156 101.265625 204.59375 C 101.101562 204.523438 100.929688 204.492188 100.753906 204.492188 Z M 100.753906 204.492188 " fill-opacity="1" fill-rule="nonzero"/><path fill="#e1e4e5" d="M 84.671875 158.929688 L 44.46875 158.929688 C 44.292969 158.929688 44.121094 158.960938 43.957031 159.03125 C 43.792969 159.097656 43.648438 159.195312 43.523438 159.320312 C 43.398438 159.445312 43.300781 159.589844 43.234375 159.757812 C 43.164062 159.921875 43.128906 160.089844 43.128906 160.269531 C 43.128906 160.445312 43.164062 160.617188 43.234375 160.78125 C 43.300781 160.945312 43.398438 161.089844 43.523438 161.214844 C 43.648438 161.34375 43.792969 161.4375 43.957031 161.507812 C 44.121094 161.574219 44.292969 161.609375 44.46875 161.609375 L 84.671875 161.609375 C 84.847656 161.609375 85.019531 161.574219 85.183594 161.507812 C 85.347656 161.4375 85.492188 161.34375 85.621094 161.214844 C 85.746094 161.089844 85.84375 160.945312 85.910156 160.78125 C 85.976562 160.617188 86.011719 160.445312 86.011719 160.269531 C 86.011719 160.089844 85.976562 159.921875 85.910156 159.757812 C 85.84375 159.589844 85.746094 159.445312 85.621094 159.320312 C 85.492188 159.195312 85.347656 159.097656 85.183594 159.03125 C 85.019531 158.960938 84.847656 158.929688 84.671875 158.929688 Z M 84.671875 158.929688 " fill-opacity="1" fill-rule="nonzero"/><path fill="#e1e4e5" d="M 120.183594 229.953125 L 79.3125 229.953125 C 79.132812 229.953125 78.964844 229.917969 78.800781 229.847656 C 78.636719 229.78125 78.488281 229.683594 78.363281 229.558594 C 78.238281 229.433594 78.140625 229.289062 78.074219 229.125 C 78.007812 228.960938 77.972656 228.789062 77.972656 228.609375 C 77.972656 228.433594 78.007812 228.261719 78.074219 228.097656 C 78.140625 227.933594 78.238281 227.789062 78.363281 227.664062 C 78.488281 227.539062 78.636719 227.441406 78.800781 227.375 C 78.964844 227.304688 79.132812 227.269531 79.3125 227.269531 L 120.183594 227.269531 C 120.359375 227.269531 120.53125 227.304688 120.695312 227.375 C 120.859375 227.441406 121.003906 227.539062 121.128906 227.664062 C 121.257812 227.789062 121.351562 227.933594 121.421875 228.097656 C 121.488281 228.261719 121.523438 228.433594 121.523438 228.609375 C 121.523438 228.789062 121.488281 228.960938 121.421875 229.125 C 121.351562 229.289062 121.257812 229.433594 121.128906 229.558594 C 121.003906 229.683594 120.859375 229.78125 120.695312 229.847656 C 120.53125 229.917969 120.359375 229.953125 120.183594 229.953125 Z M 120.183594 229.953125 " fill-opacity="1" fill-rule="nonzero"/><path fill="#e1e4e5" d="M 86.011719 136.148438 L 62.5625 136.148438 C 62.382812 136.148438 62.210938 136.183594 62.046875 136.25 C 61.882812 136.316406 61.738281 136.414062 61.613281 136.539062 C 61.488281 136.667969 61.390625 136.8125 61.324219 136.976562 C 61.253906 137.140625 61.222656 137.308594 61.222656 137.488281 C 61.222656 137.664062 61.253906 137.835938 61.324219 138 C 61.390625 138.164062 61.488281 138.308594 61.613281 138.4375 C 61.738281 138.5625 61.882812 138.65625 62.046875 138.726562 C 62.210938 138.792969 62.382812 138.828125 62.5625 138.828125 L 86.011719 138.828125 C 86.191406 138.828125 86.359375 138.792969 86.523438 138.726562 C 86.6875 138.65625 86.832031 138.5625 86.960938 138.4375 C 87.085938 138.308594 87.183594 138.164062 87.25 138 C 87.316406 137.835938 87.351562 137.664062 87.351562 137.488281 C 87.351562 137.308594 87.316406 137.140625 87.25 136.976562 C 87.183594 136.8125 87.085938 136.667969 86.960938 136.539062 C 86.832031 136.414062 86.6875 136.316406 86.523438 136.25 C 86.359375 136.183594 86.191406 136.148438 86.011719 136.148438 Z M 86.011719 136.148438 " fill-opacity="1" fill-rule="nonzero"/><path fill="#e1e4e5" d="M 133.582031 252.730469 L 110.800781 252.730469 C 110.625 252.730469 110.453125 252.699219 110.289062 252.628906 C 110.125 252.5625 109.980469 252.464844 109.855469 252.339844 C 109.730469 252.214844 109.632812 252.070312 109.566406 251.90625 C 109.496094 251.742188 109.460938 251.570312 109.460938 251.390625 C 109.460938 251.214844 109.496094 251.042969 109.566406 250.878906 C 109.632812 250.714844 109.730469 250.570312 109.855469 250.445312 C 109.980469 250.320312 110.125 250.222656 110.289062 250.152344 C 110.453125 250.085938 110.625 250.050781 110.800781 250.050781 L 133.582031 250.050781 C 133.761719 250.050781 133.933594 250.085938 134.097656 250.152344 C 134.261719 250.222656 134.40625 250.320312 134.53125 250.445312 C 134.65625 250.570312 134.753906 250.714844 134.820312 250.878906 C 134.890625 251.042969 134.921875 251.214844 134.921875 251.390625 C 134.921875 251.570312 134.890625 251.742188 134.820312 251.90625 C 134.753906 252.070312 134.65625 252.214844 134.53125 252.339844 C 134.40625 252.464844 134.261719 252.5625 134.097656 252.628906 C 133.933594 252.699219 133.761719 252.730469 133.582031 252.730469 Z M 133.582031 252.730469 " fill-opacity="1" fill-rule="nonzero"/><path fill="#e1e4e5" d="M 93.382812 113.367188 L 70.601562 113.367188 C 70.421875 113.367188 70.253906 113.402344 70.089844 113.46875 C 69.925781 113.539062 69.78125 113.632812 69.652344 113.761719 C 69.527344 113.886719 69.429688 114.03125 69.363281 114.195312 C 69.296875 114.359375 69.261719 114.53125 69.261719 114.707031 C 69.261719 114.886719 69.296875 115.054688 69.363281 115.21875 C 69.429688 115.382812 69.527344 115.53125 69.652344 115.65625 C 69.78125 115.78125 69.925781 115.878906 70.089844 115.945312 C 70.253906 116.011719 70.421875 116.046875 70.601562 116.046875 L 93.382812 116.046875 C 93.558594 116.046875 93.730469 116.011719 93.894531 115.945312 C 94.058594 115.878906 94.203125 115.78125 94.328125 115.65625 C 94.453125 115.53125 94.550781 115.382812 94.621094 115.21875 C 94.6875 115.054688 94.722656 114.886719 94.722656 114.707031 C 94.722656 114.53125 94.6875 114.359375 94.621094 114.195312 C 94.550781 114.03125 94.453125 113.886719 94.328125 113.761719 C 94.203125 113.632812 94.058594 113.539062 93.894531 113.46875 C 93.730469 113.402344 93.558594 113.367188 93.382812 113.367188 Z M 93.382812 113.367188 " fill-opacity="1" fill-rule="nonzero"/><path fill="#e1e4e5" d="M 108.792969 90.585938 L 86.011719 90.585938 C 85.835938 90.585938 85.664062 90.621094 85.5 90.6875 C 85.335938 90.757812 85.191406 90.855469 85.0625 90.980469 C 84.9375 91.105469 84.84375 91.25 84.773438 91.414062 C 84.707031 91.578125 84.671875 91.75 84.671875 91.925781 C 84.671875 92.105469 84.707031 92.277344 84.773438 92.441406 C 84.84375 92.605469 84.9375 92.75 85.0625 92.875 C 85.191406 93 85.335938 93.097656 85.5 93.164062 C 85.664062 93.234375 85.835938 93.265625 86.011719 93.265625 L 108.792969 93.265625 C 108.96875 93.265625 109.140625 93.234375 109.304688 93.164062 C 109.46875 93.097656 109.613281 93 109.738281 92.875 C 109.867188 92.75 109.960938 92.605469 110.03125 92.441406 C 110.097656 92.277344 110.132812 92.105469 110.132812 91.925781 C 110.132812 91.75 110.097656 91.578125 110.03125 91.414062 C 109.960938 91.25 109.867188 91.105469 109.738281 90.980469 C 109.613281 90.855469 109.46875 90.757812 109.304688 90.6875 C 109.140625 90.621094 108.96875 90.585938 108.792969 90.585938 Z M 108.792969 90.585938 " fill-opacity="1" fill-rule="nonzero"/><path fill="#e1e4e5" d="M 141.625 67.804688 L 118.84375 67.804688 C 118.664062 67.804688 118.496094 67.839844 118.332031 67.910156 C 118.167969 67.976562 118.019531 68.074219 117.894531 68.199219 C 117.769531 68.324219 117.671875 68.46875 117.605469 68.632812 C 117.539062 68.796875 117.503906 68.96875 117.503906 69.144531 C 117.503906 69.324219 117.539062 69.496094 117.605469 69.660156 C 117.671875 69.824219 117.769531 69.96875 117.894531 70.09375 C 118.019531 70.21875 118.167969 70.316406 118.332031 70.382812 C 118.496094 70.453125 118.664062 70.484375 118.84375 70.484375 L 141.625 70.484375 C 141.800781 70.484375 141.972656 70.453125 142.136719 70.382812 C 142.300781 70.316406 142.445312 70.21875 142.570312 70.09375 C 142.695312 69.96875 142.792969 69.824219 142.863281 69.660156 C 142.929688 69.496094 142.964844 69.324219 142.964844 69.144531 C 142.964844 68.96875 142.929688 68.796875 142.863281 68.632812 C 142.792969 68.46875 142.695312 68.324219 142.570312 68.199219 C 142.445312 68.074219 142.300781 67.976562 142.136719 67.910156 C 141.972656 67.839844 141.800781 67.804688 141.625 67.804688 Z M 141.625 67.804688 " fill-opacity="1" fill-rule="nonzero"/><path fill="#e1e4e5" d="M 89.363281 181.710938 L 35.089844 181.710938 C 34.914062 181.710938 34.742188 181.742188 34.578125 181.8125 C 34.414062 181.878906 34.269531 181.976562 34.140625 182.101562 C 34.015625 182.226562 33.921875 182.371094 33.851562 182.535156 C 33.785156 182.699219 33.75 182.871094 33.75 183.050781 C 33.75 183.226562 33.785156 183.398438 33.851562 183.5625 C 33.921875 183.726562 34.015625 183.871094 34.140625 183.996094 C 34.269531 184.121094 34.414062 184.21875 34.578125 184.289062 C 34.742188 184.355469 34.914062 184.390625 35.089844 184.390625 L 89.363281 184.390625 C 89.539062 184.390625 89.710938 184.355469 89.875 184.289062 C 90.039062 184.21875 90.183594 184.121094 90.308594 183.996094 C 90.433594 183.871094 90.53125 183.726562 90.601562 183.5625 C 90.667969 183.398438 90.703125 183.226562 90.703125 183.050781 C 90.703125 182.871094 90.667969 182.699219 90.601562 182.535156 C 90.53125 182.371094 90.433594 182.226562 90.308594 182.101562 C 90.183594 181.976562 90.039062 181.878906 89.875 181.8125 C 89.710938 181.742188 89.539062 181.710938 89.363281 181.710938 Z M 89.363281 181.710938 " fill-opacity="1" fill-rule="nonzero"/></svg>