<?xml version="1.0" standalone="no"?>
<!DOCTYPE svg PUBLIC "-//W3C//DTD SVG 20010904//EN"
 "http://www.w3.org/TR/2001/REC-SVG-20010904/DTD/svg10.dtd">
<svg version="1.0" xmlns="http://www.w3.org/2000/svg"
 width="500.000000pt" height="500.000000pt" viewBox="0 0 500.000000 500.000000"
 preserveAspectRatio="xMidYMid meet">
<metadata>
Created by potrace 1.14, written by Peter Selinger 2001-2017
</metadata>
<g transform="translate(0.000000,500.000000) scale(0.100000,-0.100000)"
fill="#000000" stroke="none">
<path d="M2177 4825 c-397 -64 -754 -214 -1065 -448 -111 -82 -323 -288 -404
-393 -327 -416 -498 -907 -498 -1431 0 -257 35 -475 115 -721 160 -485 487
-911 920 -1194 480 -315 1072 -439 1639 -342 841 143 1531 737 1796 1544 79
241 110 439 110 715 0 377 -65 664 -225 993 -125 258 -240 418 -444 623 -339
338 -706 534 -1195 636 -108 23 -149 26 -391 29 -199 2 -293 -1 -358 -11z
m-190 -206 c15 -5 31 -16 35 -22 42 -66 -68 -246 -265 -434 -161 -154 -327
-271 -495 -351 -79 -37 -109 -46 -168 -50 -66 -4 -72 -3 -88 19 -23 33 -20 65
13 134 77 162 283 371 528 537 105 71 247 143 323 162 68 18 82 19 117 5z
m569 -828 c179 -37 276 -70 429 -146 510 -253 849 -733 929 -1313 54 -385 -35
-813 -234 -1137 -377 -613 -1059 -916 -1746 -776 -240 49 -476 157 -669 307
-354 273 -581 663 -650 1114 -20 126 -22 380 -5 500 89 627 505 1156 1079
1375 102 38 275 81 386 94 124 15 363 6 481 -18z"/>
<path d="M2092 3659 c-918 -107 -1530 -1033 -1297 -1962 130 -514 515 -930
1013 -1093 163 -54 262 -68 462 -67 247 0 409 36 627 138 699 328 1051 1164
807 1920 -227 702 -900 1147 -1612 1064z m159 -924 c196 -69 307 -285 370
-719 17 -123 20 -179 16 -315 -5 -176 -16 -228 -61 -306 -54 -92 -129 -144
-243 -171 -183 -43 -339 34 -422 210 -32 67 -66 185 -56 195 4 3 63 15 131 27
l124 21 6 -26 c36 -172 99 -239 191 -208 60 20 77 54 82 159 3 97 -16 315 -29
323 -5 3 -11 -4 -15 -14 -11 -35 -95 -100 -148 -116 -65 -19 -161 -19 -219 1
-209 71 -340 477 -233 721 47 105 134 184 240 216 66 21 210 21 266 2z"/>
<path d="M2025 2497 c-44 -44 -59 -102 -52 -198 8 -104 41 -200 87 -252 36
-40 41 -42 93 -42 48 0 60 4 87 30 41 39 53 91 47 205 -6 118 -34 197 -88 251
-35 35 -44 39 -90 39 -44 0 -55 -4 -84 -33z"/>
</g>
</svg>
