<?xml version="1.0" standalone="no"?>
<!DOCTYPE svg PUBLIC "-//W3C//DTD SVG 20010904//EN"
 "http://www.w3.org/TR/2001/REC-SVG-20010904/DTD/svg10.dtd">
<svg version="1.0" xmlns="http://www.w3.org/2000/svg"
 width="1200.000000pt" height="1200.000000pt" viewBox="0 0 1200.000000 1200.000000"
 preserveAspectRatio="xMidYMid meet">
<metadata>
Created by potrace 1.14, written by Peter Selinger 2001-2017
</metadata>
<g transform="translate(0.000000,1200.000000) scale(0.100000,-0.100000)"
fill="#000000" stroke="none">
<path d="M4083 8067 c-933 -933 -1628 -1637 -1652 -1671 -40 -58 -93 -179
-106 -246 -4 -19 -9 -81 -10 -137 -4 -157 32 -281 119 -411 32 -48 510 -532
1658 -1680 l1613 -1612 310 310 310 310 -1492 1493 c-1307 1308 -1493 1497
-1502 1532 -11 44 -7 84 13 123 7 13 680 692 1496 1508 l1484 1483 -75 73
c-68 66 -547 530 -553 535 -1 1 -727 -723 -1613 -1610z"/>
<path d="M7515 7849 l-309 -309 726 -728 c751 -752 749 -749 748 -822 -1 -53
-63 -119 -752 -809 l-718 -718 248 -241 c336 -326 374 -362 381 -362 14 0
1683 1677 1717 1725 142 198 171 457 79 687 -51 126 -87 165 -959 1036 l-851
851 -310 -310z"/>
</g>
</svg>
