<svg xmlns="http://www.w3.org/2000/svg" xmlns:xlink="http://www.w3.org/1999/xlink" width="50" zoomAndPan="magnify" viewBox="0 0 37.5 37.499999" height="50" preserveAspectRatio="xMidYMid meet" version="1.0"><defs><clipPath id="id1"><path d="M 10 9 L 31 9 L 31 31.699219 L 10 31.699219 Z M 10 9 " clip-rule="nonzero"/></clipPath><clipPath id="id2"><path d="M 9 5.449219 L 34.957031 5.449219 L 34.957031 31.699219 L 9 31.699219 Z M 9 5.449219 " clip-rule="nonzero"/></clipPath><clipPath id="id3"><path d="M 2.707031 14 L 10 14 L 10 31 L 2.707031 31 Z M 2.707031 14 " clip-rule="nonzero"/></clipPath></defs><g clip-path="url(#id1)"><path fill="rgb(96.859741%, 38.038635%, 2.349854%)" d="M 10.46875 13.699219 L 10.46875 10.8125 C 10.46875 10.019531 11.128906 9.371094 11.9375 9.371094 L 14.878906 9.371094 C 15.6875 9.371094 16.347656 10.019531 16.347656 10.8125 L 16.347656 13.699219 C 16.347656 14.496094 15.6875 15.144531 14.878906 15.144531 L 11.9375 15.144531 C 11.128906 15.144531 10.46875 14.496094 10.46875 13.699219 Z M 24.484375 10.792969 C 24.484375 9.996094 25.144531 9.347656 25.953125 9.347656 L 28.894531 9.347656 C 29.703125 9.347656 30.363281 9.996094 30.363281 10.792969 L 30.363281 13.675781 C 30.363281 14.472656 29.703125 15.121094 28.894531 15.121094 C 20.730469 15.121094 20.730469 25.257812 28.894531 25.257812 C 29.703125 25.257812 30.363281 25.90625 30.363281 26.703125 L 30.363281 29.585938 C 30.363281 30.382812 29.703125 31.03125 28.894531 31.03125 L 25.953125 31.03125 C 25.144531 31.03125 24.484375 30.382812 24.484375 29.585938 C 24.484375 25.816406 21.582031 23.117188 17.808594 23.117188 C 17 23.117188 16.339844 22.46875 16.339844 21.671875 L 16.339844 18.703125 C 16.339844 17.90625 17 17.257812 17.808594 17.257812 C 21.582031 17.257812 24.484375 14.558594 24.484375 10.789062 Z M 24.484375 10.792969 " fill-opacity="1" fill-rule="nonzero"/></g><g clip-path="url(#id2)"><path fill="rgb(20.388794%, 64.709473%, 91.369629%)" d="M 10.546875 31.640625 L 16.261719 31.640625 C 16.589844 31.640625 16.871094 31.480469 17.035156 31.199219 C 17.199219 30.921875 17.195312 30.601562 17.03125 30.324219 L 14.175781 25.511719 C 14.007812 25.234375 13.730469 25.078125 13.402344 25.078125 C 13.078125 25.078125 12.800781 25.234375 12.632812 25.511719 L 9.777344 30.324219 C 9.609375 30.601562 9.609375 30.921875 9.773438 31.199219 C 9.9375 31.476562 10.214844 31.640625 10.546875 31.640625 Z M 25.199219 24.34375 C 30.199219 20.554688 33.988281 15.820312 34.796875 11.824219 C 36.03125 5.742188 29.882812 3.695312 21.066406 7.25 C 19.316406 7.953125 17.589844 8.828125 15.9375 9.824219 C 15.949219 9.835938 15.960938 9.84375 15.96875 9.851562 C 17.363281 9.070312 18.808594 8.375 20.269531 7.804688 C 28.261719 4.671875 33.757812 6.289062 32.539062 11.421875 C 31.714844 14.882812 28.054688 19.058594 23.296875 22.371094 C 22.558594 22.886719 21.789062 23.382812 21 23.847656 C 19.355469 24.828125 17.621094 25.691406 15.863281 26.382812 C 15.539062 26.507812 15.210938 26.628906 14.894531 26.742188 L 16.433594 29.339844 C 16.484375 29.320312 16.535156 29.296875 16.589844 29.277344 C 18.890625 28.351562 21.148438 27.132812 23.246094 25.734375 C 23.910156 25.289062 24.558594 24.824219 25.1875 24.351562 Z M 25.199219 24.34375 " fill-opacity="1" fill-rule="evenodd"/></g><g clip-path="url(#id3)"><path fill="rgb(20.388794%, 64.709473%, 91.369629%)" d="M 2.863281 24.695312 C 2.144531 28.242188 3.933594 30.417969 7.300781 30.90625 C 7.714844 30.261719 8.214844 29.480469 8.808594 28.519531 C 5.511719 28.292969 3.75 26.3125 4.484375 22.890625 C 5.046875 20.28125 6.96875 17.289062 9.671875 14.503906 C 6.089844 17.796875 3.515625 21.484375 2.863281 24.691406 Z M 2.863281 24.695312 " fill-opacity="1" fill-rule="evenodd"/></g><path fill="rgb(0%, 0%, 0%)" d="M 23.589844 26.226562 C 24.351562 25.734375 25.152344 25.191406 25.867188 24.683594 C 25.6875 24.597656 25.359375 24.441406 25.195312 24.339844 C 24.566406 24.816406 23.917969 25.277344 23.253906 25.722656 C 23.347656 25.851562 23.5 26.082031 23.589844 26.222656 Z M 23.589844 26.226562 " fill-opacity="0.1686" fill-rule="evenodd"/></svg>